<?xml version="1.0" standalone="no"?>
<!DOCTYPE svg PUBLIC "-//W3C//DTD SVG 1.1//EN" "http://www.w3.org/Graphics/SVG/1.1/DTD/svg11.dtd" >
<svg xmlns="http://www.w3.org/2000/svg" xmlns:xlink="http://www.w3.org/1999/xlink" version="1.1">
<metadata>
Created by FontForge 20201107 at Wed May  2 21:40:23 2018
 By Unknown
Copyright \(c\) 2018 by Tom Lane, LucasFonts. All rights reserved.
</metadata>
<defs>
<font id="NyCarlsbergDisplay-Light" horiz-adv-x="610" >
  <font-face 
    font-family="Ny Carlsberg Display Light"
    font-weight="300"
    font-stretch="normal"
    units-per-em="1000"
    panose-1="2 11 3 2 5 3 2 2 2 3"
    ascent="780"
    descent="-220"
    x-height="520"
    cap-height="700"
    bbox="-272 -214 1068 986"
    underline-thickness="52"
    underline-position="-174"
    stemh="51"
    stemv="63"
    unicode-range="U+000D-FB02"
  />
<missing-glyph horiz-adv-x="550" 
d="M300 150h-150v250h50v-200h100v-50zM500 50h-450v450h450v-450zM400 150h-50v100h-100v50h100v50h-100v50h150v-250zM450 100v350h-350v-350h350z" />
    <glyph glyph-name="fi" unicode="fi" horiz-adv-x="585" 
d="M484 0h-63v470h-239v-470h-63v470h-104v50h104v68c0 116 52 171 161 171c30 0 56 -3 80 -8v-54c-27 7 -53 10 -83 10c-68 0 -95 -30 -95 -124v-63h302v-520zM453 620c-27 0 -48 21 -48 48s21 48 48 48s48 -21 48 -48s-21 -48 -48 -48z" />
    <glyph glyph-name="fl" unicode="fl" horiz-adv-x="585" 
d="M182 0h-63v470h-104v50h104v68c0 116 52 171 161 171c30 0 56 -3 80 -8v-54c-27 7 -53 10 -83 10c-68 0 -95 -30 -95 -124v-63h158l-20 -50h-138v-470zM484 0h-63v750h63v-750z" />
    <glyph glyph-name=".notdef" horiz-adv-x="550" 
d="M300 150h-150v250h50v-200h100v-50zM500 50h-450v450h450v-450zM400 150h-50v100h-100v50h100v50h-100v50h150v-250zM450 100v350h-350v-350h350z" />
    <glyph glyph-name=".null" horiz-adv-x="0" 
 />
    <glyph glyph-name="CR" unicode="&#xd;" horiz-adv-x="290" 
 />
    <glyph glyph-name="space" unicode=" " horiz-adv-x="290" 
 />
    <glyph glyph-name="space" unicode="&#xa0;" horiz-adv-x="290" 
 />
    <glyph glyph-name="A" unicode="A" horiz-adv-x="618" 
d="M597 0h-65l-72 204h-304l-72 -204h-63l250 700h76zM308 636l-134 -380h268z" />
    <glyph glyph-name="Agrave" unicode="&#xc0;" horiz-adv-x="618" 
d="M597 0h-65l-72 204h-304l-72 -204h-63l250 700h76zM308 636l-134 -380h268zM150 879h86l108 -110h-76z" />
    <glyph glyph-name="Aacute" unicode="&#xc1;" horiz-adv-x="618" 
d="M597 0h-65l-72 204h-304l-72 -204h-63l250 700h76zM308 636l-134 -380h268zM352 769h-76l108 110h86z" />
    <glyph glyph-name="Acircumflex" unicode="&#xc2;" horiz-adv-x="618" 
d="M597 0h-65l-72 204h-304l-72 -204h-63l250 700h76zM308 636l-134 -380h268zM276 879h66l104 -110h-71l-67 70l-67 -70h-69z" />
    <glyph glyph-name="Atilde" unicode="&#xc3;" horiz-adv-x="618" 
d="M597 0h-65l-72 204h-304l-72 -204h-63l250 700h76zM308 636l-134 -380h268zM187 761l-47 22c22 57 52 86 98 86c65 0 110 -59 148 -59c16 0 30 16 46 57l47 -22c-22 -57 -52 -86 -98 -86c-65 0 -110 59 -148 59c-16 0 -30 -16 -46 -57z" />
    <glyph glyph-name="Adieresis" unicode="&#xc4;" horiz-adv-x="618" 
d="M597 0h-65l-72 204h-304l-72 -204h-63l250 700h76zM308 636l-134 -380h268zM215 765c-27 0 -49 20 -49 47c0 26 22 46 49 46s48 -20 48 -46s-21 -47 -48 -47zM405 765c-27 0 -49 20 -49 47c0 26 22 46 49 46s48 -20 48 -46s-21 -47 -48 -47z" />
    <glyph glyph-name="Amacron" unicode="&#x100;" horiz-adv-x="618" 
d="M597 0h-65l-72 204h-304l-72 -204h-63l250 700h76zM308 636l-134 -380h268zM178 777v54h262v-54h-262z" />
    <glyph glyph-name="Abreve" unicode="&#x102;" horiz-adv-x="618" 
d="M597 0h-65l-72 204h-304l-72 -204h-63l250 700h76zM308 636l-134 -380h268zM386 868h50c-3 -79 -63 -110 -127 -110s-124 27 -127 110h49c5 -45 38 -62 79 -62c42 0 71 18 76 62z" />
    <glyph glyph-name="Aring" unicode="&#xc5;" horiz-adv-x="618" 
d="M597 0h-65l-72 204h-304l-72 -204h-63l250 700h76zM308 636l-134 -380h268zM308 739c-55 0 -92 38 -92 87s39 89 94 89s92 -38 92 -87s-39 -89 -94 -89zM309 781c30 0 45 22 45 46s-15 46 -45 46s-45 -22 -45 -46s15 -46 45 -46z" />
    <glyph glyph-name="Aringacute" unicode="&#x1fa;" horiz-adv-x="618" 
d="M597 0h-65l-72 204h-304l-72 -204h-63l250 700h76zM308 636l-134 -380h268zM308 726c-55 0 -92 32 -92 75s39 77 94 77s92 -32 92 -75s-39 -77 -94 -77zM273 900l91 86h79l-98 -86h-72zM309 765c31 0 46 17 46 37s-15 36 -46 36s-46 -16 -46 -36s15 -37 46 -37z" />
    <glyph glyph-name="Aogonek" unicode="&#x104;" horiz-adv-x="618" 
d="M580 -143l10 -50c-22 -11 -49 -16 -82 -16c-63 0 -90 28 -90 72c0 45 30 83 112 140l-70 201h-304l-72 -204h-63l250 700h76l250 -700c-88 -65 -118 -95 -118 -129c0 -18 10 -29 35 -29c22 0 43 4 66 15zM308 636l-134 -380h268z" />
    <glyph glyph-name="AE" unicode="&#xc6;" horiz-adv-x="896" 
d="M442 0v242h-254l-113 -242h-68l328 700h501v-52h-330v-258h314v-52h-314v-286h330v-52h-394zM377 648l-165 -354h230v354h-65z" />
    <glyph glyph-name="AEacute" unicode="&#x1fc;" horiz-adv-x="896" 
d="M442 0v242h-254l-113 -242h-68l328 700h501v-52h-330v-258h314v-52h-314v-286h330v-52h-394zM377 648l-165 -354h230v354h-65zM603 769h-76l108 110h86z" />
    <glyph glyph-name="B" unicode="B" horiz-adv-x="613" 
d="M101 0v700h191c159 0 242 -60 242 -173c0 -97 -60 -147 -127 -165v-2c69 -13 144 -64 144 -164c0 -106 -65 -196 -256 -196h-194zM165 385h130c121 0 173 48 173 138c0 94 -74 125 -184 125h-119v-263zM165 52h136c131 0 184 48 184 140c0 101 -72 141 -192 141h-128
v-281z" />
    <glyph glyph-name="uni1E02" unicode="&#x1e02;" horiz-adv-x="613" 
d="M101 0v700h191c159 0 242 -60 242 -173c0 -97 -60 -147 -127 -165v-2c69 -13 144 -64 144 -164c0 -106 -65 -196 -256 -196h-194zM165 385h130c121 0 173 48 173 138c0 94 -74 125 -184 125h-119v-263zM165 52h136c131 0 184 48 184 140c0 101 -72 141 -192 141h-128
v-281zM299 765c-27 0 -49 20 -49 47c0 26 22 46 49 46s48 -20 48 -46s-21 -47 -48 -47z" />
    <glyph glyph-name="C" unicode="C" horiz-adv-x="658" 
d="M585 121l38 -46c-63 -57 -144 -85 -241 -85c-194 0 -329 142 -329 358c0 215 149 362 339 362c79 0 144 -14 215 -63l-38 -54c-44 39 -95 63 -179 63c-158 0 -270 -123 -270 -306s112 -306 264 -306c87 0 150 29 201 77z" />
    <glyph glyph-name="Cacute" unicode="&#x106;" horiz-adv-x="658" 
d="M585 121l38 -46c-63 -57 -144 -85 -241 -85c-194 0 -329 142 -329 358c0 215 149 362 339 362c79 0 144 -14 215 -63l-38 -54c-44 39 -95 63 -179 63c-158 0 -270 -123 -270 -306s112 -306 264 -306c87 0 150 29 201 77zM425 769h-76l108 110h86z" />
    <glyph glyph-name="Ccircumflex" unicode="&#x108;" horiz-adv-x="658" 
d="M585 121l38 -46c-63 -57 -144 -85 -241 -85c-194 0 -329 142 -329 358c0 215 149 362 339 362c79 0 144 -14 215 -63l-38 -54c-44 39 -95 63 -179 63c-158 0 -270 -123 -270 -306s112 -306 264 -306c87 0 150 29 201 77zM357 879h66l104 -110h-71l-67 70l-67 -70h-69z
" />
    <glyph glyph-name="Ccaron" unicode="&#x10c;" horiz-adv-x="658" 
d="M585 121l38 -46c-63 -57 -144 -85 -241 -85c-194 0 -329 142 -329 358c0 215 149 362 339 362c79 0 144 -14 215 -63l-38 -54c-44 39 -95 63 -179 63c-158 0 -270 -123 -270 -306s112 -306 264 -306c87 0 150 29 201 77zM423 769h-66l-104 110h71l67 -70l67 70h69z" />
    <glyph glyph-name="Cdotaccent" unicode="&#x10a;" horiz-adv-x="658" 
d="M585 121l38 -46c-63 -57 -144 -85 -241 -85c-194 0 -329 142 -329 358c0 215 149 362 339 362c79 0 144 -14 215 -63l-38 -54c-44 39 -95 63 -179 63c-158 0 -270 -123 -270 -306s112 -306 264 -306c87 0 150 29 201 77zM391 765c-27 0 -49 20 -49 47c0 26 22 46 49 46
s48 -20 48 -46s-21 -47 -48 -47z" />
    <glyph glyph-name="Ccedilla" unicode="&#xc7;" horiz-adv-x="658" 
d="M585 121l38 -46c-57 -52 -129 -79 -214 -84c33 -42 45 -73 45 -105c0 -48 -25 -95 -112 -95c-21 0 -43 4 -60 9l-7 50c27 -9 50 -13 70 -13c36 0 54 16 54 44c0 33 -12 61 -48 111c-177 14 -298 152 -298 356c0 215 149 362 339 362c79 0 144 -14 215 -63l-38 -54
c-44 39 -95 63 -179 63c-158 0 -270 -123 -270 -306s112 -306 264 -306c87 0 150 29 201 77z" />
    <glyph glyph-name="D" unicode="D" horiz-adv-x="676" 
d="M101 0v700h184c207 0 334 -117 334 -345c0 -232 -141 -355 -345 -355h-173zM165 52h117c160 0 270 101 270 301c0 191 -93 295 -272 295h-115v-596z" />
    <glyph glyph-name="Dcaron" unicode="&#x10e;" horiz-adv-x="676" 
d="M101 0v700h184c207 0 334 -117 334 -345c0 -232 -141 -355 -345 -355h-173zM165 52h117c160 0 270 101 270 301c0 191 -93 295 -272 295h-115v-596zM355 769h-66l-104 110h71l67 -70l67 70h69z" />
    <glyph glyph-name="uni1E0A" unicode="&#x1e0a;" horiz-adv-x="676" 
d="M101 0v700h184c207 0 334 -117 334 -345c0 -232 -141 -355 -345 -355h-173zM165 52h117c160 0 270 101 270 301c0 191 -93 295 -272 295h-115v-596zM329 765c-27 0 -49 20 -49 47c0 26 22 46 49 46s48 -20 48 -46s-21 -47 -48 -47z" />
    <glyph glyph-name="Eth" unicode="&#xd0;" horiz-adv-x="688" 
d="M113 0v339h-93v51h93v310h184c207 0 334 -117 334 -345c0 -232 -141 -355 -345 -355h-173zM309 339h-132v-287h117c160 0 270 101 270 301c0 191 -93 295 -272 295h-115v-258h132v-51z" />
    <glyph glyph-name="Dcroat" unicode="&#x110;" horiz-adv-x="688" 
d="M113 0v339h-93v51h93v310h184c207 0 334 -117 334 -345c0 -232 -141 -355 -345 -355h-173zM309 339h-132v-287h117c160 0 270 101 270 301c0 191 -93 295 -272 295h-115v-258h132v-51z" />
    <glyph glyph-name="E" unicode="E" horiz-adv-x="555" 
d="M495 648h-330v-258h314v-52h-314v-286h330v-52h-394v700h394v-52z" />
    <glyph glyph-name="Egrave" unicode="&#xc8;" horiz-adv-x="555" 
d="M495 648h-330v-258h314v-52h-314v-286h330v-52h-394v700h394v-52zM145 879h86l108 -110h-76z" />
    <glyph glyph-name="Eacute" unicode="&#xc9;" horiz-adv-x="555" 
d="M495 648h-330v-258h314v-52h-314v-286h330v-52h-394v700h394v-52zM333 769h-76l108 110h86z" />
    <glyph glyph-name="Ecircumflex" unicode="&#xca;" horiz-adv-x="555" 
d="M495 648h-330v-258h314v-52h-314v-286h330v-52h-394v700h394v-52zM265 879h66l104 -110h-71l-67 70l-67 -70h-69z" />
    <glyph glyph-name="Ecaron" unicode="&#x11a;" horiz-adv-x="555" 
d="M495 648h-330v-258h314v-52h-314v-286h330v-52h-394v700h394v-52zM331 769h-66l-104 110h71l67 -70l67 70h69z" />
    <glyph glyph-name="Edieresis" unicode="&#xcb;" horiz-adv-x="555" 
d="M495 648h-330v-258h314v-52h-314v-286h330v-52h-394v700h394v-52zM204 765c-27 0 -49 20 -49 47c0 26 22 46 49 46s48 -20 48 -46s-21 -47 -48 -47zM394 765c-27 0 -49 20 -49 47c0 26 22 46 49 46s48 -20 48 -46s-21 -47 -48 -47z" />
    <glyph glyph-name="Emacron" unicode="&#x112;" horiz-adv-x="555" 
d="M495 648h-330v-258h314v-52h-314v-286h330v-52h-394v700h394v-52zM167 777v54h262v-54h-262z" />
    <glyph glyph-name="Ebreve" unicode="&#x114;" horiz-adv-x="555" 
d="M495 648h-330v-258h314v-52h-314v-286h330v-52h-394v700h394v-52zM375 868h50c-3 -79 -63 -110 -127 -110s-124 27 -127 110h49c5 -45 38 -62 79 -62c42 0 71 18 76 62z" />
    <glyph glyph-name="Edotaccent" unicode="&#x116;" horiz-adv-x="555" 
d="M495 648h-330v-258h314v-52h-314v-286h330v-52h-394v700h394v-52zM299 765c-27 0 -49 20 -49 47c0 26 22 46 49 46s48 -20 48 -46s-21 -47 -48 -47z" />
    <glyph glyph-name="Eogonek" unicode="&#x118;" horiz-adv-x="555" 
d="M478 -143l10 -50c-22 -11 -49 -16 -82 -16c-63 0 -90 28 -90 72s29 82 107 137h-322v700h394v-52h-330v-258h314v-52h-314v-286h330v-52c-88 -65 -118 -95 -118 -129c0 -18 10 -29 35 -29c22 0 43 4 66 15z" />
    <glyph glyph-name="uni018F" unicode="&#x18f;" horiz-adv-x="711" 
d="M126 579l-33 49c69 54 151 82 250 82c200 0 315 -142 315 -358c0 -215 -124 -362 -316 -362c-197 0 -292 136 -292 352c0 5 0 9 1 31h540c-7 170 -94 283 -250 283c-100 0 -164 -33 -215 -77zM344 44c151 0 238 110 247 277h-475c6 -165 68 -277 228 -277z" />
    <glyph glyph-name="F" unicode="F" horiz-adv-x="524" 
d="M480 648h-315v-265h299v-52h-299v-331h-64v700h379v-52z" />
    <glyph glyph-name="uni1E1E" unicode="&#x1e1e;" horiz-adv-x="524" 
d="M480 648h-315v-265h299v-52h-299v-331h-64v700h379v-52zM293 765c-27 0 -49 20 -49 47c0 26 22 46 49 46s48 -20 48 -46s-21 -47 -48 -47z" />
    <glyph glyph-name="G" unicode="G" horiz-adv-x="729" 
d="M649 373v-289c-58 -53 -143 -94 -254 -94c-204 0 -342 141 -342 358c0 215 144 362 346 362c103 0 181 -34 237 -87l-42 -50c-47 56 -115 83 -197 83c-170 0 -277 -123 -277 -306s107 -306 277 -306c74 0 145 19 188 59v217h-177v53h241z" />
    <glyph glyph-name="Gcircumflex" unicode="&#x11c;" horiz-adv-x="729" 
d="M649 373v-289c-58 -53 -143 -94 -254 -94c-204 0 -342 141 -342 358c0 215 144 362 346 362c103 0 181 -34 237 -87l-42 -50c-47 56 -115 83 -197 83c-170 0 -277 -123 -277 -306s107 -306 277 -306c74 0 145 19 188 59v217h-177v53h241zM359 879h66l104 -110h-71l-67 70
l-67 -70h-69z" />
    <glyph glyph-name="Gbreve" unicode="&#x11e;" horiz-adv-x="729" 
d="M649 373v-289c-58 -53 -143 -94 -254 -94c-204 0 -342 141 -342 358c0 215 144 362 346 362c103 0 181 -34 237 -87l-42 -50c-47 56 -115 83 -197 83c-170 0 -277 -123 -277 -306s107 -306 277 -306c74 0 145 19 188 59v217h-177v53h241zM468 868h50
c-3 -79 -63 -110 -127 -110s-124 27 -127 110h49c5 -45 38 -62 79 -62c42 0 71 18 76 62z" />
    <glyph glyph-name="Gcaron" unicode="&#x1e6;" horiz-adv-x="729" 
d="M649 373v-289c-58 -53 -143 -94 -254 -94c-204 0 -342 141 -342 358c0 215 144 362 346 362c103 0 181 -34 237 -87l-42 -50c-47 56 -115 83 -197 83c-170 0 -277 -123 -277 -306s107 -306 277 -306c74 0 145 19 188 59v217h-177v53h241zM421 769h-66l-104 110h71l67 -70
l67 70h69z" />
    <glyph glyph-name="Gdotaccent" unicode="&#x120;" horiz-adv-x="729" 
d="M649 373v-289c-58 -53 -143 -94 -254 -94c-204 0 -342 141 -342 358c0 215 144 362 346 362c103 0 181 -34 237 -87l-42 -50c-47 56 -115 83 -197 83c-170 0 -277 -123 -277 -306s107 -306 277 -306c74 0 145 19 188 59v217h-177v53h241zM398 765c-27 0 -49 20 -49 47
c0 26 22 46 49 46s48 -20 48 -46s-21 -47 -48 -47z" />
    <glyph glyph-name="Gcommaaccent" unicode="&#x122;" horiz-adv-x="729" 
d="M649 373v-289c-58 -53 -143 -94 -254 -94c-204 0 -342 141 -342 358c0 215 144 362 346 362c103 0 181 -34 237 -87l-42 -50c-47 56 -115 83 -197 83c-170 0 -277 -123 -277 -306s107 -306 277 -306c74 0 145 19 188 59v217h-177v53h241zM315 -207v39c38 -3 63 6 70 28
c-26 1 -37 21 -37 40c0 24 16 43 44 43c25 0 48 -18 48 -57c0 -46 -37 -98 -125 -93z" />
    <glyph glyph-name="H" unicode="H" horiz-adv-x="706" 
d="M605 0h-64v338h-376v-338h-64v700h64v-309h376v309h64v-700z" />
    <glyph glyph-name="Hcircumflex" unicode="&#x124;" horiz-adv-x="706" 
d="M605 0h-64v338h-376v-338h-64v700h64v-309h376v309h64v-700zM320 879h66l104 -110h-71l-67 70l-67 -70h-69z" />
    <glyph glyph-name="Hbar" unicode="&#x126;" horiz-adv-x="720" 
d="M607 0h-64v338h-366v-338h-64v534h-93v48h93v118h64v-118h366v118h64v-118h93v-48h-93v-534zM177 391h366v143h-366v-143z" />
    <glyph glyph-name="I" unicode="I" horiz-adv-x="266" 
d="M165 0h-64v700h64v-700z" />
    <glyph glyph-name="Igrave" unicode="&#xcc;" horiz-adv-x="266" 
d="M165 0h-64v700h64v-700zM-25 879h86l108 -110h-76z" />
    <glyph glyph-name="Iacute" unicode="&#xcd;" horiz-adv-x="266" 
d="M165 0h-64v700h64v-700zM176 769h-76l108 110h86z" />
    <glyph glyph-name="Icircumflex" unicode="&#xce;" horiz-adv-x="266" 
d="M165 0h-64v700h64v-700zM100 879h66l104 -110h-71l-67 70l-67 -70h-69z" />
    <glyph glyph-name="Itilde" unicode="&#x128;" horiz-adv-x="266" 
d="M165 0h-64v700h64v-700zM11 761l-47 22c22 57 52 86 98 86c65 0 110 -59 148 -59c16 0 30 16 46 57l47 -22c-22 -57 -52 -86 -98 -86c-65 0 -110 59 -148 59c-16 0 -30 -16 -46 -57z" />
    <glyph glyph-name="Idieresis" unicode="&#xcf;" horiz-adv-x="266" 
d="M165 0h-64v700h64v-700zM39 765c-27 0 -49 20 -49 47c0 26 22 46 49 46s48 -20 48 -46s-21 -47 -48 -47zM229 765c-27 0 -49 20 -49 47c0 26 22 46 49 46s48 -20 48 -46s-21 -47 -48 -47z" />
    <glyph glyph-name="Imacron" unicode="&#x12a;" horiz-adv-x="266" 
d="M165 0h-64v700h64v-700zM2 777v54h262v-54h-262z" />
    <glyph glyph-name="Ibreve" unicode="&#x12c;" horiz-adv-x="266" 
d="M165 0h-64v700h64v-700zM210 868h50c-3 -79 -63 -110 -127 -110s-124 27 -127 110h49c5 -45 38 -62 79 -62c42 0 71 18 76 62z" />
    <glyph glyph-name="Idotaccent" unicode="&#x130;" horiz-adv-x="266" 
d="M165 0h-64v700h64v-700zM134 765c-27 0 -49 20 -49 47c0 26 22 46 49 46s48 -20 48 -46s-21 -47 -48 -47z" />
    <glyph glyph-name="Iogonek" unicode="&#x12e;" horiz-adv-x="266" 
d="M164 -143l10 -50c-20 -10 -45 -16 -75 -16c-54 0 -80 26 -80 71c0 30 13 63 82 138v700h64v-700c-71 -74 -85 -105 -85 -130c0 -18 7 -28 27 -28c16 0 36 5 57 15z" />
    <glyph glyph-name="IJ" unicode="&#x132;" horiz-adv-x="560" 
d="M165 0h-64v700h64v-700zM459 700v-672c0 -114 -50 -174 -151 -174c-24 0 -50 3 -67 9l-12 56c20 -6 55 -11 77 -11c51 0 89 23 89 125v667h64z" />
    <glyph glyph-name="J" unicode="J" horiz-adv-x="304" 
d="M203 700v-672c0 -114 -50 -174 -151 -174c-24 0 -50 3 -67 9l-12 56c20 -6 55 -11 77 -11c51 0 89 23 89 125v667h64z" />
    <glyph glyph-name="Jcircumflex" unicode="&#x134;" horiz-adv-x="304" 
d="M203 700v-672c0 -114 -50 -174 -151 -174c-24 0 -50 3 -67 9l-12 56c20 -6 55 -11 77 -11c51 0 89 23 89 125v667h64zM138 879h66l104 -110h-71l-67 70l-67 -70h-69z" />
    <glyph glyph-name="K" unicode="K" horiz-adv-x="595" 
d="M570 0h-81l-244 371l-80 -85v-286h-64v700h64v-340l317 340h77l-265 -284z" />
    <glyph glyph-name="Kcommaaccent" unicode="&#x136;" horiz-adv-x="595" 
d="M570 0h-81l-244 371l-80 -85v-286h-64v700h64v-340l317 340h77l-265 -284zM241 -207v39c38 -3 63 6 70 28c-26 1 -37 21 -37 40c0 24 16 43 44 43c25 0 48 -18 48 -57c0 -46 -37 -98 -125 -93z" />
    <glyph glyph-name="L" unicode="L" horiz-adv-x="470" 
d="M457 0h-356v700h64v-647h292v-53z" />
    <glyph glyph-name="Lacute" unicode="&#x139;" horiz-adv-x="470" 
d="M457 0h-356v700h64v-647h292v-53zM173 769h-76l108 110h86z" />
    <glyph glyph-name="Lcaron" unicode="&#x13d;" horiz-adv-x="470" 
d="M457 0h-356v700h64v-647h292v-53zM412 750l-31 -173h-48l10 173h69z" />
    <glyph glyph-name="Lcommaaccent" unicode="&#x13b;" horiz-adv-x="470" 
d="M457 0h-356v700h64v-647h292v-53zM215 -207v39c38 -3 63 6 70 28c-26 1 -37 21 -37 40c0 24 16 43 44 43c25 0 48 -18 48 -57c0 -46 -37 -98 -125 -93z" />
    <glyph glyph-name="Lslash" unicode="&#x141;" horiz-adv-x="482" 
d="M469 0h-356v313l-93 -34v54l93 34v333h64v-310l162 60v-54l-162 -60v-283h292v-53z" />
    <glyph glyph-name="Ldot" unicode="&#x13f;" horiz-adv-x="470" 
d="M457 0h-356v700h64v-647h292v-53zM363 292c-30 0 -53 22 -53 53s23 53 53 53s53 -22 53 -53s-23 -53 -53 -53z" />
    <glyph glyph-name="M" unicode="M" horiz-adv-x="814" 
d="M713 0h-64v589l-235 -451h-14l-235 451v-589h-64v700h71l237 -454l236 454h68v-700z" />
    <glyph glyph-name="uni1E40" unicode="&#x1e40;" horiz-adv-x="814" 
d="M713 0h-64v589l-235 -451h-14l-235 451v-589h-64v700h71l237 -454l236 454h68v-700zM408 765c-27 0 -49 20 -49 47c0 26 22 46 49 46s48 -20 48 -46s-21 -47 -48 -47z" />
    <glyph glyph-name="N" unicode="N" horiz-adv-x="705" 
d="M604 0h-67l-373 593v-593h-63v700h67l373 -593v593h63v-700z" />
    <glyph glyph-name="Nacute" unicode="&#x143;" horiz-adv-x="705" 
d="M604 0h-67l-373 593v-593h-63v700h67l373 -593v593h63v-700zM381 769h-76l108 110h86z" />
    <glyph glyph-name="Ncaron" unicode="&#x147;" horiz-adv-x="705" 
d="M604 0h-67l-373 593v-593h-63v700h67l373 -593v593h63v-700zM385 769h-66l-104 110h71l67 -70l67 70h69z" />
    <glyph glyph-name="Ntilde" unicode="&#xd1;" horiz-adv-x="705" 
d="M604 0h-67l-373 593v-593h-63v700h67l373 -593v593h63v-700zM230 761l-47 22c22 57 52 86 98 86c65 0 110 -59 148 -59c16 0 30 16 46 57l47 -22c-22 -57 -52 -86 -98 -86c-65 0 -110 59 -148 59c-16 0 -30 -16 -46 -57z" />
    <glyph glyph-name="Ncommaaccent" unicode="&#x145;" horiz-adv-x="705" 
d="M604 0h-67l-373 593v-593h-63v700h67l373 -593v593h63v-700zM280 -207v39c38 -3 63 6 70 28c-26 1 -37 21 -37 40c0 24 16 43 44 43c25 0 48 -18 48 -57c0 -46 -37 -98 -125 -93z" />
    <glyph glyph-name="Eng" unicode="&#x14a;" horiz-adv-x="705" 
d="M604 700v-722c0 -114 -50 -174 -151 -174c-24 0 -50 3 -67 9l-12 56c20 -6 55 -11 77 -11c51 0 89 23 89 125v17l-376 590v-590h-63v700h67l373 -585v585h63z" />
    <glyph glyph-name="O" unicode="O" horiz-adv-x="794" 
d="M395 -10c-204 0 -342 141 -342 358c0 215 144 362 346 362c204 0 342 -141 342 -358c0 -215 -144 -362 -346 -362zM397 44c170 0 277 123 277 306s-107 306 -277 306s-277 -123 -277 -306s107 -306 277 -306z" />
    <glyph glyph-name="Ograve" unicode="&#xd2;" horiz-adv-x="794" 
d="M395 -10c-204 0 -342 141 -342 358c0 215 144 362 346 362c204 0 342 -141 342 -358c0 -215 -144 -362 -346 -362zM397 44c170 0 277 123 277 306s-107 306 -277 306s-277 -123 -277 -306s107 -306 277 -306zM239 879h86l108 -110h-76z" />
    <glyph glyph-name="Oacute" unicode="&#xd3;" horiz-adv-x="794" 
d="M395 -10c-204 0 -342 141 -342 358c0 215 144 362 346 362c204 0 342 -141 342 -358c0 -215 -144 -362 -346 -362zM397 44c170 0 277 123 277 306s-107 306 -277 306s-277 -123 -277 -306s107 -306 277 -306zM437 769h-76l108 110h86z" />
    <glyph glyph-name="Ocircumflex" unicode="&#xd4;" horiz-adv-x="794" 
d="M395 -10c-204 0 -342 141 -342 358c0 215 144 362 346 362c204 0 342 -141 342 -358c0 -215 -144 -362 -346 -362zM397 44c170 0 277 123 277 306s-107 306 -277 306s-277 -123 -277 -306s107 -306 277 -306zM364 879h66l104 -110h-71l-67 70l-67 -70h-69z" />
    <glyph glyph-name="Otilde" unicode="&#xd5;" horiz-adv-x="794" 
d="M395 -10c-204 0 -342 141 -342 358c0 215 144 362 346 362c204 0 342 -141 342 -358c0 -215 -144 -362 -346 -362zM397 44c170 0 277 123 277 306s-107 306 -277 306s-277 -123 -277 -306s107 -306 277 -306zM275 761l-47 22c22 57 52 86 98 86c65 0 110 -59 148 -59
c16 0 30 16 46 57l47 -22c-22 -57 -52 -86 -98 -86c-65 0 -110 59 -148 59c-16 0 -30 -16 -46 -57z" />
    <glyph glyph-name="Odieresis" unicode="&#xd6;" horiz-adv-x="794" 
d="M395 -10c-204 0 -342 141 -342 358c0 215 144 362 346 362c204 0 342 -141 342 -358c0 -215 -144 -362 -346 -362zM397 44c170 0 277 123 277 306s-107 306 -277 306s-277 -123 -277 -306s107 -306 277 -306zM303 765c-27 0 -49 20 -49 47c0 26 22 46 49 46
s48 -20 48 -46s-21 -47 -48 -47zM493 765c-27 0 -49 20 -49 47c0 26 22 46 49 46s48 -20 48 -46s-21 -47 -48 -47z" />
    <glyph glyph-name="Omacron" unicode="&#x14c;" horiz-adv-x="794" 
d="M395 -10c-204 0 -342 141 -342 358c0 215 144 362 346 362c204 0 342 -141 342 -358c0 -215 -144 -362 -346 -362zM397 44c170 0 277 123 277 306s-107 306 -277 306s-277 -123 -277 -306s107 -306 277 -306zM266 777v54h262v-54h-262z" />
    <glyph glyph-name="Obreve" unicode="&#x14e;" horiz-adv-x="794" 
d="M395 -10c-204 0 -342 141 -342 358c0 215 144 362 346 362c204 0 342 -141 342 -358c0 -215 -144 -362 -346 -362zM397 44c170 0 277 123 277 306s-107 306 -277 306s-277 -123 -277 -306s107 -306 277 -306zM474 868h50c-3 -79 -63 -110 -127 -110s-124 27 -127 110h49
c5 -45 38 -62 79 -62c42 0 71 18 76 62z" />
    <glyph glyph-name="Ohungarumlaut" unicode="&#x150;" horiz-adv-x="794" 
d="M395 -10c-204 0 -342 141 -342 358c0 215 144 362 346 362c204 0 342 -141 342 -358c0 -215 -144 -362 -346 -362zM397 44c170 0 277 123 277 306s-107 306 -277 306s-277 -123 -277 -306s107 -306 277 -306zM363 869h75l-89 -110h-65zM542 869h76l-108 -110h-66z" />
    <glyph glyph-name="Oslash" unicode="&#xd8;" horiz-adv-x="794" 
d="M143 -53h-72l91 126c-69 63 -109 158 -109 275c0 215 144 362 346 362c71 0 134 -17 186 -49l66 92h72l-91 -127c69 -62 109 -157 109 -274c0 -215 -144 -362 -346 -362c-71 0 -134 17 -186 48zM397 44c170 0 277 123 277 306c0 94 -28 172 -79 226l-352 -490
c42 -27 94 -42 154 -42zM120 350c0 -94 28 -172 78 -226l352 489c-42 28 -94 43 -153 43c-170 0 -277 -123 -277 -306z" />
    <glyph glyph-name="Oslashacute" unicode="&#x1fe;" horiz-adv-x="794" 
d="M143 -53h-72l91 126c-69 63 -109 158 -109 275c0 215 144 362 346 362c71 0 134 -17 186 -49l66 92h72l-91 -127c69 -62 109 -157 109 -274c0 -215 -144 -362 -346 -362c-71 0 -134 17 -186 48zM397 44c170 0 277 123 277 306c0 94 -28 172 -79 226l-352 -490
c42 -27 94 -42 154 -42zM120 350c0 -94 28 -172 78 -226l352 489c-42 28 -94 43 -153 43c-170 0 -277 -123 -277 -306zM431 769h-76l108 110h86z" />
    <glyph glyph-name="OE" unicode="&#x152;" horiz-adv-x="1128" 
d="M1068 0h-394v140c-49 -86 -142 -150 -279 -150c-204 0 -342 141 -342 358c0 215 144 362 346 362c132 0 225 -58 275 -143v133h394v-52h-330v-258h314v-52h-314v-286h330v-52zM397 44c170 0 277 123 277 306s-107 306 -277 306s-277 -123 -277 -306s107 -306 277 -306z
" />
    <glyph glyph-name="P" unicode="P" horiz-adv-x="568" 
d="M165 0h-64v700h175c159 0 248 -75 248 -209c0 -128 -92 -218 -243 -218h-116v-273zM165 325h121c102 0 172 58 172 164c0 121 -83 159 -194 159h-99v-323z" />
    <glyph glyph-name="uni1E56" unicode="&#x1e56;" horiz-adv-x="568" 
d="M165 0h-64v700h175c159 0 248 -75 248 -209c0 -128 -92 -218 -243 -218h-116v-273zM165 325h121c102 0 172 58 172 164c0 121 -83 159 -194 159h-99v-323zM285 765c-27 0 -49 20 -49 47c0 26 22 46 49 46s48 -20 48 -46s-21 -47 -48 -47z" />
    <glyph glyph-name="Thorn" unicode="&#xde;" horiz-adv-x="568" 
d="M165 0h-64v700h64v-128h111c159 0 248 -75 248 -209c0 -128 -92 -218 -243 -218h-116v-145zM165 197h121c102 0 172 58 172 164c0 121 -83 159 -194 159h-99v-323z" />
    <glyph glyph-name="Q" unicode="Q" horiz-adv-x="794" 
d="M707 -1l-42 -40l-77 85c-54 -35 -120 -54 -193 -54c-204 0 -342 141 -342 358c0 215 144 362 346 362c204 0 342 -141 342 -358c0 -116 -42 -211 -111 -275zM397 44c59 0 110 15 152 42l-81 82l42 40l80 -89c53 54 84 134 84 231c0 183 -107 306 -277 306
s-277 -123 -277 -306s107 -306 277 -306z" />
    <glyph glyph-name="R" unicode="R" horiz-adv-x="582" 
d="M554 0h-79l-214 295h-96v-295h-64v700h175c152 0 248 -66 248 -187c0 -126 -95 -197 -191 -212zM165 347h101c112 0 192 50 192 155c0 115 -93 146 -194 146h-99v-301z" />
    <glyph glyph-name="Racute" unicode="&#x154;" horiz-adv-x="582" 
d="M554 0h-79l-214 295h-96v-295h-64v700h175c152 0 248 -66 248 -187c0 -126 -95 -197 -191 -212zM165 347h101c112 0 192 50 192 155c0 115 -93 146 -194 146h-99v-301zM326 769h-76l108 110h86z" />
    <glyph glyph-name="Rcaron" unicode="&#x158;" horiz-adv-x="582" 
d="M554 0h-79l-214 295h-96v-295h-64v700h175c152 0 248 -66 248 -187c0 -126 -95 -197 -191 -212zM165 347h101c112 0 192 50 192 155c0 115 -93 146 -194 146h-99v-301zM325 769h-66l-104 110h71l67 -70l67 70h69z" />
    <glyph glyph-name="Rcommaaccent" unicode="&#x156;" horiz-adv-x="582" 
d="M554 0h-79l-214 295h-96v-295h-64v700h175c152 0 248 -66 248 -187c0 -126 -95 -197 -191 -212zM165 347h101c112 0 192 50 192 155c0 115 -93 146 -194 146h-99v-301zM245 -207v39c38 -3 63 6 70 28c-26 1 -37 21 -37 40c0 24 16 43 44 43c25 0 48 -18 48 -57
c0 -46 -37 -98 -125 -93z" />
    <glyph glyph-name="S" unicode="S" horiz-adv-x="532" 
d="M50 84l43 52c56 -67 116 -92 189 -92c80 0 133 45 133 122c0 167 -335 162 -335 367c0 105 86 177 200 177c72 0 125 -17 187 -67l-35 -54c-45 46 -94 67 -155 67c-77 0 -130 -45 -130 -117c0 -167 335 -162 335 -367c0 -110 -86 -182 -203 -182c-92 0 -167 30 -229 94z
" />
    <glyph glyph-name="Sacute" unicode="&#x15a;" horiz-adv-x="532" 
d="M50 84l43 52c56 -67 116 -92 189 -92c80 0 133 45 133 122c0 167 -335 162 -335 367c0 105 86 177 200 177c72 0 125 -17 187 -67l-35 -54c-45 46 -94 67 -155 67c-77 0 -130 -45 -130 -117c0 -167 335 -162 335 -367c0 -110 -86 -182 -203 -182c-92 0 -167 30 -229 94z
M318 769h-76l108 110h86z" />
    <glyph glyph-name="Scircumflex" unicode="&#x15c;" horiz-adv-x="532" 
d="M50 84l43 52c56 -67 116 -92 189 -92c80 0 133 45 133 122c0 167 -335 162 -335 367c0 105 86 177 200 177c72 0 125 -17 187 -67l-35 -54c-45 46 -94 67 -155 67c-77 0 -130 -45 -130 -117c0 -167 335 -162 335 -367c0 -110 -86 -182 -203 -182c-92 0 -167 30 -229 94z
M250 879h66l104 -110h-71l-67 70l-67 -70h-69z" />
    <glyph glyph-name="Scaron" unicode="&#x160;" horiz-adv-x="532" 
d="M50 84l43 52c56 -67 116 -92 189 -92c80 0 133 45 133 122c0 167 -335 162 -335 367c0 105 86 177 200 177c72 0 125 -17 187 -67l-35 -54c-45 46 -94 67 -155 67c-77 0 -130 -45 -130 -117c0 -167 335 -162 335 -367c0 -110 -86 -182 -203 -182c-92 0 -167 30 -229 94z
M314 769h-66l-104 110h71l67 -70l67 70h69z" />
    <glyph glyph-name="Scedilla" unicode="&#x15e;" horiz-adv-x="532" 
d="M50 84l43 52c56 -67 116 -92 189 -92c80 0 133 45 133 122c0 167 -335 162 -335 367c0 105 86 177 200 177c72 0 125 -17 187 -67l-35 -54c-45 46 -94 67 -155 67c-77 0 -130 -45 -130 -117c0 -167 335 -162 335 -367c0 -103 -75 -172 -179 -181c33 -42 45 -73 45 -105
c0 -48 -25 -95 -112 -95c-21 0 -43 4 -60 9l-7 50c27 -9 50 -13 70 -13c36 0 54 16 54 44c0 33 -12 61 -49 111c-76 6 -140 36 -194 92z" />
    <glyph glyph-name="Scommaaccent" unicode="&#x218;" horiz-adv-x="532" 
d="M50 84l43 52c56 -67 116 -92 189 -92c80 0 133 45 133 122c0 167 -335 162 -335 367c0 105 86 177 200 177c72 0 125 -17 187 -67l-35 -54c-45 46 -94 67 -155 67c-77 0 -130 -45 -130 -117c0 -167 335 -162 335 -367c0 -110 -86 -182 -203 -182c-92 0 -167 30 -229 94z
M202 -207v39c38 -3 63 6 70 28c-26 1 -37 21 -37 40c0 24 16 43 44 43c25 0 48 -18 48 -57c0 -46 -37 -98 -125 -93z" />
    <glyph glyph-name="uni1E60" unicode="&#x1e60;" horiz-adv-x="532" 
d="M50 84l43 52c56 -67 116 -92 189 -92c80 0 133 45 133 122c0 167 -335 162 -335 367c0 105 86 177 200 177c72 0 125 -17 187 -67l-35 -54c-45 46 -94 67 -155 67c-77 0 -130 -45 -130 -117c0 -167 335 -162 335 -367c0 -110 -86 -182 -203 -182c-92 0 -167 30 -229 94z
M279 765c-27 0 -49 20 -49 47c0 26 22 46 49 46s48 -20 48 -46s-21 -47 -48 -47z" />
    <glyph glyph-name="uni1E9E" unicode="&#x1e9e;" horiz-adv-x="670" 
d="M281 4v59c41 -11 78 -16 112 -16c90 0 153 56 153 148s-69 168 -213 147v52l160 253h-328v-647h-64v700h464v-45l-163 -258c116 -1 211 -76 211 -200c0 -120 -86 -204 -223 -204c-44 0 -75 4 -109 11z" />
    <glyph glyph-name="T" unicode="T" horiz-adv-x="528" 
d="M296 0h-64v647h-219v53h502v-53h-219v-647z" />
    <glyph glyph-name="Tcaron" unicode="&#x164;" horiz-adv-x="528" 
d="M296 0h-64v647h-219v53h502v-53h-219v-647zM297 769h-66l-104 110h71l67 -70l67 70h69z" />
    <glyph glyph-name="uni1E6A" unicode="&#x1e6a;" horiz-adv-x="528" 
d="M296 0h-64v647h-219v53h502v-53h-219v-647zM265 765c-27 0 -49 20 -49 47c0 26 22 46 49 46s48 -20 48 -46s-21 -47 -48 -47z" />
    <glyph glyph-name="Tbar" unicode="&#x166;" horiz-adv-x="528" 
d="M296 0h-64v339h-124v51h124v257h-219v53h502v-53h-219v-257h124v-51h-124v-339z" />
    <glyph glyph-name="Tcommaaccent" unicode="&#x21a;" horiz-adv-x="528" 
d="M296 0h-64v647h-219v53h502v-53h-219v-647zM185 -207v39c38 -3 63 6 70 28c-26 1 -37 21 -37 40c0 24 16 43 44 43c25 0 48 -18 48 -57c0 -46 -37 -98 -125 -93z" />
    <glyph glyph-name="uni0162" unicode="&#x162;" horiz-adv-x="528" 
d="M296 0h-64v647h-219v53h502v-53h-219v-647zM185 -207v39c38 -3 63 6 70 28c-26 1 -37 21 -37 40c0 24 16 43 44 43c25 0 48 -18 48 -57c0 -46 -37 -98 -125 -93z" />
    <glyph glyph-name="U" unicode="U" horiz-adv-x="699" 
d="M546 278v422h63v-421c0 -180 -86 -289 -264 -289s-255 106 -255 277v433h64v-427c0 -151 63 -230 196 -230c132 0 196 81 196 235z" />
    <glyph glyph-name="Ugrave" unicode="&#xd9;" horiz-adv-x="699" 
d="M546 278v422h63v-421c0 -180 -86 -289 -264 -289s-255 106 -255 277v433h64v-427c0 -151 63 -230 196 -230c132 0 196 81 196 235zM200 879h86l108 -110h-76z" />
    <glyph glyph-name="Uacute" unicode="&#xda;" horiz-adv-x="699" 
d="M546 278v422h63v-421c0 -180 -86 -289 -264 -289s-255 106 -255 277v433h64v-427c0 -151 63 -230 196 -230c132 0 196 81 196 235zM380 769h-76l108 110h86z" />
    <glyph glyph-name="Ucircumflex" unicode="&#xdb;" horiz-adv-x="699" 
d="M546 278v422h63v-421c0 -180 -86 -289 -264 -289s-255 106 -255 277v433h64v-427c0 -151 63 -230 196 -230c132 0 196 81 196 235zM316 879h66l104 -110h-71l-67 70l-67 -70h-69z" />
    <glyph glyph-name="Utilde" unicode="&#x168;" horiz-adv-x="699" 
d="M546 278v422h63v-421c0 -180 -86 -289 -264 -289s-255 106 -255 277v433h64v-427c0 -151 63 -230 196 -230c132 0 196 81 196 235zM227 761l-47 22c22 57 52 86 98 86c65 0 110 -59 148 -59c16 0 30 16 46 57l47 -22c-22 -57 -52 -86 -98 -86c-65 0 -110 59 -148 59
c-16 0 -30 -16 -46 -57z" />
    <glyph glyph-name="Udieresis" unicode="&#xdc;" horiz-adv-x="699" 
d="M546 278v422h63v-421c0 -180 -86 -289 -264 -289s-255 106 -255 277v433h64v-427c0 -151 63 -230 196 -230c132 0 196 81 196 235zM255 765c-27 0 -49 20 -49 47c0 26 22 46 49 46s48 -20 48 -46s-21 -47 -48 -47zM445 765c-27 0 -49 20 -49 47c0 26 22 46 49 46
s48 -20 48 -46s-21 -47 -48 -47z" />
    <glyph glyph-name="Umacron" unicode="&#x16a;" horiz-adv-x="699" 
d="M546 278v422h63v-421c0 -180 -86 -289 -264 -289s-255 106 -255 277v433h64v-427c0 -151 63 -230 196 -230c132 0 196 81 196 235zM218 777v54h262v-54h-262z" />
    <glyph glyph-name="Ubreve" unicode="&#x16c;" horiz-adv-x="699" 
d="M546 278v422h63v-421c0 -180 -86 -289 -264 -289s-255 106 -255 277v433h64v-427c0 -151 63 -230 196 -230c132 0 196 81 196 235zM426 868h50c-3 -79 -63 -110 -127 -110s-124 27 -127 110h49c5 -45 38 -62 79 -62c42 0 71 18 76 62z" />
    <glyph glyph-name="Uring" unicode="&#x16e;" horiz-adv-x="699" 
d="M546 278v422h63v-421c0 -180 -86 -289 -264 -289s-255 106 -255 277v433h64v-427c0 -151 63 -230 196 -230c132 0 196 81 196 235zM348 739c-55 0 -92 38 -92 87s39 89 94 89s92 -38 92 -87s-39 -89 -94 -89zM349 781c30 0 45 22 45 46s-15 46 -45 46s-45 -22 -45 -46
s15 -46 45 -46z" />
    <glyph glyph-name="Uhungarumlaut" unicode="&#x170;" horiz-adv-x="699" 
d="M546 278v422h63v-421c0 -180 -86 -289 -264 -289s-255 106 -255 277v433h64v-427c0 -151 63 -230 196 -230c132 0 196 81 196 235zM312 869h75l-89 -110h-65zM491 869h76l-108 -110h-66z" />
    <glyph glyph-name="Uogonek" unicode="&#x172;" horiz-adv-x="699" 
d="M485 -143l10 -50c-22 -11 -49 -16 -82 -16c-63 0 -90 28 -90 80c0 38 28 82 72 122c-16 -2 -33 -3 -50 -3c-178 0 -255 106 -255 277v433h64v-427c0 -149 62 -230 196 -230c131 0 196 82 196 235v422h63v-421c0 -110 -31 -187 -90 -236c-107 -89 -135 -127 -135 -164
c0 -26 10 -37 35 -37c22 0 43 4 66 15z" />
    <glyph glyph-name="V" unicode="V" horiz-adv-x="580" 
d="M323 0h-66l-245 700h65l215 -621l213 621h63z" />
    <glyph glyph-name="W" unicode="W" horiz-adv-x="913" 
d="M694 0h-70l-167 595l-167 -595h-71l-199 700h66l171 -608l171 608h60l171 -609l171 609h63z" />
    <glyph glyph-name="Wgrave" unicode="&#x1e80;" horiz-adv-x="913" 
d="M694 0h-70l-167 595l-167 -595h-71l-199 700h66l171 -608l171 608h60l171 -609l171 609h63zM302 879h86l108 -110h-76z" />
    <glyph glyph-name="Wacute" unicode="&#x1e82;" horiz-adv-x="913" 
d="M694 0h-70l-167 595l-167 -595h-71l-199 700h66l171 -608l171 608h60l171 -609l171 609h63zM500 769h-76l108 110h86z" />
    <glyph glyph-name="Wcircumflex" unicode="&#x174;" horiz-adv-x="913" 
d="M694 0h-70l-167 595l-167 -595h-71l-199 700h66l171 -608l171 608h60l171 -609l171 609h63zM423 879h66l104 -110h-71l-67 70l-67 -70h-69z" />
    <glyph glyph-name="Wdieresis" unicode="&#x1e84;" horiz-adv-x="913" 
d="M694 0h-70l-167 595l-167 -595h-71l-199 700h66l171 -608l171 608h60l171 -609l171 609h63zM362 765c-27 0 -49 20 -49 47c0 26 22 46 49 46s48 -20 48 -46s-21 -47 -48 -47zM552 765c-27 0 -49 20 -49 47c0 26 22 46 49 46s48 -20 48 -46s-21 -47 -48 -47z" />
    <glyph glyph-name="X" unicode="X" horiz-adv-x="588" 
d="M569 0h-75l-203 312l-202 -312h-70l236 360l-222 340h73l191 -294l191 294h67l-222 -339z" />
    <glyph glyph-name="Y" unicode="Y" horiz-adv-x="568" 
d="M316 0h-64v277l-242 423h69l207 -365l207 365h65l-242 -423v-277z" />
    <glyph glyph-name="Ygrave" unicode="&#x1ef2;" horiz-adv-x="568" 
d="M316 0h-64v277l-242 423h69l207 -365l207 365h65l-242 -423v-277zM132 879h86l108 -110h-76z" />
    <glyph glyph-name="Yacute" unicode="&#xdd;" horiz-adv-x="568" 
d="M316 0h-64v277l-242 423h69l207 -365l207 365h65l-242 -423v-277zM322 769h-76l108 110h86z" />
    <glyph glyph-name="Ycircumflex" unicode="&#x176;" horiz-adv-x="568" 
d="M316 0h-64v277l-242 423h69l207 -365l207 365h65l-242 -423v-277zM251 879h66l104 -110h-71l-67 70l-67 -70h-69z" />
    <glyph glyph-name="Ydieresis" unicode="&#x178;" horiz-adv-x="568" 
d="M316 0h-64v277l-242 423h69l207 -365l207 365h65l-242 -423v-277zM190 765c-27 0 -49 20 -49 47c0 26 22 46 49 46s48 -20 48 -46s-21 -47 -48 -47zM380 765c-27 0 -49 20 -49 47c0 26 22 46 49 46s48 -20 48 -46s-21 -47 -48 -47z" />
    <glyph glyph-name="Z" unicode="Z" horiz-adv-x="580" 
d="M531 0h-479v45l385 602h-367v53h443v-45l-385 -602h403v-53z" />
    <glyph glyph-name="Zacute" unicode="&#x179;" horiz-adv-x="580" 
d="M531 0h-479v45l385 602h-367v53h443v-45l-385 -602h403v-53zM324 769h-76l108 110h86z" />
    <glyph glyph-name="Zcaron" unicode="&#x17d;" horiz-adv-x="580" 
d="M531 0h-479v45l385 602h-367v53h443v-45l-385 -602h403v-53zM325 769h-66l-104 110h71l67 -70l67 70h69z" />
    <glyph glyph-name="Zdotaccent" unicode="&#x17b;" horiz-adv-x="580" 
d="M531 0h-479v45l385 602h-367v53h443v-45l-385 -602h403v-53zM281 765c-27 0 -49 20 -49 47c0 26 22 46 49 46s48 -20 48 -46s-21 -47 -48 -47z" />
    <glyph glyph-name="a" unicode="a" horiz-adv-x="570" 
d="M555 47v-48c-18 -7 -36 -9 -50 -9c-68 0 -96 39 -99 90c-38 -59 -103 -90 -170 -90c-123 0 -181 63 -181 161c0 99 73 166 198 166c53 0 112 -14 150 -37v62c0 104 -47 137 -136 137c-57 0 -113 -20 -158 -53l-25 46c55 38 119 58 189 58c124 0 193 -56 193 -182v-240
c0 -40 11 -67 50 -67c15 0 27 2 39 6zM403 209v18c-45 27 -105 39 -151 39c-84 0 -132 -39 -132 -111c0 -76 43 -114 122 -114c115 0 161 103 161 168z" />
    <glyph glyph-name="agrave" unicode="&#xe0;" horiz-adv-x="570" 
d="M555 47v-48c-18 -7 -36 -9 -50 -9c-68 0 -96 39 -99 90c-38 -59 -103 -90 -170 -90c-123 0 -181 63 -181 161c0 99 73 166 198 166c53 0 112 -14 150 -37v62c0 104 -47 137 -136 137c-57 0 -113 -20 -158 -53l-25 46c55 38 119 58 189 58c124 0 193 -56 193 -182v-240
c0 -40 11 -67 50 -67c15 0 27 2 39 6zM403 209v18c-45 27 -105 39 -151 39c-84 0 -132 -39 -132 -111c0 -76 43 -114 122 -114c115 0 161 103 161 168zM130 750h72l102 -150h-62z" />
    <glyph glyph-name="aacute" unicode="&#xe1;" horiz-adv-x="570" 
d="M555 47v-48c-18 -7 -36 -9 -50 -9c-68 0 -96 39 -99 90c-38 -59 -103 -90 -170 -90c-123 0 -181 63 -181 161c0 99 73 166 198 166c53 0 112 -14 150 -37v62c0 104 -47 137 -136 137c-57 0 -113 -20 -158 -53l-25 46c55 38 119 58 189 58c124 0 193 -56 193 -182v-240
c0 -40 11 -67 50 -67c15 0 27 2 39 6zM403 209v18c-45 27 -105 39 -151 39c-84 0 -132 -39 -132 -111c0 -76 43 -114 122 -114c115 0 161 103 161 168zM338 750h72l-112 -150h-62z" />
    <glyph glyph-name="acircumflex" unicode="&#xe2;" horiz-adv-x="570" 
d="M555 47v-48c-18 -7 -36 -9 -50 -9c-68 0 -96 39 -99 90c-38 -59 -103 -90 -170 -90c-123 0 -181 63 -181 161c0 99 73 166 198 166c53 0 112 -14 150 -37v62c0 104 -47 137 -136 137c-57 0 -113 -20 -158 -53l-25 46c55 38 119 58 189 58c124 0 193 -56 193 -182v-240
c0 -40 11 -67 50 -67c15 0 27 2 39 6zM403 209v18c-45 27 -105 39 -151 39c-84 0 -132 -39 -132 -111c0 -76 43 -114 122 -114c115 0 161 103 161 168zM238 750h62l101 -150h-62l-71 106l-71 -106h-60z" />
    <glyph glyph-name="atilde" unicode="&#xe3;" horiz-adv-x="570" 
d="M555 47v-48c-18 -7 -36 -9 -50 -9c-68 0 -96 39 -99 90c-38 -59 -103 -90 -170 -90c-123 0 -181 63 -181 161c0 99 73 166 198 166c53 0 112 -14 150 -37v62c0 104 -47 137 -136 137c-57 0 -113 -20 -158 -53l-25 46c55 38 119 58 189 58c124 0 193 -56 193 -182v-240
c0 -40 11 -67 50 -67c15 0 27 2 39 6zM403 209v18c-45 27 -105 39 -151 39c-84 0 -132 -39 -132 -111c0 -76 43 -114 122 -114c115 0 161 103 161 168zM153 605l-48 16c25 84 56 109 100 109c63 0 102 -77 134 -77c17 0 29 15 47 75l48 -16c-25 -84 -56 -109 -100 -109
c-63 0 -102 77 -134 77c-17 0 -29 -15 -47 -75z" />
    <glyph glyph-name="adieresis" unicode="&#xe4;" horiz-adv-x="570" 
d="M555 47v-48c-18 -7 -36 -9 -50 -9c-68 0 -96 39 -99 90c-38 -59 -103 -90 -170 -90c-123 0 -181 63 -181 161c0 99 73 166 198 166c53 0 112 -14 150 -37v62c0 104 -47 137 -136 137c-57 0 -113 -20 -158 -53l-25 46c55 38 119 58 189 58c124 0 193 -56 193 -182v-240
c0 -40 11 -67 50 -67c15 0 27 2 39 6zM403 209v18c-45 27 -105 39 -151 39c-84 0 -132 -39 -132 -111c0 -76 43 -114 122 -114c115 0 161 103 161 168zM186 621c-26 0 -47 19 -47 47c0 26 21 46 47 46s46 -20 46 -46s-20 -47 -46 -47zM353 621c-26 0 -47 19 -47 47
c0 26 21 46 47 46s46 -20 46 -46s-20 -47 -46 -47z" />
    <glyph glyph-name="amacron" unicode="&#x101;" horiz-adv-x="570" 
d="M555 47v-48c-18 -7 -36 -9 -50 -9c-68 0 -96 39 -99 90c-38 -59 -103 -90 -170 -90c-123 0 -181 63 -181 161c0 99 73 166 198 166c53 0 112 -14 150 -37v62c0 104 -47 137 -136 137c-57 0 -113 -20 -158 -53l-25 46c55 38 119 58 189 58c124 0 193 -56 193 -182v-240
c0 -40 11 -67 50 -67c15 0 27 2 39 6zM403 209v18c-45 27 -105 39 -151 39c-84 0 -132 -39 -132 -111c0 -76 43 -114 122 -114c115 0 161 103 161 168zM143 634v48h252v-48h-252z" />
    <glyph glyph-name="abreve" unicode="&#x103;" horiz-adv-x="570" 
d="M555 47v-48c-18 -7 -36 -9 -50 -9c-68 0 -96 39 -99 90c-38 -59 -103 -90 -170 -90c-123 0 -181 63 -181 161c0 99 73 166 198 166c53 0 112 -14 150 -37v62c0 104 -47 137 -136 137c-57 0 -113 -20 -158 -53l-25 46c55 38 119 58 189 58c124 0 193 -56 193 -182v-240
c0 -40 11 -67 50 -67c15 0 27 2 39 6zM403 209v18c-45 27 -105 39 -151 39c-84 0 -132 -39 -132 -111c0 -76 43 -114 122 -114c115 0 161 103 161 168zM341 731h50c-3 -83 -60 -121 -122 -121s-119 31 -122 121h50c5 -50 28 -72 73 -72c46 0 66 23 71 72z" />
    <glyph glyph-name="aring" unicode="&#xe5;" horiz-adv-x="570" 
d="M555 47v-48c-18 -7 -36 -9 -50 -9c-68 0 -96 39 -99 90c-38 -59 -103 -90 -170 -90c-123 0 -181 63 -181 161c0 99 73 166 198 166c53 0 112 -14 150 -37v62c0 104 -47 137 -136 137c-57 0 -113 -20 -158 -53l-25 46c55 38 119 58 189 58c124 0 193 -56 193 -182v-240
c0 -40 11 -67 50 -67c15 0 27 2 39 6zM403 209v18c-45 27 -105 39 -151 39c-84 0 -132 -39 -132 -111c0 -76 43 -114 122 -114c115 0 161 103 161 168zM268 579c-59 0 -97 40 -97 92s40 94 99 94s97 -40 97 -92s-40 -94 -99 -94zM269 620c33 0 50 23 50 52s-17 52 -50 52
s-50 -23 -50 -52s17 -52 50 -52z" />
    <glyph glyph-name="aogonek" unicode="&#x105;" horiz-adv-x="570" 
d="M538 -143l10 -50c-22 -11 -49 -16 -82 -16c-63 0 -90 28 -90 72c0 42 27 79 98 130c-46 10 -66 44 -68 87c-38 -59 -103 -90 -170 -90c-123 0 -181 63 -181 161c0 99 73 166 198 166c53 0 112 -14 150 -37v62c0 104 -47 137 -136 137c-57 0 -113 -20 -158 -53l-25 46
c55 38 119 58 189 58c124 0 193 -56 193 -182v-240c0 -40 11 -67 50 -67c15 0 27 2 39 6v-48c-88 -64 -118 -94 -118 -128c0 -18 10 -29 35 -29c22 0 43 4 66 15zM403 209v18c-45 27 -105 39 -151 39c-84 0 -132 -39 -132 -111c0 -76 43 -114 122 -114
c115 0 161 103 161 168z" />
    <glyph glyph-name="aringacute" unicode="&#x1fb;" horiz-adv-x="570" 
d="M555 47v-48c-18 -7 -36 -9 -50 -9c-68 0 -96 39 -99 90c-38 -59 -103 -90 -170 -90c-123 0 -181 63 -181 161c0 99 73 166 198 166c53 0 112 -14 150 -37v62c0 104 -47 137 -136 137c-57 0 -113 -20 -158 -53l-25 46c55 38 119 58 189 58c124 0 193 -56 193 -182v-240
c0 -40 11 -67 50 -67c15 0 27 2 39 6zM403 209v18c-45 27 -105 39 -151 39c-84 0 -132 -39 -132 -111c0 -76 43 -114 122 -114c115 0 161 103 161 168zM271 579c-55 0 -92 38 -92 87c0 51 39 89 94 89s92 -38 92 -87s-39 -89 -94 -89zM272 619c29 0 46 21 46 48
s-17 48 -46 48s-46 -21 -46 -48s17 -48 46 -48zM327 915h72l-98 -130h-62z" />
    <glyph glyph-name="ae" unicode="&#xe6;" horiz-adv-x="916" 
d="M809 119l35 -38c-50 -54 -118 -91 -206 -91c-98 0 -169 42 -209 126c-32 -70 -96 -126 -193 -126c-123 0 -181 63 -181 161c0 99 73 166 198 166c53 0 112 -14 150 -37v62c0 104 -47 137 -136 137c-57 0 -113 -19 -158 -52l-25 46c55 38 119 57 189 57
c84 0 152 -27 178 -96c50 71 117 96 188 96c146 0 227 -105 227 -259v-23h-400c7 -134 73 -207 176 -207c67 0 116 23 167 78zM403 209v18c-45 27 -105 39 -151 39c-84 0 -132 -39 -132 -111c0 -76 43 -114 122 -114c115 0 161 103 161 168zM467 299h334
c-7 107 -67 180 -165 180c-94 0 -157 -69 -169 -180z" />
    <glyph glyph-name="aeacute" unicode="&#x1fd;" horiz-adv-x="916" 
d="M809 119l35 -38c-50 -54 -118 -91 -206 -91c-98 0 -169 42 -209 126c-32 -70 -96 -126 -193 -126c-123 0 -181 63 -181 161c0 99 73 166 198 166c53 0 112 -14 150 -37v62c0 104 -47 137 -136 137c-57 0 -113 -19 -158 -52l-25 46c55 38 119 57 189 57
c84 0 152 -27 178 -96c50 71 117 96 188 96c146 0 227 -105 227 -259v-23h-400c7 -134 73 -207 176 -207c67 0 116 23 167 78zM403 209v18c-45 27 -105 39 -151 39c-84 0 -132 -39 -132 -111c0 -76 43 -114 122 -114c115 0 161 103 161 168zM467 299h334
c-7 107 -67 180 -165 180c-94 0 -157 -69 -169 -180zM523 750h72l-112 -150h-62z" />
    <glyph glyph-name="b" unicode="b" 
d="M164 0h-63v750h63v-314c36 57 93 94 167 94c138 0 224 -106 224 -267c0 -151 -83 -273 -228 -273c-68 0 -130 34 -163 90v-80zM164 263v-6c0 -167 91 -216 165 -216c98 0 161 87 161 220s-64 218 -161 218c-93 0 -165 -72 -165 -216z" />
    <glyph glyph-name="uni1E03" unicode="&#x1e03;" 
d="M164 0h-63v750h63v-314c36 57 93 94 167 94c138 0 224 -106 224 -267c0 -151 -83 -273 -228 -273c-68 0 -130 34 -163 90v-80zM164 263v-6c0 -167 91 -216 165 -216c98 0 161 87 161 220s-64 218 -161 218c-93 0 -165 -72 -165 -216zM335 621c-26 0 -47 19 -47 47
c0 26 21 46 47 46s46 -20 46 -46s-20 -47 -46 -47z" />
    <glyph glyph-name="c" unicode="c" horiz-adv-x="510" 
d="M437 118l40 -37c-47 -57 -111 -90 -191 -90c-150 0 -236 114 -236 267c0 142 82 271 241 271c72 0 123 -21 169 -62l-34 -49c-38 40 -79 60 -137 60c-106 0 -174 -88 -174 -218c0 -120 61 -218 173 -218c64 0 112 26 149 76z" />
    <glyph glyph-name="cacute" unicode="&#x107;" horiz-adv-x="510" 
d="M437 118l40 -37c-47 -57 -111 -90 -191 -90c-150 0 -236 114 -236 267c0 142 82 271 241 271c72 0 123 -21 169 -62l-34 -49c-38 40 -79 60 -137 60c-106 0 -174 -88 -174 -218c0 -120 61 -218 173 -218c64 0 112 26 149 76zM356 750h72l-112 -150h-62z" />
    <glyph glyph-name="ccircumflex" unicode="&#x109;" horiz-adv-x="510" 
d="M437 118l40 -37c-47 -57 -111 -90 -191 -90c-150 0 -236 114 -236 267c0 142 82 271 241 271c72 0 123 -21 169 -62l-34 -49c-38 40 -79 60 -137 60c-106 0 -174 -88 -174 -218c0 -120 61 -218 173 -218c64 0 112 26 149 76zM260 750h62l101 -150h-62l-71 106l-71 -106
h-60z" />
    <glyph glyph-name="ccaron" unicode="&#x10d;" horiz-adv-x="510" 
d="M437 118l40 -37c-47 -57 -111 -90 -191 -90c-150 0 -236 114 -236 267c0 142 82 271 241 271c72 0 123 -21 169 -62l-34 -49c-38 40 -79 60 -137 60c-106 0 -174 -88 -174 -218c0 -120 61 -218 173 -218c64 0 112 26 149 76zM322 600h-62l-101 150h62l71 -107l71 107h60z
" />
    <glyph glyph-name="cdotaccent" unicode="&#x10b;" horiz-adv-x="510" 
d="M437 118l40 -37c-47 -57 -111 -90 -191 -90c-150 0 -236 114 -236 267c0 142 82 271 241 271c72 0 123 -21 169 -62l-34 -49c-38 40 -79 60 -137 60c-106 0 -174 -88 -174 -218c0 -120 61 -218 173 -218c64 0 112 26 149 76zM292 621c-26 0 -47 19 -47 47
c0 26 21 46 47 46s46 -20 46 -46s-20 -47 -46 -47z" />
    <glyph glyph-name="ccedilla" unicode="&#xe7;" horiz-adv-x="510" 
d="M437 118l40 -37c-43 -52 -101 -84 -171 -89c34 -43 46 -74 46 -106c0 -48 -25 -95 -112 -95c-21 0 -43 4 -60 9l-7 50c27 -9 50 -13 70 -13c36 0 54 16 54 44c0 33 -12 62 -50 113c-126 18 -197 125 -197 264c0 142 82 271 241 271c72 0 123 -21 169 -62l-34 -49
c-38 40 -79 60 -137 60c-106 0 -174 -88 -174 -218c0 -120 61 -218 173 -218c64 0 112 26 149 76z" />
    <glyph glyph-name="d" unicode="d" 
d="M509 0h-63v84c-36 -57 -93 -94 -167 -94c-138 0 -224 106 -224 267c0 151 83 273 228 273c68 0 130 -34 163 -90v310h63v-750zM446 257v6c0 167 -91 216 -165 216c-98 0 -161 -87 -161 -220s64 -218 161 -218c93 0 165 72 165 216z" />
    <glyph glyph-name="dcaron" unicode="&#x10f;" 
d="M509 0h-63v84c-36 -57 -93 -94 -167 -94c-138 0 -224 106 -224 267c0 151 83 273 228 273c68 0 130 -34 163 -90v310h63v-750zM446 257v6c0 167 -91 216 -165 216c-98 0 -161 -87 -161 -220s64 -218 161 -218c93 0 165 72 165 216zM647 770l-31 -173h-48l10 173h69z" />
    <glyph glyph-name="uni1E0B" unicode="&#x1e0b;" 
d="M509 0h-63v84c-36 -57 -93 -94 -167 -94c-138 0 -224 106 -224 267c0 151 83 273 228 273c68 0 130 -34 163 -90v310h63v-750zM446 257v6c0 167 -91 216 -165 216c-98 0 -161 -87 -161 -220s64 -218 161 -218c93 0 165 72 165 216zM279 621c-26 0 -47 19 -47 47
c0 26 21 46 47 46s46 -20 46 -46s-20 -47 -46 -47z" />
    <glyph glyph-name="dcroat" unicode="&#x111;" 
d="M509 0h-63v84c-36 -57 -93 -94 -167 -94c-138 0 -224 106 -224 267c0 151 83 273 228 273c68 0 130 -34 163 -90v171h-144v50h144v89h63v-89h82v-50h-82v-611zM446 257v6c0 167 -91 216 -165 216c-98 0 -161 -87 -161 -220s64 -218 161 -218c93 0 165 72 165 216z" />
    <glyph glyph-name="eth" unicode="&#xf0;" horiz-adv-x="590" 
d="M447 706l-96 -45c126 -100 189 -232 189 -397c0 -136 -80 -274 -253 -274c-151 0 -237 107 -237 266c0 135 81 274 250 274c44 0 96 -14 138 -56c-29 57 -74 112 -141 162l-102 -48l-46 31l103 48c-34 21 -71 41 -113 61l57 27c41 -19 78 -40 112 -62l93 44zM292 41
c117 0 183 93 183 220c0 119 -58 218 -177 218c-117 0 -183 -93 -183 -219c0 -120 58 -219 177 -219z" />
    <glyph glyph-name="e" unicode="e" horiz-adv-x="565" 
d="M458 119l35 -38c-50 -54 -118 -91 -206 -91c-154 0 -237 109 -237 268c0 142 79 272 238 272c146 0 227 -105 227 -259v-23h-400c7 -134 73 -207 176 -207c67 0 116 23 167 78zM116 299h334c-7 107 -67 180 -165 180c-94 0 -157 -69 -169 -180z" />
    <glyph glyph-name="egrave" unicode="&#xe8;" horiz-adv-x="565" 
d="M458 119l35 -38c-50 -54 -118 -91 -206 -91c-154 0 -237 109 -237 268c0 142 79 272 238 272c146 0 227 -105 227 -259v-23h-400c7 -134 73 -207 176 -207c67 0 116 23 167 78zM116 299h334c-7 107 -67 180 -165 180c-94 0 -157 -69 -169 -180zM149 750h72l102 -150h-62z
" />
    <glyph glyph-name="eacute" unicode="&#xe9;" horiz-adv-x="565" 
d="M458 119l35 -38c-50 -54 -118 -91 -206 -91c-154 0 -237 109 -237 268c0 142 79 272 238 272c146 0 227 -105 227 -259v-23h-400c7 -134 73 -207 176 -207c67 0 116 23 167 78zM116 299h334c-7 107 -67 180 -165 180c-94 0 -157 -69 -169 -180zM358 750h72l-112 -150h-62
z" />
    <glyph glyph-name="ecircumflex" unicode="&#xea;" horiz-adv-x="565" 
d="M458 119l35 -38c-50 -54 -118 -91 -206 -91c-154 0 -237 109 -237 268c0 142 79 272 238 272c146 0 227 -105 227 -259v-23h-400c7 -134 73 -207 176 -207c67 0 116 23 167 78zM116 299h334c-7 107 -67 180 -165 180c-94 0 -157 -69 -169 -180zM254 750h62l101 -150h-62
l-71 106l-71 -106h-60z" />
    <glyph glyph-name="ecaron" unicode="&#x11b;" horiz-adv-x="565" 
d="M458 119l35 -38c-50 -54 -118 -91 -206 -91c-154 0 -237 109 -237 268c0 142 79 272 238 272c146 0 227 -105 227 -259v-23h-400c7 -134 73 -207 176 -207c67 0 116 23 167 78zM116 299h334c-7 107 -67 180 -165 180c-94 0 -157 -69 -169 -180zM316 600h-62l-101 150h62
l71 -107l71 107h60z" />
    <glyph glyph-name="edieresis" unicode="&#xeb;" horiz-adv-x="565" 
d="M458 119l35 -38c-50 -54 -118 -91 -206 -91c-154 0 -237 109 -237 268c0 142 79 272 238 272c146 0 227 -105 227 -259v-23h-400c7 -134 73 -207 176 -207c67 0 116 23 167 78zM116 299h334c-7 107 -67 180 -165 180c-94 0 -157 -69 -169 -180zM202 621
c-26 0 -47 19 -47 47c0 26 21 46 47 46s46 -20 46 -46s-20 -47 -46 -47zM369 621c-26 0 -47 19 -47 47c0 26 21 46 47 46s46 -20 46 -46s-20 -47 -46 -47z" />
    <glyph glyph-name="emacron" unicode="&#x113;" horiz-adv-x="565" 
d="M458 119l35 -38c-50 -54 -118 -91 -206 -91c-154 0 -237 109 -237 268c0 142 79 272 238 272c146 0 227 -105 227 -259v-23h-400c7 -134 73 -207 176 -207c67 0 116 23 167 78zM116 299h334c-7 107 -67 180 -165 180c-94 0 -157 -69 -169 -180zM159 634v48h252v-48h-252z
" />
    <glyph glyph-name="ebreve" unicode="&#x115;" horiz-adv-x="565" 
d="M458 119l35 -38c-50 -54 -118 -91 -206 -91c-154 0 -237 109 -237 268c0 142 79 272 238 272c146 0 227 -105 227 -259v-23h-400c7 -134 73 -207 176 -207c67 0 116 23 167 78zM116 299h334c-7 107 -67 180 -165 180c-94 0 -157 -69 -169 -180zM357 731h50
c-3 -83 -60 -121 -122 -121s-119 31 -122 121h50c5 -50 28 -72 73 -72c46 0 66 23 71 72z" />
    <glyph glyph-name="edotaccent" unicode="&#x117;" horiz-adv-x="565" 
d="M458 119l35 -38c-50 -54 -118 -91 -206 -91c-154 0 -237 109 -237 268c0 142 79 272 238 272c146 0 227 -105 227 -259v-23h-400c7 -134 73 -207 176 -207c67 0 116 23 167 78zM116 299h334c-7 107 -67 180 -165 180c-94 0 -157 -69 -169 -180zM286 621
c-26 0 -47 19 -47 47c0 26 21 46 47 46s46 -20 46 -46s-20 -47 -46 -47z" />
    <glyph glyph-name="eogonek" unicode="&#x119;" horiz-adv-x="565" 
d="M481 -143l10 -50c-22 -11 -49 -16 -82 -16c-63 0 -89 32 -89 83c0 36 13 79 53 129c-27 -8 -55 -13 -86 -13c-154 0 -237 109 -237 268c0 142 79 272 238 272c146 0 227 -105 227 -259v-23h-400c7 -134 73 -207 176 -207c67 0 116 23 167 78l35 -38
c-78 -87 -112 -152 -112 -199c0 -25 9 -40 34 -40c22 0 43 4 66 15zM116 299h334c-7 107 -67 180 -165 180c-94 0 -157 -69 -169 -180z" />
    <glyph glyph-name="uni0259" unicode="&#x259;" horiz-adv-x="565" 
d="M50 272h400c-7 134 -73 207 -176 207c-67 0 -116 -23 -167 -78l-35 38c50 54 118 91 206 91c154 0 237 -109 237 -268c0 -142 -79 -272 -238 -272c-146 0 -227 105 -227 259v23zM449 221h-334c7 -107 67 -180 165 -180c94 0 157 69 169 180z" />
    <glyph glyph-name="f" unicode="f" horiz-adv-x="330" 
d="M182 0h-63v470h-104v50h104v68c0 116 52 171 161 171c30 0 56 -3 80 -8v-54c-27 7 -53 10 -83 10c-68 0 -95 -30 -95 -124v-63h158l-20 -50h-138v-470z" />
    <glyph glyph-name="uni1E1F" unicode="&#x1e1f;" horiz-adv-x="330" 
d="M182 0h-63v470h-104v50h104v68c0 116 52 171 161 171c30 0 56 -3 80 -8v-54c-27 7 -53 10 -83 10c-68 0 -95 -30 -95 -124v-63h158l-20 -50h-138v-470zM263 823c-27 0 -49 20 -49 47c0 26 22 46 49 46s48 -20 48 -46s-21 -47 -48 -47z" />
    <glyph glyph-name="g" unicode="g" 
d="M446 19v65c-36 -57 -93 -94 -167 -94c-138 0 -224 106 -224 267c0 151 83 273 228 273c68 0 130 -34 163 -90v80h63v-507c0 -142 -83 -222 -217 -222c-78 0 -136 17 -201 63l33 50c65 -47 110 -62 173 -62c76 0 149 39 149 177zM446 257v6c0 167 -91 216 -165 216
c-98 0 -161 -87 -161 -220s64 -218 161 -218c93 0 165 72 165 216z" />
    <glyph glyph-name="gcircumflex" unicode="&#x11d;" 
d="M446 19v65c-36 -57 -93 -94 -167 -94c-138 0 -224 106 -224 267c0 151 83 273 228 273c68 0 130 -34 163 -90v80h63v-507c0 -142 -83 -222 -217 -222c-78 0 -136 17 -201 63l33 50c65 -47 110 -62 173 -62c76 0 149 39 149 177zM446 257v6c0 167 -91 216 -165 216
c-98 0 -161 -87 -161 -220s64 -218 161 -218c93 0 165 72 165 216zM249 750h62l101 -150h-62l-71 106l-71 -106h-60z" />
    <glyph glyph-name="gbreve" unicode="&#x11f;" 
d="M446 19v65c-36 -57 -93 -94 -167 -94c-138 0 -224 106 -224 267c0 151 83 273 228 273c68 0 130 -34 163 -90v80h63v-507c0 -142 -83 -222 -217 -222c-78 0 -136 17 -201 63l33 50c65 -47 110 -62 173 -62c76 0 149 39 149 177zM446 257v6c0 167 -91 216 -165 216
c-98 0 -161 -87 -161 -220s64 -218 161 -218c93 0 165 72 165 216zM352 731h50c-3 -83 -60 -121 -122 -121s-119 31 -122 121h50c5 -50 28 -72 73 -72c46 0 66 23 71 72z" />
    <glyph glyph-name="gdotaccent" unicode="&#x121;" 
d="M446 19v65c-36 -57 -93 -94 -167 -94c-138 0 -224 106 -224 267c0 151 83 273 228 273c68 0 130 -34 163 -90v80h63v-507c0 -142 -83 -222 -217 -222c-78 0 -136 17 -201 63l33 50c65 -47 110 -62 173 -62c76 0 149 39 149 177zM446 257v6c0 167 -91 216 -165 216
c-98 0 -161 -87 -161 -220s64 -218 161 -218c93 0 165 72 165 216zM281 621c-26 0 -47 19 -47 47c0 26 21 46 47 46s46 -20 46 -46s-20 -47 -46 -47z" />
    <glyph glyph-name="gcommaaccent" unicode="&#x123;" 
d="M446 19v65c-36 -57 -93 -94 -167 -94c-138 0 -224 106 -224 267c0 151 83 273 228 273c68 0 130 -34 163 -90v80h63v-507c0 -142 -83 -222 -217 -222c-78 0 -136 17 -201 63l33 50c65 -47 110 -62 173 -62c76 0 149 39 149 177zM446 257v6c0 167 -91 216 -165 216
c-98 0 -161 -87 -161 -220s64 -218 161 -218c93 0 165 72 165 216zM358 750v-39c-39 3 -63 -6 -70 -28c26 -1 37 -21 37 -40c0 -24 -16 -43 -44 -43c-25 0 -48 18 -48 57c0 46 37 98 125 93z" />
    <glyph glyph-name="gcaron" unicode="&#x1e7;" 
d="M446 19v65c-36 -57 -93 -94 -167 -94c-138 0 -224 106 -224 267c0 151 83 273 228 273c68 0 130 -34 163 -90v80h63v-507c0 -142 -83 -222 -217 -222c-78 0 -136 17 -201 63l33 50c65 -47 110 -62 173 -62c76 0 149 39 149 177zM446 257v6c0 167 -91 216 -165 216
c-98 0 -161 -87 -161 -220s64 -218 161 -218c93 0 165 72 165 216zM311 600h-62l-101 150h62l71 -107l71 107h60z" />
    <glyph glyph-name="h" unicode="h" 
d="M514 0h-63v310c0 111 -47 169 -126 169c-89 0 -161 -72 -161 -216v-263h-63v750h63v-315c34 59 94 95 165 95c116 0 185 -77 185 -207v-323z" />
    <glyph glyph-name="hcircumflex" unicode="&#x125;" 
d="M514 0h-63v310c0 111 -47 169 -126 169c-89 0 -161 -72 -161 -216v-263h-63v750h63v-315c34 59 94 95 165 95c116 0 185 -77 185 -207v-323zM100 919h66l104 -110h-71l-67 70l-67 -70h-69z" />
    <glyph glyph-name="hbar" unicode="&#x127;" 
d="M514 0h-63v310c0 111 -47 169 -126 169c-89 0 -161 -72 -161 -216v-263h-63v611h-82v50h82v89h63v-89h144v-50h-144v-176c34 59 94 95 165 95c116 0 185 -77 185 -207v-323z" />
    <glyph glyph-name="i" unicode="i" horiz-adv-x="265" 
d="M133 620c-27 0 -48 21 -48 48s21 48 48 48s48 -21 48 -48s-21 -48 -48 -48zM164 0h-63v520h63v-520z" />
    <glyph glyph-name="dotlessi" unicode="&#x131;" horiz-adv-x="265" 
d="M164 0h-63v520h63v-520z" />
    <glyph glyph-name="igrave" unicode="&#xec;" horiz-adv-x="265" 
d="M164 0h-63v520h63v-520zM-12 750h72l102 -150h-62z" />
    <glyph glyph-name="iacute" unicode="&#xed;" horiz-adv-x="265" 
d="M164 0h-63v520h63v-520zM207 750h72l-112 -150h-62z" />
    <glyph glyph-name="icircumflex" unicode="&#xee;" horiz-adv-x="265" 
d="M164 0h-63v520h63v-520zM101 750h62l76 -150h-57l-51 110l-51 -110h-55z" />
    <glyph glyph-name="itilde" unicode="&#x129;" horiz-adv-x="265" 
d="M164 0h-63v520h63v-520zM38 605l-45 16c23 84 49 109 90 109c62 0 72 -77 104 -77c13 0 24 14 40 75l45 -16c-23 -84 -49 -109 -90 -109c-62 0 -72 77 -104 77c-13 0 -24 -14 -40 -75z" />
    <glyph glyph-name="idieresis" unicode="&#xef;" horiz-adv-x="265" 
d="M164 0h-63v520h63v-520zM54 621c-26 0 -47 19 -47 47c0 26 21 46 47 46s46 -20 46 -46s-20 -47 -46 -47zM211 621c-26 0 -47 19 -47 47c0 26 21 46 47 46s46 -20 46 -46s-20 -47 -46 -47z" />
    <glyph glyph-name="imacron" unicode="&#x12b;" horiz-adv-x="265" 
d="M164 0h-63v520h63v-520zM31 634v48h202v-48h-202z" />
    <glyph glyph-name="ibreve" unicode="&#x12d;" horiz-adv-x="265" 
d="M164 0h-63v520h63v-520zM183 731h46c-1 -81 -43 -121 -98 -121c-53 0 -95 32 -96 121h46c3 -51 18 -72 52 -72c35 0 47 22 50 72z" />
    <glyph glyph-name="iogonek" unicode="&#x12f;" horiz-adv-x="265" 
d="M163 -143l10 -50c-20 -10 -45 -16 -75 -16c-54 0 -80 26 -80 71c0 30 13 63 83 138v520h63v-520c-70 -74 -85 -105 -85 -130c0 -18 7 -28 27 -28c16 0 36 5 57 15zM133 620c-27 0 -48 21 -48 48s21 48 48 48s48 -21 48 -48s-21 -48 -48 -48z" />
    <glyph glyph-name="ij" unicode="&#x133;" horiz-adv-x="520" 
d="M133 620c-27 0 -48 21 -48 48s21 48 48 48s48 -21 48 -48s-21 -48 -48 -48zM164 0h-63v520h63v-520zM388 620c-27 0 -48 21 -48 48s21 48 48 48s48 -21 48 -48s-21 -48 -48 -48zM236 -200l-7 54c16 -6 37 -11 56 -11c52 0 71 30 71 134v543h63v-550
c0 -120 -42 -179 -126 -179c-23 0 -40 3 -57 9z" />
    <glyph glyph-name="j" unicode="j" horiz-adv-x="265" 
d="M133 620c-27 0 -48 21 -48 48s21 48 48 48s48 -21 48 -48s-21 -48 -48 -48zM-19 -200l-7 54c16 -6 37 -11 56 -11c52 0 71 30 71 134v543h63v-550c0 -120 -42 -179 -126 -179c-23 0 -40 3 -57 9z" />
    <glyph glyph-name="dotlessj" unicode="&#x237;" horiz-adv-x="265" 
d="M-19 -200l-7 54c16 -6 37 -11 56 -11c52 0 71 30 71 134v543h63v-550c0 -120 -42 -179 -126 -179c-23 0 -40 3 -57 9z" />
    <glyph glyph-name="jcircumflex" unicode="&#x135;" horiz-adv-x="265" 
d="M-19 -200l-7 54c16 -6 37 -11 56 -11c52 0 71 30 71 134v543h63v-550c0 -120 -42 -179 -126 -179c-23 0 -40 3 -57 9zM102 750h62l76 -150h-57l-51 110l-51 -110h-55z" />
    <glyph glyph-name="k" unicode="k" horiz-adv-x="541" 
d="M436 0l-190 292l-82 -78v-214h-63v750h63v-466l251 236h79l-201 -187l218 -333h-75z" />
    <glyph glyph-name="kcommaaccent" unicode="&#x137;" horiz-adv-x="541" 
d="M436 0l-190 292l-82 -78v-214h-63v750h63v-466l251 236h79l-201 -187l218 -333h-75zM215 -207v39c38 -3 63 6 70 28c-26 1 -37 21 -37 40c0 24 16 43 44 43c25 0 48 -18 48 -57c0 -46 -37 -98 -125 -93z" />
    <glyph glyph-name="kgreenlandic" unicode="&#x138;" horiz-adv-x="541" 
d="M436 0l-189 280l-83 -80v-200h-63v520h63v-248l252 248h78l-202 -198l219 -322h-75z" />
    <glyph glyph-name="l" unicode="l" horiz-adv-x="265" 
d="M164 0h-63v750h63v-750z" />
    <glyph glyph-name="lacute" unicode="&#x13a;" horiz-adv-x="265" 
d="M164 0h-63v750h63v-750zM172 809h-76l108 110h86z" />
    <glyph glyph-name="lcaron" unicode="&#x13e;" horiz-adv-x="265" 
d="M164 0h-63v750h63v-750zM302 770l-31 -173h-48l10 173h69z" />
    <glyph glyph-name="lcommaaccent" unicode="&#x13c;" horiz-adv-x="265" 
d="M164 0h-63v750h63v-750zM51 -207v39c38 -3 63 6 70 28c-26 1 -37 21 -37 40c0 24 16 43 44 43c25 0 48 -18 48 -57c0 -46 -37 -98 -125 -93z" />
    <glyph glyph-name="ldot" unicode="&#x140;" horiz-adv-x="313" 
d="M164 0h-63v750h63v-750zM284 318c-30 0 -53 22 -53 53s23 53 53 53s53 -22 53 -53s-23 -53 -53 -53z" />
    <glyph glyph-name="lslash" unicode="&#x142;" horiz-adv-x="277" 
d="M107 750h63v-327l92 37v-53l-92 -37v-370h-63v345l-92 -36v53l92 36v352z" />
    <glyph glyph-name="m" unicode="m" horiz-adv-x="948" 
d="M852 0h-63v310c0 111 -46 169 -123 169c-88 0 -158 -72 -158 -216v-263h-63v310c0 111 -46 169 -123 169c-88 0 -158 -72 -158 -216v-263h-63v520h63v-85c33 59 92 95 162 95c84 0 140 -41 167 -112c32 59 92 112 177 112c114 0 182 -77 182 -207v-323z" />
    <glyph glyph-name="uni1E41" unicode="&#x1e41;" horiz-adv-x="948" 
d="M852 0h-63v310c0 111 -46 169 -123 169c-88 0 -158 -72 -158 -216v-263h-63v310c0 111 -46 169 -123 169c-88 0 -158 -72 -158 -216v-263h-63v520h63v-85c33 59 92 95 162 95c84 0 140 -41 167 -112c32 59 92 112 177 112c114 0 182 -77 182 -207v-323zM478 621
c-26 0 -47 19 -47 47c0 26 21 46 47 46s46 -20 46 -46s-20 -47 -46 -47z" />
    <glyph glyph-name="n" unicode="n" 
d="M514 0h-63v310c0 111 -47 169 -126 169c-89 0 -161 -72 -161 -216v-263h-63v520h63v-85c34 59 94 95 165 95c116 0 185 -77 185 -207v-323z" />
    <glyph glyph-name="nacute" unicode="&#x144;" 
d="M514 0h-63v310c0 111 -47 169 -126 169c-89 0 -161 -72 -161 -216v-263h-63v520h63v-85c34 59 94 95 165 95c116 0 185 -77 185 -207v-323zM377 750h72l-112 -150h-62z" />
    <glyph glyph-name="ncaron" unicode="&#x148;" 
d="M514 0h-63v310c0 111 -47 169 -126 169c-89 0 -161 -72 -161 -216v-263h-63v520h63v-85c34 59 94 95 165 95c116 0 185 -77 185 -207v-323zM345 600h-62l-101 150h62l71 -107l71 107h60z" />
    <glyph glyph-name="ntilde" unicode="&#xf1;" 
d="M514 0h-63v310c0 111 -47 169 -126 169c-89 0 -161 -72 -161 -216v-263h-63v520h63v-85c34 59 94 95 165 95c116 0 185 -77 185 -207v-323zM186 605l-48 16c25 84 56 109 100 109c63 0 102 -77 134 -77c17 0 29 15 47 75l48 -16c-25 -84 -56 -109 -100 -109
c-63 0 -102 77 -134 77c-17 0 -29 -15 -47 -75z" />
    <glyph glyph-name="ncommaaccent" unicode="&#x146;" 
d="M514 0h-63v310c0 111 -47 169 -126 169c-89 0 -161 -72 -161 -216v-263h-63v520h63v-85c34 59 94 95 165 95c116 0 185 -77 185 -207v-323zM231 -207v39c38 -3 63 6 70 28c-26 1 -37 21 -37 40c0 24 16 43 44 43c25 0 48 -18 48 -57c0 -46 -37 -98 -125 -93z" />
    <glyph glyph-name="eng" unicode="&#x14b;" 
d="M164 0h-63v520h63v-85c34 59 94 95 165 95c116 0 185 -77 185 -207v-353c0 -120 -42 -179 -126 -179c-23 0 -40 3 -57 9l-7 54c16 -6 37 -11 56 -11c52 0 71 30 71 134v333c0 111 -47 169 -126 169c-89 0 -161 -72 -161 -216v-263z" />
    <glyph glyph-name="o" unicode="o" horiz-adv-x="590" 
d="M293 -10c-155 0 -243 112 -243 268c0 138 77 272 247 272c155 0 243 -112 243 -267c0 -139 -77 -273 -247 -273zM295 41c116 0 180 93 180 220c0 119 -60 218 -180 218c-116 0 -180 -93 -180 -219c0 -120 60 -219 180 -219z" />
    <glyph glyph-name="ograve" unicode="&#xf2;" horiz-adv-x="590" 
d="M293 -10c-155 0 -243 112 -243 268c0 138 77 272 247 272c155 0 243 -112 243 -267c0 -139 -77 -273 -247 -273zM295 41c116 0 180 93 180 220c0 119 -60 218 -180 218c-116 0 -180 -93 -180 -219c0 -120 60 -219 180 -219zM156 750h72l102 -150h-62z" />
    <glyph glyph-name="oacute" unicode="&#xf3;" horiz-adv-x="590" 
d="M293 -10c-155 0 -243 112 -243 268c0 138 77 272 247 272c155 0 243 -112 243 -267c0 -139 -77 -273 -247 -273zM295 41c116 0 180 93 180 220c0 119 -60 218 -180 218c-116 0 -180 -93 -180 -219c0 -120 60 -219 180 -219zM362 750h72l-112 -150h-62z" />
    <glyph glyph-name="ocircumflex" unicode="&#xf4;" horiz-adv-x="590" 
d="M293 -10c-155 0 -243 112 -243 268c0 138 77 272 247 272c155 0 243 -112 243 -267c0 -139 -77 -273 -247 -273zM295 41c116 0 180 93 180 220c0 119 -60 218 -180 218c-116 0 -180 -93 -180 -219c0 -120 60 -219 180 -219zM264 750h62l101 -150h-62l-71 106l-71 -106
h-60z" />
    <glyph glyph-name="otilde" unicode="&#xf5;" horiz-adv-x="590" 
d="M293 -10c-155 0 -243 112 -243 268c0 138 77 272 247 272c155 0 243 -112 243 -267c0 -139 -77 -273 -247 -273zM295 41c116 0 180 93 180 220c0 119 -60 218 -180 218c-116 0 -180 -93 -180 -219c0 -120 60 -219 180 -219zM179 605l-48 16c25 84 56 109 100 109
c63 0 102 -77 134 -77c17 0 29 15 47 75l48 -16c-25 -84 -56 -109 -100 -109c-63 0 -102 77 -134 77c-17 0 -29 -15 -47 -75z" />
    <glyph glyph-name="odieresis" unicode="&#xf6;" horiz-adv-x="590" 
d="M293 -10c-155 0 -243 112 -243 268c0 138 77 272 247 272c155 0 243 -112 243 -267c0 -139 -77 -273 -247 -273zM295 41c116 0 180 93 180 220c0 119 -60 218 -180 218c-116 0 -180 -93 -180 -219c0 -120 60 -219 180 -219zM212 621c-26 0 -47 19 -47 47
c0 26 21 46 47 46s46 -20 46 -46s-20 -47 -46 -47zM379 621c-26 0 -47 19 -47 47c0 26 21 46 47 46s46 -20 46 -46s-20 -47 -46 -47z" />
    <glyph glyph-name="omacron" unicode="&#x14d;" horiz-adv-x="590" 
d="M293 -10c-155 0 -243 112 -243 268c0 138 77 272 247 272c155 0 243 -112 243 -267c0 -139 -77 -273 -247 -273zM295 41c116 0 180 93 180 220c0 119 -60 218 -180 218c-116 0 -180 -93 -180 -219c0 -120 60 -219 180 -219zM169 634v48h252v-48h-252z" />
    <glyph glyph-name="obreve" unicode="&#x14f;" horiz-adv-x="590" 
d="M293 -10c-155 0 -243 112 -243 268c0 138 77 272 247 272c155 0 243 -112 243 -267c0 -139 -77 -273 -247 -273zM295 41c116 0 180 93 180 220c0 119 -60 218 -180 218c-116 0 -180 -93 -180 -219c0 -120 60 -219 180 -219zM367 731h50c-3 -83 -60 -121 -122 -121
s-119 31 -122 121h50c5 -50 28 -72 73 -72c46 0 66 23 71 72z" />
    <glyph glyph-name="ohungarumlaut" unicode="&#x151;" horiz-adv-x="590" 
d="M293 -10c-155 0 -243 112 -243 268c0 138 77 272 247 272c155 0 243 -112 243 -267c0 -139 -77 -273 -247 -273zM295 41c116 0 180 93 180 220c0 119 -60 218 -180 218c-116 0 -180 -93 -180 -219c0 -120 60 -219 180 -219zM275 740h71l-93 -150h-61zM448 740h72
l-112 -150h-62z" />
    <glyph glyph-name="oslash" unicode="&#xf8;" horiz-adv-x="590" 
d="M58 -53l68 105c-49 48 -76 120 -76 206c0 138 77 272 247 272c47 0 88 -11 122 -30l48 73h65l-69 -105c50 -48 77 -120 77 -205c0 -139 -77 -273 -247 -273c-48 0 -89 10 -123 29l-47 -72h-65zM115 260c0 -61 15 -116 46 -156l228 349c-26 17 -57 26 -94 26
c-116 0 -180 -93 -180 -219zM295 41c116 0 180 93 180 220c0 60 -16 115 -46 154l-228 -349c26 -16 57 -25 94 -25z" />
    <glyph glyph-name="oslashacute" unicode="&#x1ff;" horiz-adv-x="590" 
d="M58 -53l68 105c-49 48 -76 120 -76 206c0 138 77 272 247 272c47 0 88 -11 122 -30l48 73h65l-69 -105c50 -48 77 -120 77 -205c0 -139 -77 -273 -247 -273c-48 0 -89 10 -123 29l-47 -72h-65zM115 260c0 -61 15 -116 46 -156l228 349c-26 17 -57 26 -94 26
c-116 0 -180 -93 -180 -219zM295 41c116 0 180 93 180 220c0 60 -16 115 -46 154l-228 -349c26 -16 57 -25 94 -25zM367 750h72l-112 -150h-62z" />
    <glyph glyph-name="oe" unicode="&#x153;" horiz-adv-x="989" 
d="M882 119l35 -38c-50 -54 -118 -91 -206 -91c-107 0 -171 51 -207 121c-48 -88 -128 -121 -211 -121c-155 0 -243 112 -243 268c0 138 77 272 247 272c111 0 176 -56 211 -122c32 62 97 122 204 122c146 0 227 -105 227 -259v-23h-400c7 -134 73 -207 176 -207
c67 0 116 23 167 78zM295 41c116 0 180 93 180 220c0 119 -60 218 -180 218c-116 0 -180 -93 -180 -219c0 -120 60 -219 180 -219zM709 479c-94 0 -157 -69 -169 -180h334c-7 107 -67 180 -165 180z" />
    <glyph glyph-name="p" unicode="p" 
d="M164 -200h-63v720h63v-84c36 57 93 94 167 94c138 0 224 -106 224 -267c0 -151 -83 -273 -228 -273c-68 0 -130 34 -163 90v-280zM164 263v-6c0 -167 91 -216 165 -216c98 0 161 87 161 220s-64 218 -161 218c-93 0 -165 -72 -165 -216z" />
    <glyph glyph-name="uni1E57" unicode="&#x1e57;" 
d="M164 -200h-63v720h63v-84c36 57 93 94 167 94c138 0 224 -106 224 -267c0 -151 -83 -273 -228 -273c-68 0 -130 34 -163 90v-280zM164 263v-6c0 -167 91 -216 165 -216c98 0 161 87 161 220s-64 218 -161 218c-93 0 -165 -72 -165 -216zM338 621c-26 0 -47 19 -47 47
c0 26 21 46 47 46s46 -20 46 -46s-20 -47 -46 -47z" />
    <glyph glyph-name="thorn" unicode="&#xfe;" 
d="M164 -200h-63v950h63v-314c36 57 93 94 167 94c138 0 224 -106 224 -267c0 -151 -83 -273 -228 -273c-68 0 -130 34 -163 90v-280zM164 263v-6c0 -167 91 -216 165 -216c98 0 161 87 161 220s-64 218 -161 218c-93 0 -165 -72 -165 -216z" />
    <glyph glyph-name="q" unicode="q" 
d="M509 -200h-63v284c-36 -57 -93 -94 -167 -94c-138 0 -224 106 -224 267c0 151 83 273 228 273c68 0 130 -34 163 -90v80h63v-720zM446 257v6c0 167 -91 216 -165 216c-98 0 -161 -87 -161 -220s64 -218 161 -218c93 0 165 72 165 216z" />
    <glyph glyph-name="r" unicode="r" horiz-adv-x="380" 
d="M164 0h-63v520h63v-87c30 56 81 97 148 97c18 0 37 -1 52 -4v-59c-20 6 -39 8 -56 8c-65 0 -144 -63 -144 -212v-263z" />
    <glyph glyph-name="racute" unicode="&#x155;" horiz-adv-x="380" 
d="M164 0h-63v520h63v-87c30 56 81 97 148 97c18 0 37 -1 52 -4v-59c-20 6 -39 8 -56 8c-65 0 -144 -63 -144 -212v-263zM297 750h72l-112 -150h-62z" />
    <glyph glyph-name="rcaron" unicode="&#x159;" horiz-adv-x="380" 
d="M164 0h-63v520h63v-87c30 56 81 97 148 97c18 0 37 -1 52 -4v-59c-20 6 -39 8 -56 8c-65 0 -144 -63 -144 -212v-263zM269 600h-62l-101 150h62l71 -107l71 107h60z" />
    <glyph glyph-name="rcommaaccent" unicode="&#x157;" horiz-adv-x="380" 
d="M164 0h-63v520h63v-87c30 56 81 97 148 97c18 0 37 -1 52 -4v-59c-20 6 -39 8 -56 8c-65 0 -144 -63 -144 -212v-263zM51 -207v39c38 -3 63 6 70 28c-26 1 -37 21 -37 40c0 24 16 43 44 43c25 0 48 -18 48 -57c0 -46 -37 -98 -125 -93z" />
    <glyph glyph-name="s" unicode="s" horiz-adv-x="483" 
d="M50 54l33 55c45 -42 101 -68 168 -68c81 0 118 40 118 89c0 136 -300 79 -300 260c0 72 60 140 182 140c63 0 118 -14 168 -45l-28 -54c-45 34 -92 48 -143 48c-81 0 -115 -38 -115 -83c0 -134 300 -74 300 -260c0 -76 -62 -146 -185 -146c-71 0 -140 20 -198 64z" />
    <glyph glyph-name="sacute" unicode="&#x15b;" horiz-adv-x="483" 
d="M50 54l33 55c45 -42 101 -68 168 -68c81 0 118 40 118 89c0 136 -300 79 -300 260c0 72 60 140 182 140c63 0 118 -14 168 -45l-28 -54c-45 34 -92 48 -143 48c-81 0 -115 -38 -115 -83c0 -134 300 -74 300 -260c0 -76 -62 -146 -185 -146c-71 0 -140 20 -198 64z
M318 750h72l-112 -150h-62z" />
    <glyph glyph-name="scircumflex" unicode="&#x15d;" horiz-adv-x="483" 
d="M50 54l33 55c45 -42 101 -68 168 -68c81 0 118 40 118 89c0 136 -300 79 -300 260c0 72 60 140 182 140c63 0 118 -14 168 -45l-28 -54c-45 34 -92 48 -143 48c-81 0 -115 -38 -115 -83c0 -134 300 -74 300 -260c0 -76 -62 -146 -185 -146c-71 0 -140 20 -198 64z
M221 750h62l101 -150h-62l-71 106l-71 -106h-60z" />
    <glyph glyph-name="scaron" unicode="&#x161;" horiz-adv-x="483" 
d="M50 54l33 55c45 -42 101 -68 168 -68c81 0 118 40 118 89c0 136 -300 79 -300 260c0 72 60 140 182 140c63 0 118 -14 168 -45l-28 -54c-45 34 -92 48 -143 48c-81 0 -115 -38 -115 -83c0 -134 300 -74 300 -260c0 -76 -62 -146 -185 -146c-71 0 -140 20 -198 64z
M283 600h-62l-101 150h62l71 -107l71 107h60z" />
    <glyph glyph-name="scedilla" unicode="&#x15f;" horiz-adv-x="483" 
d="M50 54l33 55c45 -42 101 -68 168 -68c81 0 118 40 118 89c0 136 -300 79 -300 260c0 72 60 140 182 140c63 0 118 -14 168 -45l-28 -54c-45 34 -92 48 -143 48c-81 0 -115 -38 -115 -83c0 -134 300 -74 300 -260c0 -70 -53 -136 -158 -145c34 -42 46 -73 46 -105
c0 -48 -25 -95 -112 -95c-21 0 -43 4 -60 9l-7 50c27 -9 50 -13 70 -13c36 0 54 16 54 44c0 33 -12 61 -48 111c-61 5 -118 24 -168 62z" />
    <glyph glyph-name="scommaaccent" unicode="&#x219;" horiz-adv-x="483" 
d="M50 54l33 55c45 -42 101 -68 168 -68c81 0 118 40 118 89c0 136 -300 79 -300 260c0 72 60 140 182 140c63 0 118 -14 168 -45l-28 -54c-45 34 -92 48 -143 48c-81 0 -115 -38 -115 -83c0 -134 300 -74 300 -260c0 -76 -62 -146 -185 -146c-71 0 -140 20 -198 64z
M172 -207v39c38 -3 63 6 70 28c-26 1 -37 21 -37 40c0 24 16 43 44 43c25 0 48 -18 48 -57c0 -46 -37 -98 -125 -93z" />
    <glyph glyph-name="uni1E61" unicode="&#x1e61;" horiz-adv-x="483" 
d="M50 54l33 55c45 -42 101 -68 168 -68c81 0 118 40 118 89c0 136 -300 79 -300 260c0 72 60 140 182 140c63 0 118 -14 168 -45l-28 -54c-45 34 -92 48 -143 48c-81 0 -115 -38 -115 -83c0 -134 300 -74 300 -260c0 -76 -62 -146 -185 -146c-71 0 -140 20 -198 64z
M253 621c-26 0 -47 19 -47 47c0 26 21 46 47 46s46 -20 46 -46s-20 -47 -46 -47z" />
    <glyph glyph-name="germandbls" unicode="&#xdf;" horiz-adv-x="590" 
d="M164 0h-63v507c0 152 78 252 230 252c121 0 190 -68 190 -155c0 -147 -167 -138 -167 -230c0 -99 201 -96 201 -238c0 -76 -55 -146 -172 -146c-39 0 -77 4 -121 18v59c46 -20 79 -26 123 -26c70 0 106 37 106 90c0 104 -200 101 -200 238c0 124 167 115 167 230
c0 60 -46 108 -132 108c-107 0 -162 -64 -162 -204v-503z" />
    <glyph glyph-name="t" unicode="t" horiz-adv-x="352" 
d="M327 54v-54c-26 -7 -56 -10 -81 -10c-100 0 -130 47 -130 148v332h-101v50h101v145l63 17v-162h158l-20 -50h-138v-314c0 -85 16 -111 77 -111c26 0 52 4 71 9z" />
    <glyph glyph-name="tcaron" unicode="&#x165;" horiz-adv-x="352" 
d="M327 54v-54c-26 -7 -56 -10 -81 -10c-100 0 -130 47 -130 148v332h-101v50h101v145l63 17v-162h158l-20 -50h-138v-314c0 -85 16 -111 77 -111c26 0 52 4 71 9zM324 770l-31 -173h-48l10 173h69z" />
    <glyph glyph-name="uni1E6B" unicode="&#x1e6b;" horiz-adv-x="352" 
d="M327 54v-54c-26 -7 -56 -10 -81 -10c-100 0 -130 47 -130 148v332h-101v50h101v145l63 17v-162h158l-20 -50h-138v-314c0 -85 16 -111 77 -111c26 0 52 4 71 9zM147 731c-26 0 -47 19 -47 47c0 26 21 46 47 46s46 -20 46 -46s-20 -47 -46 -47z" />
    <glyph glyph-name="tbar" unicode="&#x167;" horiz-adv-x="352" 
d="M327 54v-54c-26 -7 -56 -10 -81 -10c-100 0 -130 47 -130 148v101h-97v50h97v181h-101v50h101v145l63 17v-162h158l-20 -50h-138v-181h137v-50h-137v-83c0 -85 16 -111 77 -111c26 0 52 4 71 9z" />
    <glyph glyph-name="tcommaaccent" unicode="&#x21b;" horiz-adv-x="352" 
d="M327 54v-54c-26 -7 -56 -10 -81 -10c-100 0 -130 47 -130 148v332h-101v50h101v145l63 17v-162h158l-20 -50h-138v-314c0 -85 16 -111 77 -111c26 0 52 4 71 9zM165 -207v39c38 -3 63 6 70 28c-26 1 -37 21 -37 40c0 24 16 43 44 43c25 0 48 -18 48 -57
c0 -46 -37 -98 -125 -93z" />
    <glyph glyph-name="uni0163" unicode="&#x163;" horiz-adv-x="352" 
d="M327 54v-54c-26 -7 -56 -10 -81 -10c-100 0 -130 47 -130 148v332h-101v50h101v145l63 17v-162h158l-20 -50h-138v-314c0 -85 16 -111 77 -111c26 0 52 4 71 9zM165 -207v39c38 -3 63 6 70 28c-26 1 -37 21 -37 40c0 24 16 43 44 43c25 0 48 -18 48 -57
c0 -46 -37 -98 -125 -93z" />
    <glyph glyph-name="u" unicode="u" horiz-adv-x="606" 
d="M505 0h-63v85c-34 -59 -94 -95 -163 -95c-114 0 -183 77 -183 207v323h63v-310c0 -111 47 -169 124 -169c87 0 159 72 159 216v263h63v-520z" />
    <glyph glyph-name="ugrave" unicode="&#xf9;" horiz-adv-x="606" 
d="M505 0h-63v85c-34 -59 -94 -95 -163 -95c-114 0 -183 77 -183 207v323h63v-310c0 -111 47 -169 124 -169c87 0 159 72 159 216v263h63v-520zM159 750h72l102 -150h-62z" />
    <glyph glyph-name="uacute" unicode="&#xfa;" horiz-adv-x="606" 
d="M505 0h-63v85c-34 -59 -94 -95 -163 -95c-114 0 -183 77 -183 207v323h63v-310c0 -111 47 -169 124 -169c87 0 159 72 159 216v263h63v-520zM369 750h72l-112 -150h-62z" />
    <glyph glyph-name="ucircumflex" unicode="&#xfb;" horiz-adv-x="606" 
d="M505 0h-63v85c-34 -59 -94 -95 -163 -95c-114 0 -183 77 -183 207v323h63v-310c0 -111 47 -169 124 -169c87 0 159 72 159 216v263h63v-520zM269 750h62l101 -150h-62l-71 106l-71 -106h-60z" />
    <glyph glyph-name="utilde" unicode="&#x169;" horiz-adv-x="606" 
d="M505 0h-63v85c-34 -59 -94 -95 -163 -95c-114 0 -183 77 -183 207v323h63v-310c0 -111 47 -169 124 -169c87 0 159 72 159 216v263h63v-520zM184 605l-48 16c25 84 56 109 100 109c63 0 102 -77 134 -77c17 0 29 15 47 75l48 -16c-25 -84 -56 -109 -100 -109
c-63 0 -102 77 -134 77c-17 0 -29 -15 -47 -75z" />
    <glyph glyph-name="udieresis" unicode="&#xfc;" horiz-adv-x="606" 
d="M505 0h-63v85c-34 -59 -94 -95 -163 -95c-114 0 -183 77 -183 207v323h63v-310c0 -111 47 -169 124 -169c87 0 159 72 159 216v263h63v-520zM217 621c-26 0 -47 19 -47 47c0 26 21 46 47 46s46 -20 46 -46s-20 -47 -46 -47zM384 621c-26 0 -47 19 -47 47
c0 26 21 46 47 46s46 -20 46 -46s-20 -47 -46 -47z" />
    <glyph glyph-name="umacron" unicode="&#x16b;" horiz-adv-x="606" 
d="M505 0h-63v85c-34 -59 -94 -95 -163 -95c-114 0 -183 77 -183 207v323h63v-310c0 -111 47 -169 124 -169c87 0 159 72 159 216v263h63v-520zM174 634v48h252v-48h-252z" />
    <glyph glyph-name="ubreve" unicode="&#x16d;" horiz-adv-x="606" 
d="M505 0h-63v85c-34 -59 -94 -95 -163 -95c-114 0 -183 77 -183 207v323h63v-310c0 -111 47 -169 124 -169c87 0 159 72 159 216v263h63v-520zM372 731h50c-3 -83 -60 -121 -122 -121s-119 31 -122 121h50c5 -50 28 -72 73 -72c46 0 66 23 71 72z" />
    <glyph glyph-name="uring" unicode="&#x16f;" horiz-adv-x="606" 
d="M505 0h-63v85c-34 -59 -94 -95 -163 -95c-114 0 -183 77 -183 207v323h63v-310c0 -111 47 -169 124 -169c87 0 159 72 159 216v263h63v-520zM299 579c-59 0 -97 40 -97 92s40 94 99 94s97 -40 97 -92s-40 -94 -99 -94zM300 620c33 0 50 23 50 52s-17 52 -50 52
s-50 -23 -50 -52s17 -52 50 -52z" />
    <glyph glyph-name="uhungarumlaut" unicode="&#x171;" horiz-adv-x="606" 
d="M505 0h-63v85c-34 -59 -94 -95 -163 -95c-114 0 -183 77 -183 207v323h63v-310c0 -111 47 -169 124 -169c87 0 159 72 159 216v263h63v-520zM271 740h71l-93 -150h-61zM444 740h72l-112 -150h-62z" />
    <glyph glyph-name="uogonek" unicode="&#x173;" horiz-adv-x="606" 
d="M488 -143l10 -50c-22 -11 -49 -16 -82 -16c-63 0 -90 28 -90 72c0 46 31 84 116 143v79c-34 -59 -94 -95 -163 -95c-114 0 -183 77 -183 207v323h63v-310c0 -111 47 -169 124 -169c87 0 159 72 159 216v263h63v-520c-88 -65 -118 -95 -118 -129c0 -18 10 -29 35 -29
c22 0 43 4 66 15z" />
    <glyph glyph-name="v" unicode="v" horiz-adv-x="501" 
d="M284 0h-67l-198 520h66l168 -449l166 449h63z" />
    <glyph glyph-name="w" unicode="w" horiz-adv-x="782" 
d="M593 0h-65l-137 436l-137 -436h-65l-166 520h65l137 -439l137 439h61l137 -439l137 439h62z" />
    <glyph glyph-name="wgrave" unicode="&#x1e81;" horiz-adv-x="782" 
d="M593 0h-65l-137 436l-137 -436h-65l-166 520h65l137 -439l137 439h61l137 -439l137 439h62zM248 750h72l102 -150h-62z" />
    <glyph glyph-name="wacute" unicode="&#x1e83;" horiz-adv-x="782" 
d="M593 0h-65l-137 436l-137 -436h-65l-166 520h65l137 -439l137 439h61l137 -439l137 439h62zM466 750h72l-112 -150h-62z" />
    <glyph glyph-name="wcircumflex" unicode="&#x175;" horiz-adv-x="782" 
d="M593 0h-65l-137 436l-137 -436h-65l-166 520h65l137 -439l137 439h61l137 -439l137 439h62zM360 750h62l101 -150h-62l-71 106l-71 -106h-60z" />
    <glyph glyph-name="wdieresis" unicode="&#x1e85;" horiz-adv-x="782" 
d="M593 0h-65l-137 436l-137 -436h-65l-166 520h65l137 -439l137 439h61l137 -439l137 439h62zM309 621c-26 0 -47 19 -47 47c0 26 21 46 47 46s46 -20 46 -46s-20 -47 -46 -47zM476 621c-26 0 -47 19 -47 47c0 26 21 46 47 46s46 -20 46 -46s-20 -47 -46 -47z" />
    <glyph glyph-name="x" unicode="x" horiz-adv-x="541" 
d="M509 0h-79l-161 228l-161 -228h-76l198 267l-185 253h77l150 -212l150 212h74l-185 -251z" />
    <glyph glyph-name="y" unicode="y" horiz-adv-x="501" 
d="M419 520h63l-224 -589c-41 -109 -79 -140 -159 -140c-23 0 -44 2 -68 11l-7 54c22 -10 49 -13 74 -13c52 0 76 24 106 105l16 44l-201 528h66l168 -449z" />
    <glyph glyph-name="ygrave" unicode="&#x1ef3;" horiz-adv-x="501" 
d="M419 520h63l-224 -589c-41 -109 -79 -140 -159 -140c-23 0 -44 2 -68 11l-7 54c22 -10 49 -13 74 -13c52 0 76 24 106 105l16 44l-201 528h66l168 -449zM111 750h72l102 -150h-62z" />
    <glyph glyph-name="yacute" unicode="&#xfd;" horiz-adv-x="501" 
d="M419 520h63l-224 -589c-41 -109 -79 -140 -159 -140c-23 0 -44 2 -68 11l-7 54c22 -10 49 -13 74 -13c52 0 76 24 106 105l16 44l-201 528h66l168 -449zM322 750h72l-112 -150h-62z" />
    <glyph glyph-name="ycircumflex" unicode="&#x177;" horiz-adv-x="501" 
d="M419 520h63l-224 -589c-41 -109 -79 -140 -159 -140c-23 0 -44 2 -68 11l-7 54c22 -10 49 -13 74 -13c52 0 76 24 106 105l16 44l-201 528h66l168 -449zM222 750h62l101 -150h-62l-71 106l-71 -106h-60z" />
    <glyph glyph-name="ydieresis" unicode="&#xff;" horiz-adv-x="501" 
d="M419 520h63l-224 -589c-41 -109 -79 -140 -159 -140c-23 0 -44 2 -68 11l-7 54c22 -10 49 -13 74 -13c52 0 76 24 106 105l16 44l-201 528h66l168 -449zM169 621c-26 0 -47 19 -47 47c0 26 21 46 47 46s46 -20 46 -46s-20 -47 -46 -47zM336 621c-26 0 -47 19 -47 47
c0 26 21 46 47 46s46 -20 46 -46s-20 -47 -46 -47z" />
    <glyph glyph-name="z" unicode="z" horiz-adv-x="475" 
d="M421 0h-367v44l283 424h-272v52h345v-44l-283 -424h294v-52z" />
    <glyph glyph-name="zacute" unicode="&#x17a;" horiz-adv-x="475" 
d="M421 0h-367v44l283 424h-272v52h345v-44l-283 -424h294v-52zM302 750h72l-112 -150h-62z" />
    <glyph glyph-name="zcaron" unicode="&#x17e;" horiz-adv-x="475" 
d="M421 0h-367v44l283 424h-272v52h345v-44l-283 -424h294v-52zM271 600h-62l-101 150h62l71 -107l71 107h60z" />
    <glyph glyph-name="zdotaccent" unicode="&#x17c;" horiz-adv-x="475" 
d="M421 0h-367v44l283 424h-272v52h345v-44l-283 -424h294v-52zM235 621c-26 0 -47 19 -47 47c0 26 21 46 47 46s46 -20 46 -46s-20 -47 -46 -47z" />
    <glyph glyph-name="ordfeminine" unicode="&#xaa;" horiz-adv-x="435" 
d="M377 425v-39c-12 -5 -25 -7 -36 -7c-42 0 -61 23 -63 58c-17 -37 -57 -59 -101 -59c-75 0 -120 40 -120 101c0 62 51 105 131 105c33 0 65 -7 87 -17v31c0 51 -34 70 -82 70c-35 0 -68 -13 -93 -32l-23 37c32 22 76 37 121 37c83 0 131 -33 131 -112v-141
c0 -29 8 -35 26 -35c8 0 16 1 22 3zM275 509v14c-24 13 -56 19 -88 19c-42 0 -74 -19 -74 -61s30 -59 68 -59c52 0 94 43 94 87zM362 267h-305v48h305v-48z" />
    <glyph glyph-name="ordmasculine" unicode="&#xba;" horiz-adv-x="434" 
d="M216 378c-102 0 -160 67 -160 165c0 88 56 167 162 167c102 0 160 -67 160 -164c0 -89 -55 -168 -162 -168zM217 424c64 0 100 47 100 121c0 69 -34 119 -100 119c-64 0 -100 -47 -100 -120c0 -70 34 -120 100 -120zM363 267h-292v48h292v-48z" />
    <glyph glyph-name="grave.cap" horiz-adv-x="304" 
d="M55 879h86l108 -110h-76z" />
    <glyph glyph-name="grave" unicode="`" horiz-adv-x="284" 
d="M55 750h72l102 -150h-62z" />
    <glyph glyph-name="acute.cap" horiz-adv-x="304" 
d="M131 769h-76l108 110h86z" />
    <glyph glyph-name="acute" unicode="&#xb4;" horiz-adv-x="284" 
d="M157 750h72l-112 -150h-62z" />
    <glyph glyph-name="circumflex.cap" horiz-adv-x="384" 
d="M159 879h66l104 -110h-71l-67 70l-67 -70h-69z" />
    <glyph glyph-name="circumflex" unicode="&#x2c6;" horiz-adv-x="374" 
d="M156 750h62l101 -150h-62l-71 106l-71 -106h-60z" />
    <glyph glyph-name="circumflex.narrow" horiz-adv-x="324" 
d="M131 750h62l76 -150h-57l-51 110l-51 -110h-55z" />
    <glyph glyph-name="caron.cap" horiz-adv-x="384" 
d="M225 769h-66l-104 110h71l67 -70l67 70h69z" />
    <glyph glyph-name="caron" unicode="&#x2c7;" horiz-adv-x="374" 
d="M218 600h-62l-101 150h62l71 -107l71 107h60z" />
    <glyph glyph-name="caron.narrow" horiz-adv-x="324" 
d="M193 600h-62l-76 150h57l51 -110l51 110h55z" />
    <glyph glyph-name="uni0315" unicode="&#x315;" horiz-adv-x="187" 
d="M132 750l-31 -173h-48l10 173h69z" />
    <glyph glyph-name="tilde.cap" horiz-adv-x="439" 
d="M102 761l-47 22c22 57 52 86 98 86c65 0 110 -59 148 -59c16 0 30 16 46 57l47 -22c-22 -57 -52 -86 -98 -86c-65 0 -110 59 -148 59c-16 0 -30 -16 -46 -57z" />
    <glyph glyph-name="tilde" unicode="&#x2dc;" horiz-adv-x="439" 
d="M103 605l-48 16c25 84 56 109 100 109c63 0 102 -77 134 -77c17 0 29 15 47 75l48 -16c-25 -84 -56 -109 -100 -109c-63 0 -102 77 -134 77c-17 0 -29 -15 -47 -75z" />
    <glyph glyph-name="tilde.narrow" horiz-adv-x="389" 
d="M100 605l-45 16c23 84 49 109 90 109c62 0 72 -77 104 -77c13 0 24 14 40 75l45 -16c-23 -84 -49 -109 -90 -109c-62 0 -72 77 -104 77c-13 0 -24 -14 -40 -75z" />
    <glyph glyph-name="dieresis.cap" horiz-adv-x="397" 
d="M104 765c-27 0 -49 20 -49 47c0 26 22 46 49 46s48 -20 48 -46s-21 -47 -48 -47zM294 765c-27 0 -49 20 -49 47c0 26 22 46 49 46s48 -20 48 -46s-21 -47 -48 -47z" />
    <glyph glyph-name="dieresis" unicode="&#xa8;" horiz-adv-x="370" 
d="M102 621c-26 0 -47 19 -47 47c0 26 21 46 47 46s46 -20 46 -46s-20 -47 -46 -47zM269 621c-26 0 -47 19 -47 47c0 26 21 46 47 46s46 -20 46 -46s-20 -47 -46 -47z" />
    <glyph glyph-name="dieresis.narrow" horiz-adv-x="360" 
d="M102 621c-26 0 -47 19 -47 47c0 26 21 46 47 46s46 -20 46 -46s-20 -47 -46 -47zM259 621c-26 0 -47 19 -47 47c0 26 21 46 47 46s46 -20 46 -46s-20 -47 -46 -47z" />
    <glyph glyph-name="macron.cap" horiz-adv-x="372" 
d="M55 777v54h262v-54h-262z" />
    <glyph glyph-name="macron" unicode="&#xaf;" horiz-adv-x="362" 
d="M55 634v48h252v-48h-252z" />
    <glyph glyph-name="macron.narrow" horiz-adv-x="312" 
d="M55 634v48h202v-48h-202z" />
    <glyph glyph-name="breve.cap" horiz-adv-x="364" 
d="M259 868h50c-3 -79 -63 -110 -127 -110s-124 27 -127 110h49c5 -45 38 -62 79 -62c42 0 71 18 76 62z" />
    <glyph glyph-name="breve" unicode="&#x2d8;" horiz-adv-x="354" 
d="M249 731h50c-3 -83 -60 -121 -122 -121s-119 31 -122 121h50c5 -50 28 -72 73 -72c46 0 66 23 71 72z" />
    <glyph glyph-name="breve.narrow" horiz-adv-x="354" 
d="M203 731h46c-1 -81 -43 -121 -98 -121c-53 0 -95 32 -96 121h46c3 -51 18 -72 52 -72c35 0 47 22 50 72z" />
    <glyph glyph-name="ring.cap" horiz-adv-x="296" 
d="M147 739c-55 0 -92 38 -92 87s39 89 94 89s92 -38 92 -87s-39 -89 -94 -89zM148 781c30 0 45 22 45 46s-15 46 -45 46s-45 -22 -45 -46s15 -46 45 -46z" />
    <glyph glyph-name="ring" unicode="&#x2da;" horiz-adv-x="306" 
d="M152 579c-59 0 -97 40 -97 92s40 94 99 94s97 -40 97 -92s-40 -94 -99 -94zM153 620c33 0 50 23 50 52s-17 52 -50 52s-50 -23 -50 -52s17 -52 50 -52z" />
    <glyph glyph-name="ringacute.cap" horiz-adv-x="339" 
d="M147 726c-55 0 -92 32 -92 75s39 77 94 77s92 -32 92 -75s-39 -77 -94 -77zM148 765c31 0 46 17 46 37s-15 36 -46 36s-46 -16 -46 -36s15 -37 46 -37zM112 900l91 86h79l-98 -86h-72z" />
    <glyph glyph-name="ringacute" horiz-adv-x="330" 
d="M147 579c-55 0 -92 38 -92 87c0 51 39 89 94 89s92 -38 92 -87s-39 -89 -94 -89zM148 619c29 0 46 21 46 48s-17 48 -46 48s-46 -21 -46 -48s17 -48 46 -48zM203 915h72l-98 -130h-62z" />
    <glyph glyph-name="hungarumlaut.cap" horiz-adv-x="444" 
d="M134 869h75l-89 -110h-65zM313 869h76l-108 -110h-66z" />
    <glyph glyph-name="hungarumlaut" unicode="&#x2dd;" horiz-adv-x="438" 
d="M138 740h71l-93 -150h-61zM311 740h72l-112 -150h-62z" />
    <glyph glyph-name="dotaccent.cap" horiz-adv-x="207" 
d="M104 765c-27 0 -49 20 -49 47c0 26 22 46 49 46s48 -20 48 -46s-21 -47 -48 -47z" />
    <glyph glyph-name="dotaccent" unicode="&#x2d9;" horiz-adv-x="203" 
d="M102 621c-26 0 -47 19 -47 47c0 26 21 46 47 46s46 -20 46 -46s-20 -47 -46 -47z" />
    <glyph glyph-name="cedilla" unicode="&#xb8;" horiz-adv-x="289" 
d="M101 30h54c60 -65 79 -103 79 -144c0 -48 -25 -95 -112 -95c-21 0 -43 4 -60 9l-7 50c27 -9 50 -13 70 -13c36 0 54 16 54 44c0 40 -18 73 -78 149z" />
    <glyph glyph-name="uni0326" unicode="&#x326;" horiz-adv-x="235" 
d="M55 -207v39c38 -3 63 6 70 28c-26 1 -37 21 -37 40c0 24 16 43 44 43c25 0 48 -18 48 -57c0 -46 -37 -98 -125 -93z" />
    <glyph glyph-name="ogonek" unicode="&#x2db;" horiz-adv-x="289" 
d="M217 -143l10 -50c-22 -11 -49 -16 -82 -16c-63 0 -90 28 -90 72c0 46 32 85 119 145l60 -8c-88 -65 -118 -95 -118 -129c0 -18 10 -29 35 -29c22 0 43 4 66 15z" />
    <glyph glyph-name="uni0312" unicode="&#x312;" horiz-adv-x="235" 
d="M180 750v-39c-39 3 -63 -6 -70 -28c26 -1 37 -21 37 -40c0 -24 -16 -43 -44 -43c-25 0 -48 18 -48 57c0 46 37 98 125 93z" />
    <glyph glyph-name="Alpha" unicode="&#x391;" horiz-adv-x="618" 
d="M597 0h-65l-72 204h-304l-72 -204h-63l250 700h76zM308 636l-134 -380h268z" />
    <glyph glyph-name="Alphatonos" unicode="&#x386;" horiz-adv-x="614" 
d="M593 0h-65l-72 204h-304l-72 -204h-63l250 700h76zM304 636l-134 -380h268zM112 750h65l-44 -170h-53z" />
    <glyph glyph-name="Beta" unicode="&#x392;" horiz-adv-x="613" 
d="M101 0v700h191c159 0 242 -60 242 -173c0 -97 -60 -147 -127 -165v-2c69 -13 144 -64 144 -164c0 -106 -65 -196 -256 -196h-194zM165 385h130c121 0 173 48 173 138c0 94 -74 125 -184 125h-119v-263zM165 52h136c131 0 184 48 184 140c0 101 -72 141 -192 141h-128
v-281z" />
    <glyph glyph-name="Gamma" unicode="&#x393;" horiz-adv-x="460" 
d="M447 647h-282v-647h-64v700h346v-53z" />
    <glyph glyph-name="Delta" unicode="&#x394;" horiz-adv-x="618" 
d="M37 0v45l234 655h76l234 -655v-45h-544zM308 636l-206 -583h411z" />
    <glyph glyph-name="increment" unicode="&#x2206;" horiz-adv-x="618" 
d="M37 0v45l234 655h76l234 -655v-45h-544zM308 636l-206 -583h411z" />
    <glyph glyph-name="Epsilon" unicode="&#x395;" horiz-adv-x="555" 
d="M495 648h-330v-258h314v-52h-314v-286h330v-52h-394v700h394v-52z" />
    <glyph glyph-name="Epsilontonos" unicode="&#x388;" horiz-adv-x="611" 
d="M551 648h-330v-258h314v-52h-314v-286h330v-52h-394v700h394v-52zM37 750h65l-44 -170h-53z" />
    <glyph glyph-name="Zeta" unicode="&#x396;" horiz-adv-x="580" 
d="M531 0h-479v45l385 602h-367v53h443v-45l-385 -602h403v-53z" />
    <glyph glyph-name="Eta" unicode="&#x397;" horiz-adv-x="706" 
d="M605 0h-64v338h-376v-338h-64v700h64v-309h376v309h64v-700z" />
    <glyph glyph-name="Etatonos" unicode="&#x389;" horiz-adv-x="762" 
d="M661 0h-64v338h-376v-338h-64v700h64v-309h376v309h64v-700zM37 750h65l-44 -170h-53z" />
    <glyph glyph-name="Theta" unicode="&#x398;" horiz-adv-x="794" 
d="M395 -10c-204 0 -342 141 -342 358c0 215 144 362 346 362c204 0 342 -141 342 -358c0 -215 -144 -362 -346 -362zM397 44c170 0 277 123 277 306s-107 306 -277 306s-277 -123 -277 -306s107 -306 277 -306zM231 338v52h332v-52h-332z" />
    <glyph glyph-name="Iota" unicode="&#x399;" horiz-adv-x="266" 
d="M165 0h-64v700h64v-700z" />
    <glyph glyph-name="Iotatonos" unicode="&#x38a;" horiz-adv-x="322" 
d="M221 0h-64v700h64v-700zM37 750h65l-44 -170h-53z" />
    <glyph glyph-name="Iotadieresis" unicode="&#x3aa;" horiz-adv-x="266" 
d="M165 0h-64v700h64v-700zM50 801c-26 0 -47 19 -47 47c0 26 21 46 47 46s46 -20 46 -46s-20 -47 -46 -47zM217 801c-26 0 -47 19 -47 47c0 26 21 46 47 46s46 -20 46 -46s-20 -47 -46 -47z" />
    <glyph glyph-name="Kappa" unicode="&#x39a;" horiz-adv-x="595" 
d="M570 0h-81l-244 371l-80 -85v-286h-64v700h64v-340l317 340h77l-265 -284z" />
    <glyph glyph-name="Lambda" unicode="&#x39b;" horiz-adv-x="580" 
d="M568 0h-65l-215 621l-213 -621h-63l245 700h66z" />
    <glyph glyph-name="Mu" unicode="&#x39c;" horiz-adv-x="814" 
d="M713 0h-64v589l-235 -451h-14l-235 451v-589h-64v700h71l237 -454l236 454h68v-700z" />
    <glyph glyph-name="Nu" unicode="&#x39d;" horiz-adv-x="705" 
d="M604 0h-67l-373 593v-593h-63v700h67l373 -593v593h63v-700z" />
    <glyph glyph-name="Xi" unicode="&#x39e;" horiz-adv-x="544" 
d="M60 0v53h424v-53h-424zM86 337v53h372v-53h-372zM63 647v53h418v-53h-418z" />
    <glyph glyph-name="Omicron" unicode="&#x39f;" horiz-adv-x="794" 
d="M395 -10c-204 0 -342 141 -342 358c0 215 144 362 346 362c204 0 342 -141 342 -358c0 -215 -144 -362 -346 -362zM397 44c170 0 277 123 277 306s-107 306 -277 306s-277 -123 -277 -306s107 -306 277 -306z" />
    <glyph glyph-name="Omicrontonos" unicode="&#x38c;" horiz-adv-x="830" 
d="M431 -10c-204 0 -342 141 -342 358c0 215 144 362 346 362c204 0 342 -141 342 -358c0 -215 -144 -362 -346 -362zM433 44c170 0 277 123 277 306s-107 306 -277 306s-277 -123 -277 -306s107 -306 277 -306zM37 750h65l-44 -170h-53z" />
    <glyph glyph-name="Pi" unicode="&#x3a0;" horiz-adv-x="692" 
d="M101 700h490v-700h-64v648h-362v-648h-64v700z" />
    <glyph glyph-name="Rho" unicode="&#x3a1;" horiz-adv-x="568" 
d="M165 0h-64v700h175c159 0 248 -75 248 -209c0 -128 -92 -218 -243 -218h-116v-273zM165 325h121c102 0 172 58 172 164c0 121 -83 159 -194 159h-99v-323z" />
    <glyph glyph-name="Sigma" unicode="&#x3a3;" horiz-adv-x="581" 
d="M536 0h-479v45l277 307l-259 295v53h443v-53h-368l253 -285v-14l-268 -295h401v-53z" />
    <glyph glyph-name="Tau" unicode="&#x3a4;" horiz-adv-x="528" 
d="M296 0h-64v647h-219v53h502v-53h-219v-647z" />
    <glyph glyph-name="Upsilon" unicode="&#x3a5;" horiz-adv-x="568" 
d="M316 0h-64v277l-242 423h69l207 -365l207 365h65l-242 -423v-277z" />
    <glyph glyph-name="Upsilontonos" unicode="&#x38e;" horiz-adv-x="674" 
d="M37 750h65l-44 -170h-53zM422 0h-64v277l-242 423h69l207 -365l207 365h65l-242 -423v-277z" />
    <glyph glyph-name="Upsilondieresis" unicode="&#x3ab;" horiz-adv-x="568" 
d="M316 0h-64v277l-242 423h69l207 -365l207 365h65l-242 -423v-277zM190 765c-27 0 -49 20 -49 47c0 26 22 46 49 46s48 -20 48 -46s-21 -47 -48 -47zM380 765c-27 0 -49 20 -49 47c0 26 22 46 49 46s48 -20 48 -46s-21 -47 -48 -47z" />
    <glyph glyph-name="Phi" unicode="&#x3a6;" horiz-adv-x="880" 
d="M472 -60h-64v78c-256 9 -355 167 -355 330c0 161 101 322 355 334v78h64v-78c256 -10 355 -167 355 -330c0 -161 -102 -323 -355 -334v-78zM408 70v560c-214 -8 -289 -141 -289 -280c0 -150 84 -273 289 -280zM472 630v-560c214 7 289 141 289 280
c0 150 -85 272 -289 280z" />
    <glyph glyph-name="Chi" unicode="&#x3a7;" horiz-adv-x="588" 
d="M569 0h-75l-203 312l-202 -312h-70l236 360l-222 340h73l191 -294l191 294h67l-222 -339z" />
    <glyph glyph-name="Psi" unicode="&#x3a8;" horiz-adv-x="735" 
d="M336 0v190c-215 9 -284 122 -284 287v223h64v-217c0 -150 49 -231 220 -239v456h64v-456c170 9 220 91 220 244v212h63v-211c0 -171 -75 -286 -283 -298v-191h-64z" />
    <glyph glyph-name="Omega" unicode="&#x3a9;" horiz-adv-x="794" 
d="M721 0h-254v106c120 41 207 121 207 279c0 153 -107 271 -277 271s-277 -118 -277 -271c0 -154 96 -245 207 -279v-106h-254v52h190v27c-125 49 -210 145 -210 304c0 185 144 327 346 327c204 0 342 -136 342 -323c0 -151 -88 -253 -210 -308v-27h190v-52z" />
    <glyph glyph-name="ohm" unicode="&#x2126;" horiz-adv-x="794" 
d="M721 0h-254v106c120 41 207 121 207 279c0 153 -107 271 -277 271s-277 -118 -277 -271c0 -154 96 -245 207 -279v-106h-254v52h190v27c-125 49 -210 145 -210 304c0 185 144 327 346 327c204 0 342 -136 342 -323c0 -151 -88 -253 -210 -308v-27h190v-52z" />
    <glyph glyph-name="Omegatonos" unicode="&#x38f;" horiz-adv-x="830" 
d="M757 0h-254v106c120 41 207 121 207 279c0 153 -107 271 -277 271s-277 -118 -277 -271c0 -154 96 -245 207 -279v-106h-254v52h190v27c-125 49 -210 145 -210 304c0 185 144 327 346 327c204 0 342 -136 342 -323c0 -151 -88 -253 -210 -308v-27h190v-52zM37 750h65
l-44 -170h-53z" />
    <glyph glyph-name="alpha" unicode="&#x3b1;" horiz-adv-x="642" 
d="M446 520h63v-364c0 -85 14 -111 62 -111c25 0 37 3 56 8v-54c-26 -7 -38 -9 -63 -9c-78 0 -107 37 -115 101c-35 -58 -96 -101 -170 -101c-138 0 -224 106 -224 267c0 151 83 273 228 273c68 0 130 -34 163 -90v80zM281 41c93 0 165 72 165 216v6c0 167 -91 216 -165 216
c-98 0 -161 -87 -161 -220s64 -218 161 -218z" />
    <glyph glyph-name="alphatonos" unicode="&#x3ac;" horiz-adv-x="642" 
d="M446 520h63v-364c0 -85 14 -111 62 -111c25 0 37 3 56 8v-54c-26 -7 -38 -9 -63 -9c-78 0 -107 37 -115 101c-35 -58 -96 -101 -170 -101c-138 0 -224 106 -224 267c0 151 83 273 228 273c68 0 130 -34 163 -90v80zM281 41c93 0 165 72 165 216v6c0 167 -91 216 -165 216
c-98 0 -161 -87 -161 -220s64 -218 161 -218zM294 750h67l-52 -150h-57z" />
    <glyph glyph-name="beta" unicode="&#x3b2;" horiz-adv-x="615" 
d="M164 -200h-63v714c0 154 92 245 218 245c133 0 202 -91 202 -186c0 -101 -69 -150 -129 -167c112 -24 158 -98 158 -196c0 -131 -92 -220 -229 -220c-61 0 -116 17 -157 50v-240zM164 510v-399c41 -46 90 -70 159 -70c91 0 162 56 162 167c0 96 -63 168 -174 168h-59v51
h43c102 0 162 51 162 144c0 70 -46 137 -140 137c-87 0 -153 -56 -153 -198z" />
    <glyph glyph-name="gamma" unicode="&#x3b3;" horiz-adv-x="501" 
d="M282 -200h-63v200l-200 520h66l168 -444l166 444h63l-200 -520v-200z" />
    <glyph glyph-name="delta" unicode="&#x3b4;" horiz-adv-x="584" 
d="M485 698h-306l96 -90c226 -212 259 -266 259 -385c0 -100 -76 -233 -244 -233c-152 0 -240 100 -240 246c0 129 74 235 229 289l-63 61l-127 120v44h396v-52zM469 221c0 83 -12 126 -148 263c-148 -45 -206 -127 -206 -246c0 -110 60 -197 177 -197c118 0 177 96 177 180
z" />
    <glyph glyph-name="epsilon" unicode="&#x3b5;" horiz-adv-x="529" 
d="M461 107l35 -38c-54 -55 -119 -78 -215 -78c-133 0 -220 50 -220 146c0 66 46 111 113 126v2c-62 19 -93 63 -93 116c0 90 81 148 220 148c79 0 136 -20 177 -48l-24 -56c-43 33 -88 53 -159 53c-100 0 -147 -37 -147 -93s46 -92 130 -92h125l-20 -51h-105
c-90 0 -152 -31 -152 -100s62 -100 159 -100c87 0 135 23 176 65z" />
    <glyph glyph-name="epsilontonos" unicode="&#x3ad;" horiz-adv-x="529" 
d="M461 107l35 -38c-54 -55 -119 -78 -215 -78c-133 0 -220 50 -220 146c0 66 46 111 113 126v2c-62 19 -93 63 -93 116c0 90 81 148 220 148c79 0 136 -20 177 -48l-24 -56c-43 33 -88 53 -159 53c-100 0 -147 -37 -147 -93s46 -92 130 -92h125l-20 -51h-105
c-90 0 -152 -31 -152 -100s62 -100 159 -100c87 0 135 23 176 65zM305 750h67l-52 -150h-57z" />
    <glyph glyph-name="zeta" unicode="&#x3b6;" horiz-adv-x="430" 
d="M378 -159h-59c14 35 25 69 25 104c0 38 -16 52 -77 56c-143 10 -217 76 -217 182c0 104 50 205 284 515h-249v52h321v-44c-241 -320 -291 -418 -291 -519c0 -79 53 -125 172 -132c84 -5 120 -31 120 -96c0 -33 -12 -81 -29 -118z" />
    <glyph glyph-name="eta" unicode="&#x3b7;" 
d="M514 -200h-63v510c0 111 -47 169 -126 169c-89 0 -161 -72 -161 -216v-263h-63v520h63v-85c34 59 94 95 165 95c116 0 185 -77 185 -207v-523z" />
    <glyph glyph-name="etatonos" unicode="&#x3ae;" 
d="M514 -200h-63v510c0 111 -47 169 -126 169c-89 0 -161 -72 -161 -216v-263h-63v520h63v-85c34 59 94 95 165 95c116 0 185 -77 185 -207v-523zM337 750h67l-52 -150h-57z" />
    <glyph glyph-name="theta" unicode="&#x3b8;" horiz-adv-x="616" 
d="M305 -10c-152 0 -232 126 -232 382c0 238 81 387 238 387c152 0 232 -126 232 -381c0 -239 -81 -388 -238 -388zM307 41c111 0 169 104 171 322h-340c1 -213 54 -322 169 -322zM309 708c-106 0 -163 -95 -170 -292h338c-6 192 -59 292 -168 292z" />
    <glyph glyph-name="iota" unicode="&#x3b9;" horiz-adv-x="292" 
d="M277 53v-54c-26 -7 -38 -9 -63 -9c-89 0 -118 47 -118 148v382h63v-364c0 -85 14 -111 62 -111c25 0 37 3 56 8z" />
    <glyph glyph-name="iotatonos" unicode="&#x3af;" horiz-adv-x="292" 
d="M277 53v-54c-26 -7 -38 -9 -63 -9c-89 0 -118 47 -118 148v382h63v-364c0 -85 14 -111 62 -111c25 0 37 3 56 8zM143 750h67l-52 -150h-57z" />
    <glyph glyph-name="iotadieresis" unicode="&#x3ca;" horiz-adv-x="292" 
d="M277 53v-54c-26 -7 -38 -9 -63 -9c-89 0 -118 47 -118 148v382h63v-364c0 -85 14 -111 62 -111c25 0 37 3 56 8zM49 621c-26 0 -47 19 -47 47c0 26 21 46 47 46s46 -20 46 -46s-20 -47 -46 -47zM206 621c-26 0 -47 19 -47 47c0 26 21 46 47 46s46 -20 46 -46
s-20 -47 -46 -47z" />
    <glyph glyph-name="iotadieresistonos" unicode="&#x390;" horiz-adv-x="292" 
d="M277 53v-54c-26 -7 -38 -9 -63 -9c-89 0 -118 47 -118 148v382h63v-364c0 -85 14 -111 62 -111c25 0 37 3 56 8zM27 621c-26 0 -47 19 -47 47c0 26 21 46 47 46s46 -20 46 -46s-20 -47 -46 -47zM257 621c-26 0 -47 19 -47 47c0 26 21 46 47 46s46 -20 46 -46
s-20 -47 -46 -47zM122 750h67l-32 -150h-57z" />
    <glyph glyph-name="kappa" unicode="&#x3ba;" horiz-adv-x="541" 
d="M436 0l-189 280l-83 -80v-200h-63v520h63v-248l252 248h78l-202 -198l219 -322h-75z" />
    <glyph glyph-name="lambda" unicode="&#x3bb;" horiz-adv-x="501" 
d="M482 0h-66l-168 449l-166 -449h-63l201 528l-24 65c-32 87 -57 114 -109 114c-17 0 -31 -2 -53 -9l7 54c18 5 33 7 57 7c75 0 110 -39 154 -154z" />
    <glyph glyph-name="mu" unicode="&#xb5;" horiz-adv-x="599" 
d="M498 0h-63v87c-33 -61 -89 -96 -157 -96c-46 0 -85 13 -114 51v-242h-63v720h63v-309c0 -111 44 -169 120 -169c85 0 151 78 151 207v271h63v-520z" />
    <glyph glyph-name="nu" unicode="&#x3bd;" horiz-adv-x="501" 
d="M284 0h-67l-198 520h66l168 -449l166 449h63z" />
    <glyph glyph-name="xi" unicode="&#x3be;" horiz-adv-x="465" 
d="M418 -159h-59c14 35 25 69 25 104c0 38 -16 52 -77 56c-179 12 -257 95 -257 217c0 86 56 155 144 181c-77 26 -119 88 -119 167c0 106 85 193 207 193c69 0 119 -24 162 -62l-34 -49c-34 37 -71 60 -130 60c-72 0 -140 -46 -140 -140c0 -90 60 -141 153 -141h65v-51h-69
c-109 0 -174 -66 -174 -156c0 -101 61 -156 212 -165c84 -5 120 -31 120 -96c0 -33 -12 -81 -29 -118z" />
    <glyph glyph-name="omicron" unicode="&#x3bf;" horiz-adv-x="590" 
d="M293 -10c-155 0 -243 112 -243 268c0 138 77 272 247 272c155 0 243 -112 243 -267c0 -139 -77 -273 -247 -273zM295 41c116 0 180 93 180 220c0 119 -60 218 -180 218c-116 0 -180 -93 -180 -219c0 -120 60 -219 180 -219z" />
    <glyph glyph-name="omicrontonos" unicode="&#x3cc;" horiz-adv-x="590" 
d="M293 -10c-155 0 -243 112 -243 268c0 138 77 272 247 272c155 0 243 -112 243 -267c0 -139 -77 -273 -247 -273zM295 41c116 0 180 93 180 220c0 119 -60 218 -180 218c-116 0 -180 -93 -180 -219c0 -120 60 -219 180 -219zM308 750h67l-52 -150h-57z" />
    <glyph glyph-name="pi" unicode="&#x3c0;" horiz-adv-x="655" 
d="M605 52v-54c-26 -7 -39 -8 -64 -8c-89 0 -119 39 -119 148s2 218 3 327h-216l-26 -465h-66l35 465h-134v55h632l-21 -55h-147l5 -310c1 -86 16 -110 62 -110c23 0 37 2 56 7z" />
    <glyph glyph-name="rho" unicode="&#x3c1;" horiz-adv-x="584" 
d="M138 -200h-63v460c0 138 70 270 228 270c138 0 226 -106 226 -267c0 -151 -83 -273 -228 -273c-68 0 -130 34 -163 90v-280zM303 41c98 0 161 87 161 220s-63 218 -163 218c-106 0 -163 -83 -163 -222c0 -167 91 -216 165 -216z" />
    <glyph glyph-name="sigma" unicode="&#x3c3;" horiz-adv-x="598" 
d="M581 520l-21 -55h-129c68 -44 103 -118 103 -204c0 -135 -76 -271 -244 -271c-153 0 -240 114 -240 264c0 136 76 272 251 272c56 0 76 -6 135 -6h145zM292 471c-114 0 -177 -93 -177 -215c0 -116 59 -215 177 -215c114 0 177 93 177 216c0 115 -59 214 -177 214z" />
    <glyph glyph-name="sigma1" unicode="&#x3c2;" horiz-adv-x="485" 
d="M428 -159h-59c14 35 25 69 25 104c0 38 -16 52 -77 56c-164 11 -267 96 -267 267c0 130 84 261 241 261c72 0 123 -21 169 -62l-34 -49c-38 40 -79 60 -137 60c-104 0 -174 -90 -174 -208c0 -140 78 -205 222 -215c84 -5 120 -31 120 -96c0 -33 -12 -81 -29 -118z" />
    <glyph glyph-name="tau" unicode="&#x3c4;" horiz-adv-x="412" 
d="M362 54v-54c-26 -7 -56 -10 -81 -10c-101 0 -131 45 -131 148c0 109 4 218 6 327h-146v55h397l-21 -55h-173l2 -309c0 -89 15 -111 76 -111c26 0 52 4 71 9z" />
    <glyph glyph-name="upsilon" unicode="&#x3c5;" horiz-adv-x="589" 
d="M430 520h63v-307c0 -140 -70 -223 -200 -223c-137 0 -197 83 -197 207v323h63v-307c0 -116 47 -172 136 -172c88 0 135 56 135 172v307z" />
    <glyph glyph-name="upsilontonos" unicode="&#x3cd;" horiz-adv-x="589" 
d="M430 520h63v-307c0 -140 -70 -223 -200 -223c-137 0 -197 83 -197 207v323h63v-307c0 -116 47 -172 136 -172c88 0 135 56 135 172v307zM308 750h67l-52 -150h-57z" />
    <glyph glyph-name="upsilondieresis" unicode="&#x3cb;" horiz-adv-x="589" 
d="M430 520h63v-307c0 -140 -70 -223 -200 -223c-137 0 -197 83 -197 207v323h63v-307c0 -116 47 -172 136 -172c88 0 135 56 135 172v307zM211 621c-26 0 -47 19 -47 47c0 26 21 46 47 46s46 -20 46 -46s-20 -47 -46 -47zM378 621c-26 0 -47 19 -47 47c0 26 21 46 47 46
s46 -20 46 -46s-20 -47 -46 -47z" />
    <glyph glyph-name="upsilondieresistonos" unicode="&#x3b0;" horiz-adv-x="589" 
d="M430 520h63v-307c0 -140 -70 -223 -200 -223c-137 0 -197 83 -197 207v323h63v-307c0 -116 47 -172 136 -172c88 0 135 56 135 172v307zM180 621c-26 0 -47 19 -47 47c0 26 21 46 47 46s46 -20 46 -46s-20 -47 -46 -47zM410 621c-26 0 -47 19 -47 47c0 26 21 46 47 46
s46 -20 46 -46s-20 -47 -46 -47zM275 750h67l-32 -150h-57z" />
    <glyph glyph-name="phi" unicode="&#x3c6;" horiz-adv-x="729" 
d="M396 -200h-63v194c-183 12 -283 120 -283 264c0 142 99 256 283 268v224h63v-224c182 -12 283 -120 283 -264c0 -142 -100 -256 -283 -268v-194zM333 43v434c-109 -8 -218 -67 -218 -217s109 -209 218 -217zM396 477v-434c108 8 218 67 218 217s-110 209 -218 217z" />
    <glyph glyph-name="chi" unicode="&#x3c7;" horiz-adv-x="541" 
d="M509 0h-79l-161 228l-161 -228h-76l198 267l-185 253h77l150 -212l150 212h74l-185 -251z" />
    <glyph glyph-name="psi" unicode="&#x3c8;" horiz-adv-x="775" 
d="M620 520h62v-258c0 -147 -64 -257 -263 -268v-194h-63v194c-199 10 -263 114 -263 258v268h62v-260c0 -120 35 -208 201 -216v706h63v-706c165 8 201 96 201 216v260z" />
    <glyph glyph-name="omega" unicode="&#x3c9;" horiz-adv-x="823" 
d="M380 400h63v-168c0 -114 39 -191 123 -191c91 0 134 91 134 202c0 91 -36 190 -130 277h70c91 -81 123 -186 123 -275c0 -144 -75 -255 -200 -255c-88 0 -135 49 -154 110c-25 -59 -70 -110 -159 -110c-122 0 -190 110 -190 253c0 86 26 190 123 277h68
c-99 -89 -128 -186 -128 -275c0 -117 47 -204 134 -204c83 0 123 76 123 191v168z" />
    <glyph glyph-name="omegatonos" unicode="&#x3ce;" horiz-adv-x="823" 
d="M380 400h63v-168c0 -114 39 -191 123 -191c91 0 134 91 134 202c0 91 -36 190 -130 277h70c91 -81 123 -186 123 -275c0 -144 -75 -255 -200 -255c-88 0 -135 49 -154 110c-25 -59 -70 -110 -159 -110c-122 0 -190 110 -190 253c0 86 26 190 123 277h68
c-99 -89 -128 -186 -128 -275c0 -117 47 -204 134 -204c83 0 123 76 123 191v168zM429 750h67l-52 -150h-57z" />
    <glyph glyph-name="tonos" unicode="&#x384;" horiz-adv-x="219" 
d="M97 750h67l-52 -150h-57z" />
    <glyph glyph-name="tonos.cap" horiz-adv-x="207" 
d="M87 750h65l-44 -170h-53z" />
    <glyph glyph-name="dieresistonos" unicode="&#x385;" horiz-adv-x="433" 
d="M102 621c-26 0 -47 19 -47 47c0 26 21 46 47 46s46 -20 46 -46s-20 -47 -46 -47zM332 621c-26 0 -47 19 -47 47c0 26 21 46 47 46s46 -20 46 -46s-20 -47 -46 -47zM197 750h67l-32 -150h-57z" />
    <glyph glyph-name="anoteleia" unicode="&#x387;" horiz-adv-x="238" 
d="M119 467c-30 0 -53 22 -53 53s23 53 53 53s53 -22 53 -53s-23 -53 -53 -53z" />
    <glyph glyph-name="uni037E" unicode="&#x37e;" horiz-adv-x="258" 
d="M149 403c-30 0 -53 22 -53 53s23 53 53 53s53 -22 53 -53s-23 -53 -53 -53zM34 -189l-7 47c90 6 124 72 124 135c-31 -3 -55 21 -55 52s23 53 53 53s59 -21 59 -82c0 -82 -40 -197 -174 -205z" />
    <glyph glyph-name="uni0410" unicode="&#x410;" horiz-adv-x="618" 
d="M597 0h-65l-72 204h-304l-72 -204h-63l250 700h76zM308 636l-134 -380h268z" />
    <glyph glyph-name="uni04D2" unicode="&#x4d2;" horiz-adv-x="618" 
d="M597 0h-65l-72 204h-304l-72 -204h-63l250 700h76zM308 636l-134 -380h268zM215 765c-27 0 -49 20 -49 47c0 26 22 46 49 46s48 -20 48 -46s-21 -47 -48 -47zM405 765c-27 0 -49 20 -49 47c0 26 22 46 49 46s48 -20 48 -46s-21 -47 -48 -47z" />
    <glyph glyph-name="uni04D0" unicode="&#x4d0;" horiz-adv-x="618" 
d="M597 0h-65l-72 204h-304l-72 -204h-63l250 700h76zM308 636l-134 -380h268zM395 879h57c-5 -76 -68 -123 -146 -123c-88 0 -135 49 -140 123h59c4 -45 33 -77 85 -77c47 0 81 32 85 77z" />
    <glyph glyph-name="uni04D4" unicode="&#x4d4;" horiz-adv-x="896" 
d="M442 0v242h-254l-113 -242h-68l328 700h501v-52h-330v-258h314v-52h-314v-286h330v-52h-394zM377 648l-165 -354h230v354h-65z" />
    <glyph glyph-name="uni0411" unicode="&#x411;" horiz-adv-x="606" 
d="M497 647h-332v-234h120c179 0 266 -76 266 -198c0 -126 -77 -215 -268 -215h-182v700h396v-53zM283 361h-118v-309h119c133 0 201 45 201 157s-77 152 -202 152z" />
    <glyph glyph-name="uni0412" unicode="&#x412;" horiz-adv-x="613" 
d="M101 0v700h191c159 0 242 -60 242 -173c0 -97 -60 -147 -127 -165v-2c69 -13 144 -64 144 -164c0 -106 -65 -196 -256 -196h-194zM165 385h130c121 0 173 48 173 138c0 94 -74 125 -184 125h-119v-263zM165 52h136c131 0 184 48 184 140c0 101 -72 141 -192 141h-128
v-281z" />
    <glyph glyph-name="uni0413" unicode="&#x413;" horiz-adv-x="460" 
d="M447 647h-282v-647h-64v700h346v-53z" />
    <glyph glyph-name="uni0403" unicode="&#x403;" horiz-adv-x="460" 
d="M447 647h-282v-647h-64v700h346v-53zM310 769h-76l108 110h86z" />
    <glyph glyph-name="uni0490" unicode="&#x490;" horiz-adv-x="460" 
d="M447 647h-282v-647h-64v700h286v156h60v-209z" />
    <glyph glyph-name="uni0492" unicode="&#x492;" horiz-adv-x="482" 
d="M469 647h-292v-257h204l-20 -51h-184v-339h-64v339h-93v51h93v310h356v-53z" />
    <glyph glyph-name="uni0494" unicode="&#x494;" horiz-adv-x="606" 
d="M101 0v700h396v-53h-332v-234h111c164 0 259 -63 259 -256c0 -221 -82 -294 -195 -294c-26 0 -49 2 -67 7l-7 54c19 -6 40 -9 66 -9c91 0 139 55 139 239c0 158 -63 207 -201 207h-105v-361h-64z" />
    <glyph glyph-name="uni0414" unicode="&#x414;" horiz-adv-x="764" 
d="M84 -156h-56v208h76c75 112 94 229 99 415l6 233h400v-648h112v-208h-56v156h-581v-156zM545 52v596h-274l-5 -191c-5 -179 -27 -308 -89 -405h368z" />
    <glyph glyph-name="uni0415" unicode="&#x415;" horiz-adv-x="555" 
d="M495 648h-330v-258h314v-52h-314v-286h330v-52h-394v700h394v-52z" />
    <glyph glyph-name="uni0400" unicode="&#x400;" horiz-adv-x="555" 
d="M495 648h-330v-258h314v-52h-314v-286h330v-52h-394v700h394v-52zM152 879h86l108 -110h-76z" />
    <glyph glyph-name="uni0401" unicode="&#x401;" horiz-adv-x="555" 
d="M495 648h-330v-258h314v-52h-314v-286h330v-52h-394v700h394v-52zM207 765c-27 0 -49 20 -49 47c0 26 22 46 49 46s48 -20 48 -46s-21 -47 -48 -47zM397 765c-27 0 -49 20 -49 47c0 26 22 46 49 46s48 -20 48 -46s-21 -47 -48 -47z" />
    <glyph glyph-name="uni04D6" unicode="&#x4d6;" horiz-adv-x="555" 
d="M495 648h-330v-258h314v-52h-314v-286h330v-52h-394v700h394v-52zM390 879h57c-5 -76 -68 -123 -146 -123c-88 0 -135 49 -140 123h59c4 -45 33 -77 85 -77c47 0 81 32 85 77z" />
    <glyph glyph-name="uni04D8" unicode="&#x4d8;" horiz-adv-x="711" 
d="M126 579l-33 49c69 54 151 82 250 82c200 0 315 -142 315 -358c0 -215 -124 -362 -316 -362c-197 0 -292 136 -292 352c0 5 0 9 1 31h540c-7 170 -94 283 -250 283c-100 0 -164 -33 -215 -77zM344 44c151 0 238 110 247 277h-475c6 -165 68 -277 228 -277z" />
    <glyph glyph-name="uni0416" unicode="&#x416;" horiz-adv-x="910" 
d="M287 369l-248 331h79l222 -309h83v309h64v-309h85l222 309h77l-246 -328l260 -372h-81l-233 338h-84v-338h-64v338h-86l-233 -338h-79z" />
    <glyph glyph-name="uni04DC" unicode="&#x4dc;" horiz-adv-x="910" 
d="M287 369l-248 331h79l222 -309h83v309h64v-309h85l222 309h77l-246 -328l260 -372h-81l-233 338h-84v-338h-64v338h-86l-233 -338h-79zM361 765c-27 0 -49 20 -49 47c0 26 22 46 49 46s48 -20 48 -46s-21 -47 -48 -47zM551 765c-27 0 -49 20 -49 47c0 26 22 46 49 46
s48 -20 48 -46s-21 -47 -48 -47z" />
    <glyph glyph-name="uni04C1" unicode="&#x4c1;" horiz-adv-x="910" 
d="M287 369l-248 331h79l222 -309h83v309h64v-309h85l222 309h77l-246 -328l260 -372h-81l-233 338h-84v-338h-64v338h-86l-233 -338h-79zM541 879h57c-5 -76 -68 -123 -146 -123c-88 0 -135 49 -140 123h59c4 -45 33 -77 85 -77c47 0 81 32 85 77z" />
    <glyph glyph-name="uni0496" unicode="&#x496;" horiz-adv-x="933" 
d="M287 369l-248 331h79l222 -309h83v309h64v-309h85l222 309h77l-246 -328l223 -320h80v-208h-60v156h-64l-233 338h-84v-338h-64v338h-86l-233 -338h-79z" />
    <glyph glyph-name="uni0417" unicode="&#x417;" horiz-adv-x="594" 
d="M35 81l43 52c55 -61 127 -88 207 -88c114 0 180 56 180 145c0 98 -71 143 -191 143h-105v53h102c128 0 177 66 177 138c0 84 -59 131 -171 131c-70 0 -141 -30 -186 -73l-30 49c58 49 135 78 221 78c151 0 233 -73 233 -180c0 -76 -49 -148 -134 -168
c97 -18 151 -77 151 -162c0 -114 -80 -208 -251 -208c-95 0 -181 29 -246 90z" />
    <glyph glyph-name="uni04DE" unicode="&#x4de;" horiz-adv-x="594" 
d="M35 81l43 52c55 -61 127 -88 207 -88c114 0 180 56 180 145c0 98 -71 143 -191 143h-105v53h102c128 0 177 66 177 138c0 84 -59 131 -171 131c-70 0 -141 -30 -186 -73l-30 49c58 49 135 78 221 78c151 0 233 -73 233 -180c0 -76 -49 -148 -134 -168
c97 -18 151 -77 151 -162c0 -114 -80 -208 -251 -208c-95 0 -181 29 -246 90zM188 765c-27 0 -49 20 -49 47c0 26 22 46 49 46s48 -20 48 -46s-21 -47 -48 -47zM378 765c-27 0 -49 20 -49 47c0 26 22 46 49 46s48 -20 48 -46s-21 -47 -48 -47z" />
    <glyph glyph-name="uni0498" unicode="&#x498;" horiz-adv-x="594" 
d="M35 81l43 52c55 -61 127 -88 207 -88c114 0 180 56 180 145c0 98 -71 143 -191 143h-105v53h102c128 0 177 66 177 138c0 84 -59 131 -171 131c-70 0 -141 -30 -186 -73l-30 49c58 49 135 78 221 78c151 0 233 -73 233 -180c0 -76 -49 -148 -134 -168
c97 -18 151 -77 151 -162c0 -107 -71 -197 -221 -207v-148h-56v148c-85 5 -161 33 -220 89z" />
    <glyph glyph-name="uni0418" unicode="&#x418;" horiz-adv-x="700" 
d="M101 700h64v-600l366 600h68v-700h-64v600l-366 -600h-68v700z" />
    <glyph glyph-name="uni0419" unicode="&#x419;" horiz-adv-x="700" 
d="M101 700h64v-600l366 600h68v-700h-64v600l-366 -600h-68v700zM436 879h57c-5 -76 -68 -123 -146 -123c-88 0 -135 49 -140 123h59c4 -45 33 -77 85 -77c47 0 81 32 85 77z" />
    <glyph glyph-name="uni0419.bul" horiz-adv-x="700" 
d="M101 700h64v-600l366 600h68v-700h-64v600l-366 -600h-68v700zM486 831v-54c-77 -36 -195 -36 -272 0v54c87 -36 185 -36 272 0z" />
    <glyph glyph-name="uni04E2" unicode="&#x4e2;" horiz-adv-x="700" 
d="M101 700h64v-600l366 600h68v-700h-64v600l-366 -600h-68v700zM219 777v54h262v-54h-262z" />
    <glyph glyph-name="uni040D" unicode="&#x40d;" horiz-adv-x="700" 
d="M101 700h64v-600l366 600h68v-700h-64v600l-366 -600h-68v700zM218 879h86l108 -110h-76z" />
    <glyph glyph-name="uni04E4" unicode="&#x4e4;" horiz-adv-x="700" 
d="M101 700h64v-600l366 600h68v-700h-64v600l-366 -600h-68v700zM256 765c-27 0 -49 20 -49 47c0 26 22 46 49 46s48 -20 48 -46s-21 -47 -48 -47zM446 765c-27 0 -49 20 -49 47c0 26 22 46 49 46s48 -20 48 -46s-21 -47 -48 -47z" />
    <glyph glyph-name="uni0406" unicode="&#x406;" horiz-adv-x="266" 
d="M165 0h-64v700h64v-700z" />
    <glyph glyph-name="uni0407" unicode="&#x407;" horiz-adv-x="266" 
d="M165 0h-64v700h64v-700zM55 765c-26 0 -47 19 -47 47c0 26 21 46 47 46s46 -20 46 -46s-20 -47 -46 -47zM212 765c-26 0 -47 19 -47 47c0 26 21 46 47 46s46 -20 46 -46s-20 -47 -46 -47z" />
    <glyph glyph-name="uni04C0" unicode="&#x4c0;" horiz-adv-x="266" 
d="M165 0h-64v700h64v-700z" />
    <glyph glyph-name="uni0408" unicode="&#x408;" horiz-adv-x="304" 
d="M203 700v-672c0 -114 -50 -174 -151 -174c-24 0 -50 3 -67 9l-12 56c20 -6 55 -11 77 -11c51 0 89 23 89 125v667h64z" />
    <glyph glyph-name="uni041A" unicode="&#x41a;" horiz-adv-x="598" 
d="M559 700l-256 -328l270 -372h-81l-243 338h-84v-338h-64v700h64v-309h85l232 309h77z" />
    <glyph glyph-name="uni040C" unicode="&#x40c;" horiz-adv-x="598" 
d="M559 700l-256 -328l270 -372h-81l-243 338h-84v-338h-64v700h64v-309h85l232 309h77zM341 769h-76l108 110h86z" />
    <glyph glyph-name="uni04A0" unicode="&#x4a0;" horiz-adv-x="711" 
d="M672 700l-256 -328l270 -372h-81l-243 338h-84v-338h-64v648h-201v52h265v-309h85l232 309h77z" />
    <glyph glyph-name="uni049A" unicode="&#x49a;" horiz-adv-x="611" 
d="M559 700l-256 -328l232 -320h71v-208h-56v156h-58l-243 338h-84v-338h-64v700h64v-309h85l232 309h77z" />
    <glyph glyph-name="uni049C" unicode="&#x49c;" horiz-adv-x="665" 
d="M232 178v160h-67v-338h-64v700h64v-309h67v160h54v-160h54l212 309h74l-236 -328l250 -372h-78l-223 338h-53v-160h-54z" />
    <glyph glyph-name="uni041B" unicode="&#x41b;" horiz-adv-x="694" 
d="M593 700v-700h-64v648h-269l-6 -188c-11 -341 -44 -470 -192 -470c-9 0 -19 1 -25 2l-12 65c11 -2 25 -3 35 -3c84 0 121 80 131 412l7 234h395z" />
    <glyph glyph-name="uni041B.alt" horiz-adv-x="580" 
d="M568 0h-65l-215 621l-213 -621h-63l245 700h66z" />
    <glyph glyph-name="uni0409" unicode="&#x409;" horiz-adv-x="986" 
d="M583 700v-273h111c159 0 248 -75 248 -205c0 -132 -92 -222 -243 -222h-180v648h-259l-6 -188c-11 -341 -44 -470 -192 -470c-9 0 -19 1 -25 2l-12 65c11 -2 25 -3 35 -3c84 0 121 80 131 412l7 234h385zM682 375h-99v-323h121c102 0 172 58 172 164
c0 121 -83 159 -194 159z" />
    <glyph glyph-name="uni041C" unicode="&#x41c;" horiz-adv-x="814" 
d="M713 0h-64v589l-235 -451h-14l-235 451v-589h-64v700h71l237 -454l236 454h68v-700z" />
    <glyph glyph-name="uni041D" unicode="&#x41d;" horiz-adv-x="706" 
d="M605 0h-64v338h-376v-338h-64v700h64v-309h376v309h64v-700z" />
    <glyph glyph-name="uni04A2" unicode="&#x4a2;" horiz-adv-x="760" 
d="M541 700h64v-648h113v-208h-56v156h-121v338h-376v-338h-64v700h64v-309h376v309z" />
    <glyph glyph-name="uni04A4" unicode="&#x4a4;" horiz-adv-x="859" 
d="M531 700h315v-53h-251v-647h-64v338h-366v-338h-64v700h64v-309h366v309z" />
    <glyph glyph-name="uni040A" unicode="&#x40a;" horiz-adv-x="998" 
d="M531 700h64v-273h111c159 0 248 -75 248 -205c0 -132 -92 -222 -243 -222h-180v338h-366v-338h-64v700h64v-309h366v309zM694 375h-99v-323h121c102 0 172 58 172 164c0 121 -83 159 -194 159z" />
    <glyph glyph-name="uni041E" unicode="&#x41e;" horiz-adv-x="794" 
d="M395 -10c-204 0 -342 141 -342 358c0 215 144 362 346 362c204 0 342 -141 342 -358c0 -215 -144 -362 -346 -362zM397 44c170 0 277 123 277 306s-107 306 -277 306s-277 -123 -277 -306s107 -306 277 -306z" />
    <glyph glyph-name="uni04E6" unicode="&#x4e6;" horiz-adv-x="794" 
d="M395 -10c-204 0 -342 141 -342 358c0 215 144 362 346 362c204 0 342 -141 342 -358c0 -215 -144 -362 -346 -362zM397 44c170 0 277 123 277 306s-107 306 -277 306s-277 -123 -277 -306s107 -306 277 -306zM303 765c-27 0 -49 20 -49 47c0 26 22 46 49 46
s48 -20 48 -46s-21 -47 -48 -47zM493 765c-27 0 -49 20 -49 47c0 26 22 46 49 46s48 -20 48 -46s-21 -47 -48 -47z" />
    <glyph glyph-name="uni0472" unicode="&#x472;" horiz-adv-x="794" 
d="M394 -10c-203 0 -341 141 -341 357s144 363 347 363s341 -141 341 -357s-144 -363 -347 -363zM397 44c163 0 268 113 276 285h-553c8 -172 113 -285 277 -285zM397 656c-161 0 -265 -110 -276 -276h552c-11 166 -116 276 -276 276z" />
    <glyph glyph-name="uni04E8" unicode="&#x4e8;" horiz-adv-x="794" 
d="M394 -10c-203 0 -341 141 -341 357s144 363 347 363s341 -141 341 -357s-144 -363 -347 -363zM397 44c163 0 268 113 276 285h-553c8 -172 113 -285 277 -285zM397 656c-161 0 -265 -110 -276 -276h552c-11 166 -116 276 -276 276z" />
    <glyph glyph-name="uni041F" unicode="&#x41f;" horiz-adv-x="692" 
d="M101 700h490v-700h-64v648h-362v-648h-64v700z" />
    <glyph glyph-name="uni0420" unicode="&#x420;" horiz-adv-x="568" 
d="M165 0h-64v700h175c159 0 248 -75 248 -209c0 -128 -92 -218 -243 -218h-116v-273zM165 325h121c102 0 172 58 172 164c0 121 -83 159 -194 159h-99v-323z" />
    <glyph glyph-name="uni0421" unicode="&#x421;" horiz-adv-x="658" 
d="M585 121l38 -46c-63 -57 -144 -85 -241 -85c-194 0 -329 142 -329 358c0 215 149 362 339 362c79 0 144 -14 215 -63l-38 -54c-44 39 -95 63 -179 63c-158 0 -270 -123 -270 -306s112 -306 264 -306c87 0 150 29 201 77z" />
    <glyph glyph-name="uni04AA" unicode="&#x4aa;" horiz-adv-x="658" 
d="M585 121l38 -46c-56 -51 -126 -78 -209 -83v-148h-56v147c-181 11 -305 150 -305 357c0 215 149 362 339 362c79 0 144 -14 215 -63l-38 -54c-44 39 -95 63 -179 63c-158 0 -270 -123 -270 -306s112 -306 264 -306c87 0 150 29 201 77z" />
    <glyph glyph-name="uni0405" unicode="&#x405;" horiz-adv-x="532" 
d="M50 84l43 52c56 -67 116 -92 189 -92c80 0 133 45 133 122c0 167 -335 162 -335 367c0 105 86 177 200 177c72 0 125 -17 187 -67l-35 -54c-45 46 -94 67 -155 67c-77 0 -130 -45 -130 -117c0 -167 335 -162 335 -367c0 -110 -86 -182 -203 -182c-92 0 -167 30 -229 94z
" />
    <glyph glyph-name="uni0422" unicode="&#x422;" horiz-adv-x="528" 
d="M296 0h-64v647h-219v53h502v-53h-219v-647z" />
    <glyph glyph-name="uni0423" unicode="&#x423;" horiz-adv-x="559" 
d="M554 700l-226 -529c-50 -116 -107 -181 -183 -181c-27 0 -50 4 -69 11l-7 54c19 -6 47 -11 75 -11c52 0 86 44 124 127l-245 529h72l205 -459l184 459h70z" />
    <glyph glyph-name="uni040E" unicode="&#x40e;" horiz-adv-x="559" 
d="M554 700l-226 -529c-50 -116 -107 -181 -183 -181c-27 0 -50 4 -69 11l-7 54c19 -6 47 -11 75 -11c52 0 86 44 124 127l-245 529h72l205 -459l184 459h70zM373 879h57c-5 -76 -68 -123 -146 -123c-88 0 -135 49 -140 123h59c4 -45 33 -77 85 -77c47 0 81 32 85 77z" />
    <glyph glyph-name="uni04EE" unicode="&#x4ee;" horiz-adv-x="559" 
d="M554 700l-226 -529c-50 -116 -107 -181 -183 -181c-27 0 -50 4 -69 11l-7 54c19 -6 47 -11 75 -11c52 0 86 44 124 127l-245 529h72l205 -459l184 459h70zM154 777v54h262v-54h-262z" />
    <glyph glyph-name="uni04F2" unicode="&#x4f2;" horiz-adv-x="559" 
d="M554 700l-226 -529c-50 -116 -107 -181 -183 -181c-27 0 -50 4 -69 11l-7 54c19 -6 47 -11 75 -11c52 0 86 44 124 127l-245 529h72l205 -459l184 459h70zM252 869h75l-89 -110h-65zM431 869h76l-108 -110h-66z" />
    <glyph glyph-name="uni04F0" unicode="&#x4f0;" horiz-adv-x="559" 
d="M554 700l-226 -529c-50 -116 -107 -181 -183 -181c-27 0 -50 4 -69 11l-7 54c19 -6 47 -11 75 -11c52 0 86 44 124 127l-245 529h72l205 -459l184 459h70zM196 765c-27 0 -49 20 -49 47c0 26 22 46 49 46s48 -20 48 -46s-21 -47 -48 -47zM386 765c-27 0 -49 20 -49 47
c0 26 22 46 49 46s48 -20 48 -46s-21 -47 -48 -47z" />
    <glyph glyph-name="uni04AE" unicode="&#x4ae;" horiz-adv-x="568" 
d="M316 0h-64v277l-242 423h69l207 -365l207 365h65l-242 -423v-277z" />
    <glyph glyph-name="uni04B0" unicode="&#x4b0;" horiz-adv-x="568" 
d="M558 700l-242 -423v-3h178l-20 -51h-158v-223h-64v223h-162v51h162v3l-242 423h69l207 -365l207 365h65z" />
    <glyph glyph-name="uni0424" unicode="&#x424;" horiz-adv-x="880" 
d="M472 -20h-64v90c-279 9 -365 143 -365 283c0 142 89 291 365 300v67h64v-67c279 -10 365 -143 365 -283c0 -142 -89 -292 -365 -300v-90zM408 122v479c-232 -6 -299 -126 -299 -242c0 -131 77 -230 299 -237zM472 601v-479c232 5 299 126 299 242c0 131 -77 229 -299 237
z" />
    <glyph glyph-name="uni0425" unicode="&#x425;" horiz-adv-x="588" 
d="M569 0h-75l-203 312l-202 -312h-70l236 360l-222 340h73l191 -294l191 294h67l-222 -339z" />
    <glyph glyph-name="uni04B2" unicode="&#x4b2;" horiz-adv-x="613" 
d="M555 700l-222 -339l202 -309h73v-208h-56v156h-58l-203 312l-202 -312h-70l236 360l-222 340h73l191 -294l191 294h67z" />
    <glyph glyph-name="uni0426" unicode="&#x426;" horiz-adv-x="741" 
d="M586 700v-648h113v-208h-56v156h-542v700h64v-648h357v648h64z" />
    <glyph glyph-name="uni040F" unicode="&#x40f;" horiz-adv-x="687" 
d="M586 700v-700h-214v-156h-56v156h-215v700h64v-648h357v648h64z" />
    <glyph glyph-name="uni0427" unicode="&#x427;" horiz-adv-x="615" 
d="M514 700v-700h-64v273h-156c-131 0 -229 47 -229 198v229h64v-204c0 -124 53 -169 171 -169h150v373h64z" />
    <glyph glyph-name="uni04F4" unicode="&#x4f4;" horiz-adv-x="615" 
d="M514 700v-700h-64v273h-156c-131 0 -229 47 -229 198v229h64v-204c0 -124 53 -169 171 -169h150v373h64zM196 765c-27 0 -49 20 -49 47c0 26 22 46 49 46s48 -20 48 -46s-21 -47 -48 -47zM386 765c-27 0 -49 20 -49 47c0 26 22 46 49 46s48 -20 48 -46s-21 -47 -48 -47z
" />
    <glyph glyph-name="uni04B8" unicode="&#x4b8;" horiz-adv-x="625" 
d="M271 128v145c-121 5 -206 54 -206 198v229h64v-206c0 -110 41 -160 142 -166v173h54v-174h135v373h64v-700h-64v273h-135v-145h-54z" />
    <glyph glyph-name="uni04B6" unicode="&#x4b6;" horiz-adv-x="669" 
d="M514 700v-648h113v-208h-56v156h-121v273h-156c-131 0 -229 47 -229 198v229h64v-204c0 -124 53 -169 171 -169h150v373h64z" />
    <glyph glyph-name="uni0428" unicode="&#x428;" horiz-adv-x="1012" 
d="M165 52h309v648h64v-648h309v648h64v-700h-810v700h64v-648z" />
    <glyph glyph-name="uni0429" unicode="&#x429;" horiz-adv-x="1066" 
d="M538 52h309v648h64v-648h113v-208h-60v156h-863v700h64v-648h309v648h64v-648z" />
    <glyph glyph-name="uni042A" unicode="&#x42a;" horiz-adv-x="687" 
d="M13 700h265v-273h117c159 0 248 -75 248 -205c0 -132 -92 -222 -243 -222h-186v648h-201v52zM383 375h-105v-323h127c102 0 172 58 172 164c0 121 -83 159 -194 159z" />
    <glyph glyph-name="uni042B" unicode="&#x42b;" horiz-adv-x="806" 
d="M101 700h64v-273h111c159 0 248 -75 248 -205c0 -132 -92 -222 -243 -222h-180v700zM641 0v700h64v-700h-64zM165 52h121c102 0 172 58 172 164c0 121 -83 159 -194 159h-99v-323z" />
    <glyph glyph-name="uni04F8" unicode="&#x4f8;" horiz-adv-x="806" 
d="M101 700h64v-273h111c159 0 248 -75 248 -205c0 -132 -92 -222 -243 -222h-180v700zM641 0v700h64v-700h-64zM165 52h121c102 0 172 58 172 164c0 121 -83 159 -194 159h-99v-323zM314 765c-27 0 -49 20 -49 47c0 26 22 46 49 46s48 -20 48 -46s-21 -47 -48 -47zM504 765
c-27 0 -49 20 -49 47c0 26 22 46 49 46s48 -20 48 -46s-21 -47 -48 -47z" />
    <glyph glyph-name="uni042C" unicode="&#x42c;" horiz-adv-x="578" 
d="M101 700h64v-273h121c159 0 248 -75 248 -205c0 -132 -92 -222 -243 -222h-190v700zM274 375h-109v-323h131c102 0 172 58 172 164c0 121 -83 159 -194 159z" />
    <glyph glyph-name="uni0402" unicode="&#x402;" horiz-adv-x="730" 
d="M232 0v647h-219v53h502v-53h-219v-234h131c159 0 248 -80 248 -206c0 -138 -94 -216 -204 -216c-26 0 -49 2 -67 7l-7 54c19 -6 40 -9 66 -9c83 0 146 52 146 158c0 119 -83 160 -194 160h-119v-361h-64z" />
    <glyph glyph-name="uni040B" unicode="&#x40b;" horiz-adv-x="741" 
d="M232 0v647h-219v53h502v-53h-219v-234h141c131 0 229 -47 229 -198v-215h-64v192c0 124 -53 169 -171 169h-135v-361h-64z" />
    <glyph glyph-name="uni04BA" unicode="&#x4ba;" horiz-adv-x="625" 
d="M101 0v700h64v-273h159c131 0 226 -47 226 -198v-229h-64v206c0 118 -47 167 -165 167h-156v-373h-64z" />
    <glyph glyph-name="uni042D" unicode="&#x42d;" horiz-adv-x="660" 
d="M190 338l-21 53h369c-15 160 -119 265 -273 265c-71 0 -137 -20 -191 -61l-21 53c60 40 130 62 216 62c200 0 338 -142 338 -357c0 -216 -143 -363 -346 -363c-85 0 -168 25 -226 75l43 52c50 -49 114 -73 186 -73c166 0 271 117 276 294h-350z" />
    <glyph glyph-name="uni0404" unicode="&#x404;" horiz-adv-x="658" 
d="M478 391l-21 -53h-337c4 -177 110 -294 272 -294c79 0 145 25 195 75l36 -44c-63 -60 -143 -85 -235 -85c-197 0 -335 142 -335 357c0 216 143 363 346 363c84 0 165 -27 210 -62l-30 -54c-51 42 -115 62 -183 62c-157 0 -259 -105 -274 -265h356z" />
    <glyph glyph-name="uni042E" unicode="&#x42e;" horiz-adv-x="1038" 
d="M668 -10c-189 0 -307 135 -311 344h-192v-334h-64v700h64v-313h193c15 194 135 323 316 323c193 0 311 -141 311 -357s-124 -363 -317 -363zM671 44c160 0 247 123 247 306s-87 306 -247 306s-247 -123 -247 -306s87 -306 247 -306z" />
    <glyph glyph-name="uni042F" unicode="&#x42f;" horiz-adv-x="582" 
d="M481 0h-64v295h-96l-215 -295h-78l220 300c-105 15 -190 74 -190 194c0 129 91 206 261 206h162v-700zM124 498c0 -105 80 -151 192 -151h101v301h-99c-101 0 -194 -35 -194 -150z" />
    <glyph glyph-name="uni0430" unicode="&#x430;" horiz-adv-x="570" 
d="M555 47v-48c-18 -7 -36 -9 -50 -9c-68 0 -96 39 -99 90c-38 -59 -103 -90 -170 -90c-123 0 -181 63 -181 161c0 99 73 166 198 166c53 0 112 -14 150 -37v62c0 104 -47 137 -136 137c-57 0 -113 -20 -158 -53l-25 46c55 38 119 58 189 58c124 0 193 -56 193 -182v-240
c0 -40 11 -67 50 -67c15 0 27 2 39 6zM403 209v18c-45 27 -105 39 -151 39c-84 0 -132 -39 -132 -111c0 -76 43 -114 122 -114c115 0 161 103 161 168z" />
    <glyph glyph-name="uni04D3" unicode="&#x4d3;" horiz-adv-x="570" 
d="M555 47v-48c-18 -7 -36 -9 -50 -9c-68 0 -96 39 -99 90c-38 -59 -103 -90 -170 -90c-123 0 -181 63 -181 161c0 99 73 166 198 166c53 0 112 -14 150 -37v62c0 104 -47 137 -136 137c-57 0 -113 -20 -158 -53l-25 46c55 38 119 58 189 58c124 0 193 -56 193 -182v-240
c0 -40 11 -67 50 -67c15 0 27 2 39 6zM403 209v18c-45 27 -105 39 -151 39c-84 0 -132 -39 -132 -111c0 -76 43 -114 122 -114c115 0 161 103 161 168zM187 621c-26 0 -47 19 -47 47c0 26 21 46 47 46s46 -20 46 -46s-20 -47 -46 -47zM354 621c-26 0 -47 19 -47 47
c0 26 21 46 47 46s46 -20 46 -46s-20 -47 -46 -47z" />
    <glyph glyph-name="uni04D1" unicode="&#x4d1;" horiz-adv-x="570" 
d="M555 47v-48c-18 -7 -36 -9 -50 -9c-68 0 -96 39 -99 90c-38 -59 -103 -90 -170 -90c-123 0 -181 63 -181 161c0 99 73 166 198 166c53 0 112 -14 150 -37v62c0 104 -47 137 -136 137c-57 0 -113 -20 -158 -53l-25 46c55 38 119 58 189 58c124 0 193 -56 193 -182v-240
c0 -40 11 -67 50 -67c15 0 27 2 39 6zM403 209v18c-45 27 -105 39 -151 39c-84 0 -132 -39 -132 -111c0 -76 43 -114 122 -114c115 0 161 103 161 168zM359 741h57c-11 -84 -66 -132 -148 -132s-131 48 -142 132h59c4 -45 34 -87 86 -87s84 42 88 87z" />
    <glyph glyph-name="uni04D5" unicode="&#x4d5;" horiz-adv-x="916" 
d="M809 119l35 -38c-50 -54 -118 -91 -206 -91c-98 0 -169 42 -209 126c-32 -70 -96 -126 -193 -126c-123 0 -181 63 -181 161c0 99 73 166 198 166c53 0 112 -14 150 -37v62c0 104 -47 137 -136 137c-57 0 -113 -19 -158 -52l-25 46c55 38 119 57 189 57
c84 0 152 -27 178 -96c50 71 117 96 188 96c146 0 227 -105 227 -259v-23h-400c7 -134 73 -207 176 -207c67 0 116 23 167 78zM403 209v18c-45 27 -105 39 -151 39c-84 0 -132 -39 -132 -111c0 -76 43 -114 122 -114c115 0 161 103 161 168zM467 299h334
c-7 107 -67 180 -165 180c-94 0 -157 -69 -169 -180z" />
    <glyph glyph-name="uni0431" unicode="&#x431;" horiz-adv-x="581" 
d="M484 759v-64l-133 -22c-159 -26 -210 -84 -227 -274c33 81 102 121 180 121c146 0 222 -107 222 -263c0 -146 -88 -267 -231 -267c-160 0 -225 120 -225 306c0 273 49 397 282 439zM298 41c98 0 163 77 163 214c0 130 -56 214 -160 214c-94 0 -166 -73 -166 -211v-6
c0 -137 67 -211 163 -211z" />
    <glyph glyph-name="uni0431.SRB" horiz-adv-x="566" 
d="M463 750v-62h-192c-93 0 -119 -32 -119 -85c0 -31 18 -72 44 -102c27 12 57 19 91 19c146 0 224 -107 224 -263c0 -146 -88 -267 -231 -267c-147 0 -225 107 -225 263c0 90 34 170 94 219c-36 37 -62 77 -62 132c0 88 56 146 186 146h190zM283 469
c-104 0 -163 -84 -163 -214s59 -214 163 -214s163 84 163 214s-59 214 -163 214z" />
    <glyph glyph-name="uni0432" unicode="&#x432;" horiz-adv-x="553" 
d="M101 0v520h177c129 0 195 -53 195 -137c0 -48 -33 -92 -98 -111v-2c80 -17 118 -55 118 -121c0 -88 -71 -149 -197 -149h-195zM281 241h-117v-191h126c95 0 138 37 138 98c0 62 -43 93 -147 93zM271 470h-107v-179h112c79 0 132 29 132 89c0 70 -53 90 -137 90z" />
    <glyph glyph-name="uni0432.bul" horiz-adv-x="567" 
d="M469 578c0 -88 -50 -146 -115 -172c98 -25 158 -98 158 -197c0 -110 -70 -219 -219 -219c-128 0 -198 66 -198 188v362c0 123 60 219 193 219c110 0 181 -74 181 -181zM158 375v-196c0 -98 57 -138 137 -138c105 0 152 84 152 167c0 86 -59 167 -175 167h-114zM158 542
v-117h107c89 3 139 71 139 151c0 70 -40 132 -118 132c-80 0 -128 -48 -128 -166z" />
    <glyph glyph-name="uni0433" unicode="&#x433;" horiz-adv-x="400" 
d="M101 520h279v-52h-216v-468h-63v520z" />
    <glyph glyph-name="uni0433.bul" horiz-adv-x="470" 
d="M392 104l28 -48c-48 -42 -118 -66 -190 -66c-108 0 -180 47 -180 138c0 176 287 133 287 267c0 60 -49 84 -107 84c-50 0 -106 -20 -139 -49l-24 46c42 33 105 54 166 54c108 0 169 -49 169 -132c0 -175 -287 -133 -287 -267c0 -66 59 -90 118 -90c57 0 122 26 159 63z
" />
    <glyph glyph-name="uni0453" unicode="&#x453;" horiz-adv-x="400" 
d="M101 520h279v-52h-216v-468h-63v520zM307 750h72l-112 -150h-62z" />
    <glyph glyph-name="uni0491" unicode="&#x491;" horiz-adv-x="400" 
d="M101 520h220v143h59v-195h-216v-468h-63v520z" />
    <glyph glyph-name="uni0493" unicode="&#x493;" horiz-adv-x="410" 
d="M111 520h279v-52h-216v-176h158l-20 -50h-138v-242h-63v242h-82v50h82v228z" />
    <glyph glyph-name="uni0495" unicode="&#x495;" horiz-adv-x="531" 
d="M164 0h-63v520h319v-52h-256v-184c26 7 71 16 115 16c136 0 202 -53 202 -251c0 -168 -54 -258 -160 -258c-22 0 -46 3 -63 9l-7 54c16 -6 42 -11 66 -11c68 0 101 63 101 202c0 167 -48 205 -141 205c-43 0 -90 -8 -113 -16v-234z" />
    <glyph glyph-name="uni0434" unicode="&#x434;" horiz-adv-x="630" 
d="M69 -143h-54v193h67c55 82 78 184 82 313l5 157h341v-470h100v-193h-54v143h-487v-143zM447 50v420h-220l-4 -108c-5 -132 -24 -233 -73 -312h297z" />
    <glyph glyph-name="uni0434.bul" 
d="M446 19v65c-36 -57 -93 -94 -167 -94c-138 0 -224 106 -224 267c0 151 83 273 228 273c68 0 130 -34 163 -90v80h63v-507c0 -142 -83 -222 -217 -222c-78 0 -136 17 -201 63l33 50c65 -47 110 -62 173 -62c76 0 149 39 149 177zM446 257v6c0 167 -91 216 -165 216
c-98 0 -161 -87 -161 -220s64 -218 161 -218c93 0 165 72 165 216z" />
    <glyph glyph-name="uni0435" unicode="&#x435;" horiz-adv-x="565" 
d="M458 119l35 -38c-50 -54 -118 -91 -206 -91c-154 0 -237 109 -237 268c0 142 79 272 238 272c146 0 227 -105 227 -259v-23h-400c7 -134 73 -207 176 -207c67 0 116 23 167 78zM116 299h334c-7 107 -67 180 -165 180c-94 0 -157 -69 -169 -180z" />
    <glyph glyph-name="uni0450" unicode="&#x450;" horiz-adv-x="565" 
d="M458 119l35 -38c-50 -54 -118 -91 -206 -91c-154 0 -237 109 -237 268c0 142 79 272 238 272c146 0 227 -105 227 -259v-23h-400c7 -134 73 -207 176 -207c67 0 116 23 167 78zM116 299h334c-7 107 -67 180 -165 180c-94 0 -157 -69 -169 -180zM149 750h72l102 -150h-62z
" />
    <glyph glyph-name="uni0451" unicode="&#x451;" horiz-adv-x="565" 
d="M458 119l35 -38c-50 -54 -118 -91 -206 -91c-154 0 -237 109 -237 268c0 142 79 272 238 272c146 0 227 -105 227 -259v-23h-400c7 -134 73 -207 176 -207c67 0 116 23 167 78zM116 299h334c-7 107 -67 180 -165 180c-94 0 -157 -69 -169 -180zM202 621
c-26 0 -47 19 -47 47c0 26 21 46 47 46s46 -20 46 -46s-20 -47 -46 -47zM369 621c-26 0 -47 19 -47 47c0 26 21 46 47 46s46 -20 46 -46s-20 -47 -46 -47z" />
    <glyph glyph-name="uni04D7" unicode="&#x4d7;" horiz-adv-x="565" 
d="M458 119l35 -38c-50 -54 -118 -91 -206 -91c-154 0 -237 109 -237 268c0 142 79 272 238 272c146 0 227 -105 227 -259v-23h-400c7 -134 73 -207 176 -207c67 0 116 23 167 78zM116 299h334c-7 107 -67 180 -165 180c-94 0 -157 -69 -169 -180zM373 741h57
c-11 -84 -66 -132 -148 -132s-131 48 -142 132h59c4 -45 34 -87 86 -87s84 42 88 87z" />
    <glyph glyph-name="uni04D9" unicode="&#x4d9;" horiz-adv-x="565" 
d="M50 272h400c-7 134 -73 207 -176 207c-67 0 -116 -23 -167 -78l-35 38c50 54 118 91 206 91c154 0 237 -109 237 -268c0 -142 -79 -272 -238 -272c-146 0 -227 105 -227 259v23zM449 221h-334c7 -107 67 -180 165 -180c94 0 157 69 169 180z" />
    <glyph glyph-name="uni0436" unicode="&#x436;" horiz-adv-x="809" 
d="M303 245l-199 -245h-74l226 275l-208 245h76l182 -226h67v226h63v-226h69l182 226h74l-207 -243l225 -277h-76l-198 245h-69v-245h-63v245h-70z" />
    <glyph glyph-name="uni0436.bul" horiz-adv-x="803" 
d="M297 255l-193 -255h-74l220 284l-202 236h76l176 -216h70v446h63v-446h72l176 216h74l-201 -234l219 -286h-76l-192 255h-72v-255h-63v255h-73z" />
    <glyph glyph-name="uni04DD" unicode="&#x4dd;" horiz-adv-x="809" 
d="M303 245l-199 -245h-74l226 275l-208 245h76l182 -226h67v226h63v-226h69l182 226h74l-207 -243l225 -277h-76l-198 245h-69v-245h-63v245h-70zM302 621c-26 0 -47 19 -47 47c0 26 21 46 47 46s46 -20 46 -46s-20 -47 -46 -47zM469 621c-26 0 -47 19 -47 47
c0 26 21 46 47 46s46 -20 46 -46s-20 -47 -46 -47z" />
    <glyph glyph-name="uni04C2" unicode="&#x4c2;" horiz-adv-x="809" 
d="M303 245l-199 -245h-74l226 275l-208 245h76l182 -226h67v226h63v-226h69l182 226h74l-207 -243l225 -277h-76l-198 245h-69v-245h-63v245h-70zM492 741h57c-11 -84 -66 -132 -148 -132s-131 48 -142 132h59c4 -45 34 -87 86 -87s84 42 88 87z" />
    <glyph glyph-name="uni0497" unicode="&#x497;" horiz-adv-x="809" 
d="M303 245l-199 -245h-74l226 275l-208 245h76l182 -226h67v226h63v-226h69l182 226h74l-207 -243l184 -227h64v-193h-59v143h-40l-198 245h-69v-245h-63v245h-70z" />
    <glyph glyph-name="uni0437" unicode="&#x437;" horiz-adv-x="504" 
d="M35 52l33 52c45 -41 97 -63 170 -63c91 0 141 35 141 103c0 63 -47 98 -141 98h-85l-20 51h105c74 0 121 34 121 94c0 56 -41 92 -127 92c-60 0 -117 -18 -161 -51l-19 47c50 35 112 55 186 55c103 0 186 -47 186 -138c0 -63 -39 -102 -88 -116v-2
c69 -16 108 -65 108 -125c0 -92 -70 -159 -211 -159c-76 0 -149 21 -198 62z" />
    <glyph glyph-name="uni04DF" unicode="&#x4df;" horiz-adv-x="504" 
d="M35 52l33 52c45 -41 97 -63 170 -63c91 0 141 35 141 103c0 63 -47 98 -141 98h-85l-20 51h105c74 0 121 34 121 94c0 56 -41 92 -127 92c-60 0 -117 -18 -161 -51l-19 47c50 35 112 55 186 55c103 0 186 -47 186 -138c0 -63 -39 -102 -88 -116v-2
c69 -16 108 -65 108 -125c0 -92 -70 -159 -211 -159c-76 0 -149 21 -198 62zM150 621c-26 0 -47 19 -47 47c0 26 21 46 47 46s46 -20 46 -46s-20 -47 -46 -47zM317 621c-26 0 -47 19 -47 47c0 26 21 46 47 46s46 -20 46 -46s-20 -47 -46 -47z" />
    <glyph glyph-name="uni0499" unicode="&#x499;" horiz-adv-x="504" 
d="M35 52l33 52c45 -41 97 -63 170 -63c91 0 141 35 141 103c0 63 -47 98 -141 98h-85l-20 51h105c74 0 121 34 121 94c0 56 -41 92 -127 92c-60 0 -117 -18 -161 -51l-19 47c50 35 112 55 186 55c103 0 186 -47 186 -138c0 -63 -39 -102 -88 -116v-2
c69 -16 108 -65 108 -125c0 -84 -58 -146 -173 -157v-135h-54v133c-70 3 -137 24 -182 62z" />
    <glyph glyph-name="uni0438" unicode="&#x438;" horiz-adv-x="615" 
d="M514 0h-63v449l-287 -449h-63v520h63v-429l274 429h76v-520z" />
    <glyph glyph-name="uni0438.bul" horiz-adv-x="606" 
d="M505 0h-63v85c-34 -59 -94 -95 -163 -95c-114 0 -183 77 -183 207v323h63v-310c0 -111 47 -169 124 -169c87 0 159 72 159 216v263h63v-520z" />
    <glyph glyph-name="uni0439" unicode="&#x439;" horiz-adv-x="615" 
d="M514 0h-63v449l-287 -449h-63v520h63v-429l274 429h76v-520zM395 741h57c-11 -84 -66 -132 -148 -132s-131 48 -142 132h59c4 -45 34 -87 86 -87s84 42 88 87z" />
    <glyph glyph-name="uni0439.bul" horiz-adv-x="606" 
d="M505 0h-63v85c-34 -59 -94 -95 -163 -95c-114 0 -183 77 -183 207v323h63v-310c0 -111 47 -169 124 -169c87 0 159 72 159 216v263h63v-520zM427 686v-48c-74 -39 -178 -39 -252 0v48c74 -39 178 -39 252 0z" />
    <glyph glyph-name="uni04E3" unicode="&#x4e3;" horiz-adv-x="615" 
d="M514 0h-63v449l-287 -449h-63v520h63v-429l274 429h76v-520zM181 634v48h252v-48h-252z" />
    <glyph glyph-name="uni045D" unicode="&#x45d;" horiz-adv-x="615" 
d="M514 0h-63v449l-287 -449h-63v520h63v-429l274 429h76v-520zM181 750h72l102 -150h-62z" />
    <glyph glyph-name="uni045D.bul" horiz-adv-x="606" 
d="M505 0h-63v85c-34 -59 -94 -95 -163 -95c-114 0 -183 77 -183 207v323h63v-310c0 -111 47 -169 124 -169c87 0 159 72 159 216v263h63v-520zM152 750h72l102 -150h-62z" />
    <glyph glyph-name="uni04E5" unicode="&#x4e5;" horiz-adv-x="615" 
d="M514 0h-63v449l-287 -449h-63v520h63v-429l274 429h76v-520zM224 621c-26 0 -47 19 -47 47c0 26 21 46 47 46s46 -20 46 -46s-20 -47 -46 -47zM391 621c-26 0 -47 19 -47 47c0 26 21 46 47 46s46 -20 46 -46s-20 -47 -46 -47z" />
    <glyph glyph-name="uni0456" unicode="&#x456;" horiz-adv-x="265" 
d="M133 620c-27 0 -48 21 -48 48s21 48 48 48s48 -21 48 -48s-21 -48 -48 -48zM164 0h-63v520h63v-520z" />
    <glyph glyph-name="uni0457" unicode="&#x457;" horiz-adv-x="265" 
d="M164 0h-63v520h63v-520zM54 621c-26 0 -47 19 -47 47c0 26 21 46 47 46s46 -20 46 -46s-20 -47 -46 -47zM211 621c-26 0 -47 19 -47 47c0 26 21 46 47 46s46 -20 46 -46s-20 -47 -46 -47z" />
    <glyph glyph-name="uni04CF" unicode="&#x4cf;" horiz-adv-x="265" 
d="M164 0h-63v750h63v-750z" />
    <glyph glyph-name="uni0458" unicode="&#x458;" horiz-adv-x="265" 
d="M133 620c-27 0 -48 21 -48 48s21 48 48 48s48 -21 48 -48s-21 -48 -48 -48zM-19 -200l-7 54c16 -6 37 -11 56 -11c52 0 71 30 71 134v543h63v-550c0 -120 -42 -179 -126 -179c-23 0 -40 3 -57 9z" />
    <glyph glyph-name="uni043A" unicode="&#x43a;" horiz-adv-x="537" 
d="M431 0l-198 245h-69v-245h-63v520h63v-225h69l182 225h74l-207 -243l225 -277h-76z" />
    <glyph glyph-name="uni043A.bul" horiz-adv-x="537" 
d="M431 0l-198 255h-69v-255h-63v750h63v-445h69l182 215h74l-207 -233l225 -287h-76z" />
    <glyph glyph-name="uni045C" unicode="&#x45c;" horiz-adv-x="537" 
d="M431 0l-198 245h-69v-245h-63v520h63v-225h69l182 225h74l-207 -243l225 -277h-76zM353 750h72l-112 -150h-62z" />
    <glyph glyph-name="uni04A1" unicode="&#x4a1;" horiz-adv-x="605" 
d="M499 0l-198 245h-69v-245h-63v470h-149v50h212v-225h69l182 225h74l-207 -243l225 -277h-76z" />
    <glyph glyph-name="uni049B" unicode="&#x49b;" horiz-adv-x="537" 
d="M431 0l-198 245h-69v-245h-63v520h63v-225h69l182 225h74l-207 -243l184 -227h64v-193h-54v143h-45z" />
    <glyph glyph-name="uni049D" unicode="&#x49d;" horiz-adv-x="589" 
d="M230 139v107h-66v-246h-63v520h63v-226h66v118h50v-118h44l148 226h69l-165 -243l183 -277h-71l-164 246h-44v-107h-50z" />
    <glyph glyph-name="uni043B" unicode="&#x43b;" horiz-adv-x="589" 
d="M488 0h-63v470h-211l-3 -97c-8 -271 -41 -383 -164 -383c-6 0 -16 0 -21 1l-11 60c13 -1 17 -1 23 -1c78 0 106 65 114 335l4 135h332v-520z" />
    <glyph glyph-name="uni043B.alt" horiz-adv-x="501" 
d="M482 0h-66l-168 449l-166 -449h-63l198 520h67z" />
    <glyph glyph-name="uni0459" unicode="&#x459;" horiz-adv-x="832" 
d="M478 520v-181h110c147 0 209 -78 209 -168s-69 -171 -215 -171h-167v470h-201l-3 -97c-8 -271 -41 -383 -164 -383c-6 0 -16 0 -21 1l-11 60c13 -1 17 -1 23 -1c78 0 106 65 114 335l4 135h322zM585 289h-107v-239h107c100 0 147 49 147 120s-47 119 -147 119z" />
    <glyph glyph-name="uni043C" unicode="&#x43c;" horiz-adv-x="732" 
d="M164 422v-422h-63v520h67l200 -289l200 289h63v-520h-63v422l-195 -280h-14z" />
    <glyph glyph-name="uni043D" unicode="&#x43d;" horiz-adv-x="605" 
d="M504 0h-63v245h-277v-245h-63v520h63v-225h277v225h63v-520z" />
    <glyph glyph-name="uni04A3" unicode="&#x4a3;" horiz-adv-x="619" 
d="M504 520v-470h100v-193h-54v143h-109v245h-277v-245h-63v520h63v-225h277v225h63z" />
    <glyph glyph-name="uni04A5" unicode="&#x4a5;" horiz-adv-x="703" 
d="M494 0h-63v245h-267v-245h-63v520h63v-225h267v225h252v-52h-189v-468z" />
    <glyph glyph-name="uni045A" unicode="&#x45a;" horiz-adv-x="848" 
d="M494 520v-181h110c147 0 209 -78 209 -168s-69 -171 -215 -171h-167v245h-267v-245h-63v520h63v-225h267v225h63zM601 289h-107v-239h105c102 0 149 49 149 120s-47 119 -147 119z" />
    <glyph glyph-name="uni043E" unicode="&#x43e;" horiz-adv-x="590" 
d="M293 -10c-155 0 -243 112 -243 268c0 138 77 272 247 272c155 0 243 -112 243 -267c0 -139 -77 -273 -247 -273zM295 41c116 0 180 93 180 220c0 119 -60 218 -180 218c-116 0 -180 -93 -180 -219c0 -120 60 -219 180 -219z" />
    <glyph glyph-name="uni04E7" unicode="&#x4e7;" horiz-adv-x="590" 
d="M293 -10c-155 0 -243 112 -243 268c0 138 77 272 247 272c155 0 243 -112 243 -267c0 -139 -77 -273 -247 -273zM295 41c116 0 180 93 180 220c0 119 -60 218 -180 218c-116 0 -180 -93 -180 -219c0 -120 60 -219 180 -219zM212 621c-26 0 -47 19 -47 47
c0 26 21 46 47 46s46 -20 46 -46s-20 -47 -46 -47zM379 621c-26 0 -47 19 -47 47c0 26 21 46 47 46s46 -20 46 -46s-20 -47 -46 -47z" />
    <glyph glyph-name="uni0473" unicode="&#x473;" horiz-adv-x="590" 
d="M293 -10c-155 0 -243 112 -243 268c0 138 77 272 247 272c155 0 243 -112 243 -267c0 -139 -77 -273 -247 -273zM295 41c109 0 173 83 179 199h-359c7 -111 66 -199 180 -199zM295 479c-107 0 -170 -79 -179 -189h357c-9 105 -68 189 -178 189z" />
    <glyph glyph-name="uni04E9" unicode="&#x4e9;" horiz-adv-x="590" 
d="M293 -10c-155 0 -243 112 -243 268c0 138 77 272 247 272c155 0 243 -112 243 -267c0 -139 -77 -273 -247 -273zM295 41c109 0 173 83 179 199h-359c7 -111 66 -199 180 -199zM295 479c-107 0 -170 -79 -179 -189h357c-9 105 -68 189 -178 189z" />
    <glyph glyph-name="uni043F" unicode="&#x43f;" horiz-adv-x="595" 
d="M494 0h-63v470h-267v-470h-63v520h393v-520z" />
    <glyph glyph-name="uni043F.bul" 
d="M514 0h-63v310c0 111 -47 169 -126 169c-89 0 -161 -72 -161 -216v-263h-63v520h63v-85c34 59 94 95 165 95c116 0 185 -77 185 -207v-323z" />
    <glyph glyph-name="uni0440" unicode="&#x440;" 
d="M164 -200h-63v720h63v-84c36 57 93 94 167 94c138 0 224 -106 224 -267c0 -151 -83 -273 -228 -273c-68 0 -130 34 -163 90v-280zM164 263v-6c0 -167 91 -216 165 -216c98 0 161 87 161 220s-64 218 -161 218c-93 0 -165 -72 -165 -216z" />
    <glyph glyph-name="uni0441" unicode="&#x441;" horiz-adv-x="510" 
d="M437 118l40 -37c-47 -57 -111 -90 -191 -90c-150 0 -236 114 -236 267c0 142 82 271 241 271c72 0 123 -21 169 -62l-34 -49c-38 40 -79 60 -137 60c-106 0 -174 -88 -174 -218c0 -120 61 -218 173 -218c64 0 112 26 149 76z" />
    <glyph glyph-name="uni04AB" unicode="&#x4ab;" horiz-adv-x="510" 
d="M437 118l40 -37c-41 -50 -96 -81 -162 -88v-136h-54v136c-135 11 -211 121 -211 265c0 142 82 271 241 271c72 0 123 -21 169 -62l-34 -49c-38 40 -79 60 -137 60c-106 0 -174 -88 -174 -218c0 -120 61 -218 173 -218c64 0 112 26 149 76z" />
    <glyph glyph-name="uni0455" unicode="&#x455;" horiz-adv-x="483" 
d="M50 54l33 55c45 -42 101 -68 168 -68c81 0 118 40 118 89c0 136 -300 79 -300 260c0 72 60 140 182 140c63 0 118 -14 168 -45l-28 -54c-45 34 -92 48 -143 48c-81 0 -115 -38 -115 -83c0 -134 300 -74 300 -260c0 -76 -62 -146 -185 -146c-71 0 -140 20 -198 64z" />
    <glyph glyph-name="uni0442" unicode="&#x442;" horiz-adv-x="427" 
d="M20 520h387v-52h-162v-468h-63v468h-162v52z" />
    <glyph glyph-name="uni0442.bul" horiz-adv-x="948" 
d="M852 0h-63v310c0 111 -46 169 -123 169c-88 0 -158 -72 -158 -216v-263h-63v310c0 111 -46 169 -123 169c-88 0 -158 -72 -158 -216v-263h-63v520h63v-85c33 59 92 95 162 95c84 0 140 -41 167 -112c32 59 92 112 177 112c114 0 182 -77 182 -207v-323z" />
    <glyph glyph-name="uni0443" unicode="&#x443;" horiz-adv-x="501" 
d="M419 520h63l-224 -589c-41 -109 -79 -140 -159 -140c-23 0 -44 2 -68 11l-7 54c22 -10 49 -13 74 -13c52 0 76 24 106 105l16 44l-201 528h66l168 -449z" />
    <glyph glyph-name="uni045E" unicode="&#x45e;" horiz-adv-x="501" 
d="M419 520h63l-224 -589c-41 -109 -79 -140 -159 -140c-23 0 -44 2 -68 11l-7 54c22 -10 49 -13 74 -13c52 0 76 24 106 105l16 44l-201 528h66l168 -449zM338 741h57c-11 -84 -66 -132 -148 -132s-131 48 -142 132h59c4 -45 34 -87 86 -87s84 42 88 87z" />
    <glyph glyph-name="uni04EF" unicode="&#x4ef;" horiz-adv-x="501" 
d="M419 520h63l-224 -589c-41 -109 -79 -140 -159 -140c-23 0 -44 2 -68 11l-7 54c22 -10 49 -13 74 -13c52 0 76 24 106 105l16 44l-201 528h66l168 -449zM124 634v48h252v-48h-252z" />
    <glyph glyph-name="uni04F3" unicode="&#x4f3;" horiz-adv-x="501" 
d="M419 520h63l-224 -589c-41 -109 -79 -140 -159 -140c-23 0 -44 2 -68 11l-7 54c22 -10 49 -13 74 -13c52 0 76 24 106 105l16 44l-201 528h66l168 -449zM221 740h71l-93 -150h-61zM394 740h72l-112 -150h-62z" />
    <glyph glyph-name="uni04F1" unicode="&#x4f1;" horiz-adv-x="501" 
d="M419 520h63l-224 -589c-41 -109 -79 -140 -159 -140c-23 0 -44 2 -68 11l-7 54c22 -10 49 -13 74 -13c52 0 76 24 106 105l16 44l-201 528h66l168 -449zM167 621c-26 0 -47 19 -47 47c0 26 21 46 47 46s46 -20 46 -46s-20 -47 -46 -47zM334 621c-26 0 -47 19 -47 47
c0 26 21 46 47 46s46 -20 46 -46s-20 -47 -46 -47z" />
    <glyph glyph-name="uni04AF" unicode="&#x4af;" horiz-adv-x="501" 
d="M282 -200h-63v200l-200 520h66l168 -444l166 444h63l-200 -520v-200z" />
    <glyph glyph-name="uni04B1" unicode="&#x4b1;" horiz-adv-x="501" 
d="M282 -200h-63v200h-135v50h116l-181 470h66l168 -444l166 444h63l-181 -470h122l-20 -50h-121v-200z" />
    <glyph glyph-name="uni0444" unicode="&#x444;" horiz-adv-x="739" 
d="M401 -7v-193h-63v193c-182 13 -283 120 -283 264s101 257 283 270v223h63v-223c182 -13 283 -120 283 -264s-101 -257 -283 -270zM338 43v434c-107 -9 -218 -63 -218 -217s111 -208 218 -217zM401 477v-434c107 9 218 63 218 217s-111 208 -218 217z" />
    <glyph glyph-name="uni0445" unicode="&#x445;" horiz-adv-x="541" 
d="M509 0h-79l-161 228l-161 -228h-76l198 267l-185 253h77l150 -212l150 212h74l-185 -251z" />
    <glyph glyph-name="uni04B3" unicode="&#x4b3;" horiz-adv-x="541" 
d="M496 520l-185 -251l161 -219h63v-193h-54v143h-51l-161 228l-161 -228h-76l198 267l-185 253h77l150 -212l150 212h74z" />
    <glyph glyph-name="uni0446" unicode="&#x446;" horiz-adv-x="604" 
d="M535 0h-434v520h63v-470h262v470h63v-470h100v-193h-54v143z" />
    <glyph glyph-name="uni0446.bul" horiz-adv-x="620" 
d="M551 -143v142h-3c-62 0 -101 27 -106 86c-34 -59 -94 -95 -163 -95c-114 0 -183 77 -183 207v323h63v-310c0 -111 47 -169 124 -169c87 0 159 72 159 216v263h63v-412c0 -42 16 -58 65 -58h35v-193h-54z" />
    <glyph glyph-name="uni045F" unicode="&#x45f;" horiz-adv-x="590" 
d="M269 0h-168v520h63v-470h262v470h63v-520h-166v-143h-54v143z" />
    <glyph glyph-name="uni0447" unicode="&#x447;" horiz-adv-x="538" 
d="M437 520v-520h-63v206c-26 -7 -75 -16 -125 -16c-109 0 -192 40 -192 158v172h63v-170c0 -70 43 -110 131 -110c46 0 100 8 123 16v264h63z" />
    <glyph glyph-name="uni04F5" unicode="&#x4f5;" horiz-adv-x="538" 
d="M437 520v-520h-63v206c-26 -7 -75 -16 -125 -16c-109 0 -192 40 -192 158v172h63v-170c0 -70 43 -110 131 -110c46 0 100 8 123 16v264h63zM169 621c-26 0 -47 19 -47 47c0 26 21 46 47 46s46 -20 46 -46s-20 -47 -46 -47zM336 621c-26 0 -47 19 -47 47c0 26 21 46 47 46
s46 -20 46 -46s-20 -47 -46 -47z" />
    <glyph glyph-name="uni04B9" unicode="&#x4b9;" horiz-adv-x="558" 
d="M232 95v95c-101 4 -175 46 -175 158v172h63v-170c0 -65 37 -104 112 -110v128h50v-128c49 2 93 9 112 16v264h63v-520h-63v206c-22 -6 -62 -13 -112 -16v-95h-50z" />
    <glyph glyph-name="uni04B7" unicode="&#x4b7;" horiz-adv-x="562" 
d="M437 50h110v-193h-54v143h-119v206c-26 -7 -75 -16 -125 -16c-109 0 -192 40 -192 158v172h63v-170c0 -71 43 -110 131 -110c46 0 100 8 123 16v264h63v-470z" />
    <glyph glyph-name="uni0448" unicode="&#x448;" horiz-adv-x="861" 
d="M462 50h235v470h63v-520h-659v520h63v-470h235v470h63v-470z" />
    <glyph glyph-name="uni0448.bul" horiz-adv-x="948" 
d="M847 0h-63v85c-33 -59 -92 -95 -162 -95c-84 0 -140 41 -167 112c-32 -59 -92 -112 -177 -112c-114 0 -182 77 -182 207v323h63v-310c0 -111 46 -169 123 -169c88 0 158 72 158 216v263h63v-310c0 -111 46 -169 123 -169c88 0 158 72 158 216v263h63v-520z" />
    <glyph glyph-name="uni0449" unicode="&#x449;" horiz-adv-x="875" 
d="M164 50h235v470h63v-470h235v470h63v-470h100v-193h-59v143h-700v520h63v-470z" />
    <glyph glyph-name="uni0449.bul" horiz-adv-x="962" 
d="M947 -143h-54v142h-3c-62 0 -101 27 -106 86c-33 -59 -92 -95 -162 -95c-84 0 -140 41 -167 112c-32 -59 -92 -112 -177 -112c-114 0 -182 77 -182 207v323h63v-310c0 -111 46 -169 123 -169c88 0 158 72 158 216v263h63v-310c0 -111 46 -169 123 -169
c88 0 158 72 158 216v263h63v-412c0 -42 16 -58 65 -58h35v-193z" />
    <glyph glyph-name="uni044A" unicode="&#x44a;" horiz-adv-x="596" 
d="M169 0v470h-149v50h212v-181h120c147 0 209 -78 209 -168s-69 -171 -215 -171h-177zM232 289v-239h115c102 0 149 49 149 120s-47 119 -147 119h-117z" />
    <glyph glyph-name="uni044A.bul" horiz-adv-x="596" 
d="M169 470h-149v50h212v-185c39 3 74 6 107 6c147 0 222 -66 222 -170c0 -90 -64 -181 -206 -181c-129 0 -186 62 -186 165v315zM232 285v-129c0 -78 46 -115 126 -115c100 0 138 58 138 129s-44 120 -160 120c-34 0 -66 -1 -104 -5z" />
    <glyph glyph-name="uni044B" unicode="&#x44b;" horiz-adv-x="744" 
d="M101 0v520h63v-181h112c147 0 209 -78 209 -168s-69 -171 -215 -171h-169zM164 289v-239h107c102 0 149 49 149 120s-47 119 -147 119h-109zM580 520h63v-520h-63v520z" />
    <glyph glyph-name="uni044B.bul" horiz-adv-x="747" 
d="M96 520h63v-185c39 3 74 6 107 6c147 0 222 -66 222 -170c0 -90 -64 -181 -206 -181c-129 0 -186 62 -186 165v365zM159 285v-129c0 -78 46 -115 126 -115c100 0 138 58 138 129s-44 120 -160 120c-34 0 -66 -1 -104 -5zM583 520h63v-520h-63v520z" />
    <glyph glyph-name="uni04F9" unicode="&#x4f9;" horiz-adv-x="744" 
d="M101 0v520h63v-181h112c147 0 209 -78 209 -168s-69 -171 -215 -171h-169zM164 289v-239h107c102 0 149 49 149 120s-47 119 -147 119h-109zM580 520h63v-520h-63v520zM293 621c-26 0 -47 19 -47 47c0 26 21 46 47 46s46 -20 46 -46s-20 -47 -46 -47zM460 621
c-26 0 -47 19 -47 47c0 26 21 46 47 46s46 -20 46 -46s-20 -47 -46 -47z" />
    <glyph glyph-name="uni044C" unicode="&#x44c;" horiz-adv-x="528" 
d="M101 0v520h63v-181h120c147 0 209 -78 209 -168s-69 -171 -215 -171h-177zM164 289v-239h115c102 0 149 49 149 120s-47 119 -147 119h-117z" />
    <glyph glyph-name="uni044C.bul" horiz-adv-x="523" 
d="M96 520h63v-185c39 3 74 6 107 6c147 0 222 -66 222 -170c0 -90 -64 -181 -206 -181c-129 0 -186 62 -186 165v365zM159 285v-129c0 -78 46 -115 126 -115c100 0 138 58 138 129s-44 120 -160 120c-34 0 -66 -1 -104 -5z" />
    <glyph glyph-name="uni0452" unicode="&#x452;" 
d="M164 0h-63v611h-82v50h82v89h63v-89h144v-50h-144v-176c34 59 94 95 165 95c116 0 185 -77 185 -207v-353c0 -120 -42 -179 -126 -179c-23 0 -40 3 -57 9l-7 54c16 -6 37 -11 56 -11c52 0 71 30 71 134v333c0 111 -47 169 -126 169c-89 0 -161 -72 -161 -216v-263z" />
    <glyph glyph-name="uni045B" unicode="&#x45b;" 
d="M514 0h-63v310c0 111 -47 169 -126 169c-89 0 -161 -72 -161 -216v-263h-63v611h-82v50h82v89h63v-89h144v-50h-144v-176c34 59 94 95 165 95c116 0 185 -77 185 -207v-323z" />
    <glyph glyph-name="uni04BB" unicode="&#x4bb;" 
d="M514 0h-63v310c0 111 -47 169 -126 169c-89 0 -161 -72 -161 -216v-263h-63v750h63v-315c34 59 94 95 165 95c116 0 185 -77 185 -207v-323z" />
    <glyph glyph-name="uni044D" unicode="&#x44d;" horiz-adv-x="530" 
d="M156 245l-20 50h279c-11 103 -72 184 -180 184c-64 0 -118 -18 -164 -55l-22 50c52 37 113 56 188 56c155 0 243 -112 243 -267c0 -139 -77 -273 -247 -273c-84 0 -155 26 -198 69l38 47c38 -40 99 -65 162 -65c111 0 176 85 181 204h-260z" />
    <glyph glyph-name="uni0454" unicode="&#x454;" horiz-adv-x="530" 
d="M393 295l-21 -50h-259c6 -113 75 -204 190 -204c64 0 113 22 152 71l40 -37c-51 -58 -115 -85 -197 -85c-157 0 -248 108 -248 267c0 140 82 273 254 273c75 0 132 -23 180 -61l-31 -52c-44 43 -91 62 -151 62c-112 0 -176 -76 -187 -184h278z" />
    <glyph glyph-name="uni044E" unicode="&#x44e;" horiz-adv-x="838" 
d="M551 -10c-145 0 -228 105 -233 253h-154v-243h-63v520h63v-227h155c12 125 85 237 236 237c150 0 233 -112 233 -267c0 -139 -72 -273 -237 -273zM553 41c111 0 170 93 170 220c0 119 -55 218 -170 218c-111 0 -170 -93 -170 -219c0 -120 55 -219 170 -219z" />
    <glyph glyph-name="uni044E.bul" horiz-adv-x="838" 
d="M551 -10c-145 0 -228 105 -233 253h-154v-243h-63v749h63v-456h155c12 125 85 237 236 237c150 0 233 -112 233 -267c0 -139 -72 -273 -237 -273zM553 41c111 0 170 93 170 220c0 119 -55 218 -170 218c-111 0 -170 -93 -170 -219c0 -120 55 -219 170 -219z" />
    <glyph glyph-name="uni044F" unicode="&#x44f;" horiz-adv-x="539" 
d="M438 0h-63v209h-117l-157 -209h-76l167 216c-75 20 -129 64 -129 147c0 95 64 157 225 157h150v-520zM375 470h-89c-117 0 -158 -36 -158 -104s40 -107 143 -107h104v211z" />
    <glyph glyph-name="breve.cyr" horiz-adv-x="354" 
d="M265 741h57c-11 -84 -66 -132 -148 -132s-131 48 -142 132h59c4 -45 34 -87 86 -87s84 42 88 87z" />
    <glyph glyph-name="breve.cyr.cap" horiz-adv-x="336" 
d="M254 879h57c-5 -76 -68 -123 -146 -123c-88 0 -135 49 -140 123h59c4 -45 33 -77 85 -77c47 0 81 32 85 77z" />
    <glyph glyph-name="breve.bul" horiz-adv-x="362" 
d="M307 686v-48c-74 -39 -178 -39 -252 0v48c74 -39 178 -39 252 0z" />
    <glyph glyph-name="breve.bul.cap" horiz-adv-x="372" 
d="M322 831v-54c-77 -36 -195 -36 -272 0v54c87 -36 185 -36 272 0z" />
    <glyph glyph-name="exclam" unicode="!" horiz-adv-x="378" 
d="M243 538l-7 -344h-54l-7 344v162h68v-162zM209 -8c-30 0 -53 22 -53 53s23 53 53 53s53 -22 53 -53s-23 -53 -53 -53z" />
    <glyph glyph-name="exclamdown" unicode="&#xa1;" horiz-adv-x="378" 
d="M135 -18l7 344h54l7 -344v-162h-68v162zM169 528c30 0 53 -22 53 -53s-23 -53 -53 -53s-53 22 -53 53s23 53 53 53z" />
    <glyph glyph-name="exclamdown.cap" horiz-adv-x="378" 
d="M135 162l7 344h54l7 -344v-162h-68v162zM169 708c30 0 53 -22 53 -53s-23 -53 -53 -53s-53 22 -53 53s23 53 53 53z" />
    <glyph glyph-name="question" unicode="?" horiz-adv-x="559" 
d="M271 194h-54v177c118 28 178 76 178 162c0 77 -56 123 -133 123c-63 0 -126 -26 -180 -85l-30 49c63 61 134 90 214 90c109 0 196 -67 196 -171s-76 -171 -191 -203v-142zM244 -8c-30 0 -53 22 -53 53s23 53 53 53s53 -22 53 -53s-23 -53 -53 -53z" />
    <glyph glyph-name="questiondown" unicode="&#xbf;" horiz-adv-x="559" 
d="M288 326h54v-177c-118 -28 -178 -76 -178 -162c0 -77 56 -123 133 -123c63 0 126 26 180 85l30 -49c-63 -61 -134 -90 -214 -90c-109 0 -196 67 -196 171s76 171 191 203v142zM315 528c30 0 53 -22 53 -53s-23 -53 -53 -53s-53 22 -53 53s23 53 53 53z" />
    <glyph glyph-name="questiondown.cap" horiz-adv-x="559" 
d="M288 506h54v-177c-118 -28 -178 -76 -178 -162c0 -77 56 -123 133 -123c63 0 126 26 180 85l30 -49c-63 -61 -134 -90 -214 -90c-109 0 -196 67 -196 171s76 171 191 203v142zM315 708c30 0 53 -22 53 -53s-23 -53 -53 -53s-53 22 -53 53s23 53 53 53z" />
    <glyph glyph-name="comma" unicode="," horiz-adv-x="238" 
d="M4 -189l-7 47c90 6 124 72 124 135c-31 -3 -55 21 -55 52s23 53 53 53s59 -21 59 -82c0 -82 -40 -197 -174 -205z" />
    <glyph glyph-name="semicolon" unicode=";" horiz-adv-x="258" 
d="M149 403c-30 0 -53 22 -53 53s23 53 53 53s53 -22 53 -53s-23 -53 -53 -53zM34 -189l-7 47c90 6 124 72 124 135c-31 -3 -55 21 -55 52s23 53 53 53s59 -21 59 -82c0 -82 -40 -197 -174 -205z" />
    <glyph glyph-name="colon" unicode=":" horiz-adv-x="258" 
d="M149 403c-30 0 -53 22 -53 53s23 53 53 53s53 -22 53 -53s-23 -53 -53 -53zM149 -8c-30 0 -53 22 -53 53s23 53 53 53s53 -22 53 -53s-23 -53 -53 -53z" />
    <glyph glyph-name="uni2236" unicode="&#x2236;" horiz-adv-x="264" 
d="M132 482c-30 0 -53 22 -53 53s23 53 53 53s53 -22 53 -53s-23 -53 -53 -53zM132 112c-30 0 -53 22 -53 53s23 53 53 53s53 -22 53 -53s-23 -53 -53 -53z" />
    <glyph glyph-name="period" unicode="." horiz-adv-x="238" 
d="M119 -8c-30 0 -53 22 -53 53s23 53 53 53s53 -22 53 -53s-23 -53 -53 -53z" />
    <glyph glyph-name="ellipsis" unicode="&#x2026;" horiz-adv-x="638" 
d="M119 -8c-30 0 -53 22 -53 53s23 53 53 53s53 -22 53 -53s-23 -53 -53 -53zM319 -8c-30 0 -53 22 -53 53s23 53 53 53s53 -22 53 -53s-23 -53 -53 -53zM519 -8c-30 0 -53 22 -53 53s23 53 53 53s53 -22 53 -53s-23 -53 -53 -53z" />
    <glyph glyph-name="quoteleft" unicode="&#x2018;" horiz-adv-x="222" 
d="M217 760l7 -46c-78 -6 -112 -53 -113 -116c31 3 55 -21 55 -52s-23 -53 -53 -53s-59 21 -59 82c0 82 41 177 163 185z" />
    <glyph glyph-name="quoteright" unicode="&#x2019;" horiz-adv-x="222" 
d="M5 453l-7 46c78 6 112 53 113 116c-31 -3 -55 21 -55 52s23 53 53 53s59 -21 59 -82c0 -82 -41 -177 -163 -185z" />
    <glyph glyph-name="quotedblleft" unicode="&#x201c;" horiz-adv-x="422" 
d="M217 760l7 -46c-78 -6 -112 -53 -113 -116c31 3 55 -21 55 -52s-23 -53 -53 -53s-59 21 -59 82c0 82 41 177 163 185zM417 760l7 -46c-78 -6 -112 -53 -113 -116c31 3 55 -21 55 -52s-23 -53 -53 -53s-59 21 -59 82c0 82 41 177 163 185z" />
    <glyph glyph-name="quotedblright" unicode="&#x201d;" horiz-adv-x="422" 
d="M5 453l-7 46c78 6 112 53 113 116c-31 -3 -55 21 -55 52s23 53 53 53s59 -21 59 -82c0 -82 -41 -177 -163 -185zM205 453l-7 46c78 6 112 53 113 116c-31 -3 -55 21 -55 52s23 53 53 53s59 -21 59 -82c0 -82 -41 -177 -163 -185z" />
    <glyph glyph-name="quotesinglbase" unicode="&#x201a;" horiz-adv-x="222" 
d="M5 -169l-7 46c78 6 112 53 113 116c-31 -3 -55 21 -55 52s23 53 53 53s59 -21 59 -82c0 -82 -41 -177 -163 -185z" />
    <glyph glyph-name="quotedblbase" unicode="&#x201e;" horiz-adv-x="422" 
d="M5 -169l-7 46c78 6 112 53 113 116c-31 -3 -55 21 -55 52s23 53 53 53s59 -21 59 -82c0 -82 -41 -177 -163 -185zM205 -169l-7 46c78 6 112 53 113 116c-31 -3 -55 21 -55 52s23 53 53 53s59 -21 59 -82c0 -82 -41 -177 -163 -185z" />
    <glyph glyph-name="guilsinglleft" unicode="&#x2039;" horiz-adv-x="359" 
d="M76 276v4l137 188h63l-130 -190l130 -190h-62z" />
    <glyph glyph-name="guilsinglright" unicode="&#x203a;" horiz-adv-x="359" 
d="M283 280v-4l-137 -188h-63l130 190l-130 190h62z" />
    <glyph glyph-name="guilsinglleft.cap" horiz-adv-x="359" 
d="M76 348v4l137 188h63l-130 -190l130 -190h-62z" />
    <glyph glyph-name="guilsinglright.cap" horiz-adv-x="359" 
d="M283 352v-4l-137 -188h-63l130 190l-130 190h62z" />
    <glyph glyph-name="guillemotleft" unicode="&#xab;" horiz-adv-x="569" 
d="M286 276v4l137 188h63l-130 -190l130 -190h-62zM76 276v4l137 188h63l-130 -190l130 -190h-62z" />
    <glyph glyph-name="guillemotright" unicode="&#xbb;" horiz-adv-x="569" 
d="M283 280v-4l-137 -188h-63l130 190l-130 190h62zM493 280v-4l-137 -188h-63l130 190l-130 190h62z" />
    <glyph glyph-name="guillemotleft.cap" horiz-adv-x="569" 
d="M286 348v4l137 188h63l-130 -190l130 -190h-62zM76 348v4l137 188h63l-130 -190l130 -190h-62z" />
    <glyph glyph-name="guillemotright.cap" horiz-adv-x="569" 
d="M283 352v-4l-137 -188h-63l130 190l-130 190h62zM493 352v-4l-137 -188h-63l130 190l-130 190h62z" />
    <glyph glyph-name="slash" unicode="/" horiz-adv-x="373" 
d="M294 790h61l-312 -990h-61z" />
    <glyph glyph-name="bar" unicode="|" horiz-adv-x="293" 
d="M116 -200v990h61v-990h-61z" />
    <glyph glyph-name="bar.cap" horiz-adv-x="293" 
d="M116 -100v900h61v-900h-61z" />
    <glyph glyph-name="brokenbar" unicode="&#xa6;" horiz-adv-x="293" 
d="M116 400v390h61v-390h-61zM116 -200v390h61v-390h-61z" />
    <glyph glyph-name="brokenbar.cap" horiz-adv-x="293" 
d="M116 455v345h61v-345h-61zM116 -100v345h61v-345h-61z" />
    <glyph glyph-name="backslash" unicode="\" horiz-adv-x="373" 
d="M329 -200l-311 990h62l311 -990h-62z" />
    <glyph glyph-name="hyphen" unicode="-" horiz-adv-x="337" 
d="M283 252h-229v52h229v-52z" />
    <glyph glyph-name="hyphen" unicode="&#xad;" horiz-adv-x="337" 
d="M283 252h-229v52h229v-52z" />
    <glyph glyph-name="hyphen.cap" horiz-adv-x="337" 
d="M283 314h-229v52h229v-52z" />
    <glyph glyph-name="endash" unicode="&#x2013;" horiz-adv-x="630" 
d="M78 319h474v-52h-474v52z" />
    <glyph glyph-name="endash.cap" horiz-adv-x="630" 
d="M78 376h474v-52h-474v52z" />
    <glyph glyph-name="emdash" unicode="&#x2014;" horiz-adv-x="924" 
d="M78 319h768v-52h-768v52z" />
    <glyph glyph-name="emdash.cap" horiz-adv-x="924" 
d="M78 376h768v-52h-768v52z" />
    <glyph glyph-name="underscore" unicode="_" horiz-adv-x="484" 
d="M5 -148h474v-52h-474v52z" />
    <glyph glyph-name="bullet" unicode="&#x2022;" horiz-adv-x="430" 
d="M215 266c-52 0 -98 45 -98 98s46 97 98 97c55 0 98 -44 98 -97s-46 -98 -98 -98z" />
    <glyph glyph-name="periodcentered" unicode="&#xb7;" horiz-adv-x="238" 
d="M119 239c-30 0 -53 22 -53 53s23 53 53 53s53 -22 53 -53s-23 -53 -53 -53z" />
    <glyph glyph-name="periodcentered.cap" horiz-adv-x="238" 
d="M119 297c-30 0 -53 22 -53 53s23 53 53 53s53 -22 53 -53s-23 -53 -53 -53z" />
    <glyph glyph-name="parenleft" unicode="(" horiz-adv-x="326" 
d="M304 -200h-64c-100 162 -140 362 -140 499c0 147 45 337 140 491h64c-89 -143 -139 -318 -139 -485c0 -168 50 -361 139 -505z" />
    <glyph glyph-name="parenright" unicode=")" horiz-adv-x="326" 
d="M86 -200h-64c89 143 139 318 139 485c0 168 -50 361 -139 505h64c100 -162 140 -362 140 -499c0 -147 -45 -337 -140 -491z" />
    <glyph glyph-name="parenleft.cap" horiz-adv-x="326" 
d="M304 -100h-64c-100 152 -140 327 -140 454c0 137 45 302 140 446h64c-89 -133 -139 -283 -139 -440c0 -158 50 -326 139 -460z" />
    <glyph glyph-name="parenright.cap" horiz-adv-x="326" 
d="M86 -100h-64c89 133 139 283 139 440c0 158 -50 326 -139 460h64c100 -152 140 -327 140 -454c0 -137 -45 -302 -140 -446z" />
    <glyph glyph-name="bracketleft" unicode="[" horiz-adv-x="383" 
d="M343 740h-167v-890h167v-50h-228v990h228v-50z" />
    <glyph glyph-name="bracketright" unicode="]" horiz-adv-x="383" 
d="M268 790v-990h-228v50h167v890h-167v50h228z" />
    <glyph glyph-name="bracketleft.cap" horiz-adv-x="383" 
d="M343 750h-167v-800h167v-50h-228v900h228v-50z" />
    <glyph glyph-name="bracketright.cap" horiz-adv-x="383" 
d="M268 800v-900h-228v50h167v800h-167v50h228z" />
    <glyph glyph-name="braceleft" unicode="{" horiz-adv-x="386" 
d="M342 -200h-68c-116 0 -142 82 -135 175l10 198c3 75 -36 104 -120 109v52c87 5 125 30 120 108l-10 173c-7 93 30 175 137 175h66v-50h-58c-66 0 -92 -37 -86 -121l10 -172c5 -76 -30 -122 -95 -138v-1c64 -13 98 -63 95 -139l-10 -198c-6 -84 20 -121 86 -121h58v-50z
" />
    <glyph glyph-name="braceright" unicode="}" horiz-adv-x="386" 
d="M44 790h68c116 0 140 -82 135 -175l-10 -172c-4 -75 36 -104 120 -109v-52c-87 -5 -124 -30 -120 -108l10 -199c5 -93 -30 -175 -137 -175h-66v50h58c66 0 90 37 86 121l-10 199c-4 76 30 122 95 138v1c-64 13 -99 63 -95 139l10 171c5 84 -20 121 -86 121h-58v50z" />
    <glyph glyph-name="braceleft.cap" horiz-adv-x="386" 
d="M342 -100h-68c-116 0 -141 82 -135 175l10 153c5 75 -36 104 -120 109v52c87 5 126 30 120 108l-10 128c-7 93 30 175 137 175h66v-50h-58c-66 0 -93 -37 -86 -121l10 -127c6 -76 -30 -122 -95 -138v-1c64 -13 100 -63 95 -139l-10 -153c-5 -84 20 -121 86 -121h58v-50z
" />
    <glyph glyph-name="braceright.cap" horiz-adv-x="386" 
d="M44 800h68c116 0 142 -82 135 -175l-10 -127c-6 -75 36 -104 120 -109v-52c-87 -5 -125 -30 -120 -108l10 -154c6 -93 -30 -175 -137 -175h-66v50h58c66 0 91 37 86 121l-10 154c-5 76 30 122 95 138v1c-64 13 -101 63 -95 139l10 126c7 84 -20 121 -86 121h-58v50z" />
    <glyph glyph-name="asterisk" unicode="*" horiz-adv-x="510" 
d="M60 528v58l157 -8l-85 133l51 29l72 -140l72 140l51 -29l-86 -133l158 8v-58l-158 7l86 -132l-51 -29l-72 140l-72 -140l-51 29l85 132z" />
    <glyph glyph-name="dagger" unicode="&#x2020;" horiz-adv-x="510" 
d="M224 750h62l-6 -170l170 6v-58l-171 6l7 -409h-62l6 409l-170 -6v58l170 -6z" />
    <glyph glyph-name="daggerdbl" unicode="&#x2021;" horiz-adv-x="510" 
d="M224 750h62l-6 -170l170 6v-58l-171 6v-183l171 6v-58l-170 6l6 -180h-62l6 180l-170 -6v58l171 -6v183l-171 -6v58l170 -6z" />
    <glyph glyph-name="section" unicode="&#xa7;" horiz-adv-x="577" 
d="M80 -33l35 54c45 -46 110 -67 175 -67c81 0 145 26 145 91c0 140 -360 122 -360 313c0 64 45 116 104 143c-43 27 -74 61 -74 113c0 92 83 145 190 145c76 0 126 -14 187 -62l-35 -54c-44 44 -90 62 -155 62c-71 0 -125 -26 -125 -86c0 -135 340 -117 340 -308
c0 -62 -42 -113 -98 -140c51 -28 88 -65 88 -121c0 -97 -93 -150 -210 -150c-76 0 -145 17 -207 67zM445 306c0 94 -125 124 -224 172c-60 -30 -84 -71 -84 -115c0 -92 125 -123 228 -170c57 30 80 70 80 113z" />
    <glyph glyph-name="paragraph" unicode="&#xb6;" horiz-adv-x="638" 
d="M522 700v-790h-61v743h-109v-743h-61v375c-143 -1 -212 95 -212 210s84 205 212 205h231z" />
    <glyph glyph-name="asciicircum" unicode="^" horiz-adv-x="546" 
d="M470 397h-65l-133 247l-134 -247h-62l170 303h54z" />
    <glyph glyph-name="asciitilde" unicode="~" horiz-adv-x="572" 
d="M447 578h57v-25c0 -83 -45 -137 -119 -137c-111 0 -127 128 -202 128c-40 0 -58 -33 -58 -86v-23h-57v25c0 83 45 137 119 137c111 0 127 -128 202 -128c40 0 58 33 58 86v23z" />
    <glyph glyph-name="quotesingle" unicode="'" horiz-adv-x="197" 
d="M134 750l-13 -223h-46l-12 223h71z" />
    <glyph glyph-name="quotedbl" unicode="&#x22;" horiz-adv-x="348" 
d="M285 750l-12 -223h-46l-12 223h70zM134 750l-13 -223h-46l-12 223h71z" />
    <glyph glyph-name="ampersand" unicode="&#x26;" horiz-adv-x="688" 
d="M549 454h64c6 -101 -25 -234 -93 -331c65 -69 82 -76 108 -76c16 0 36 4 57 15l-28 -60c-14 -4 -28 -6 -41 -6c-36 0 -65 15 -132 83c-51 -53 -117 -88 -198 -88c-144 0 -220 72 -220 194c0 100 67 157 141 206c-63 85 -83 142 -83 203c0 91 66 165 174 165
c106 0 166 -62 166 -155c0 -106 -90 -164 -176 -220c24 -30 54 -65 90 -105l104 -116c50 80 74 188 67 291zM290 44c62 0 115 28 157 73c-31 33 -68 73 -115 125c-37 40 -68 76 -94 108c-59 -42 -107 -88 -107 -157c0 -93 55 -149 159 -149zM189 597c0 -52 16 -99 69 -173
c74 47 141 93 141 174c0 64 -38 109 -105 109c-64 0 -105 -45 -105 -110z" />
    <glyph glyph-name="at" unicode="@" horiz-adv-x="1021" 
d="M678 -64l8 -50c-60 -17 -132 -26 -191 -26c-247 0 -402 154 -402 390c0 282 213 478 462 478c259 0 381 -168 381 -348c0 -183 -107 -293 -221 -293c-64 0 -97 37 -95 93c-34 -62 -92 -93 -150 -93c-109 0 -151 72 -151 168c0 122 68 262 216 262c59 0 106 -31 122 -69
l11 62h54l-40 -232c-19 -111 -8 -138 42 -138c81 0 153 90 153 235c0 150 -91 303 -326 303c-222 0 -397 -178 -397 -419c0 -213 124 -348 348 -348c58 0 118 9 176 25zM631 301l1 6c16 97 -12 157 -99 157c-100 0 -148 -100 -148 -205c0 -70 23 -119 90 -119
c85 0 141 72 156 161z" />
    <glyph glyph-name="at.cap" horiz-adv-x="1021" 
d="M678 -8l8 -50c-60 -17 -132 -26 -191 -26c-247 0 -402 154 -402 390c0 282 213 478 462 478c259 0 381 -168 381 -348c0 -183 -107 -293 -221 -293c-64 0 -97 37 -95 93c-34 -62 -92 -93 -150 -93c-109 0 -151 72 -151 168c0 122 68 262 216 262c59 0 106 -31 122 -69
l11 62h54l-40 -232c-19 -111 -8 -138 42 -138c81 0 153 90 153 235c0 150 -91 303 -326 303c-222 0 -397 -178 -397 -419c0 -213 124 -348 348 -348c58 0 118 9 176 25zM631 357l1 6c16 97 -12 157 -99 157c-100 0 -148 -100 -148 -205c0 -70 23 -119 90 -119
c85 0 141 72 156 161z" />
    <glyph glyph-name="copyright" unicode="&#xa9;" horiz-adv-x="817" 
d="M750 352c0 -189 -138 -362 -341 -362c-209 0 -342 170 -342 359s138 361 342 361s341 -169 341 -358zM697 350c0 163 -114 311 -288 311s-288 -145 -288 -310s114 -312 288 -312s288 146 288 311zM518 241l29 -34c-33 -35 -76 -55 -135 -55c-102 0 -179 72 -179 195
c0 111 72 200 185 200c51 0 86 -13 118 -33l-24 -43c-24 18 -53 31 -94 31c-77 0 -127 -59 -127 -151c0 -96 45 -152 125 -152c48 0 77 15 102 42z" />
    <glyph glyph-name="registered" unicode="&#xae;" horiz-adv-x="571" 
d="M496 548c0 -116 -97 -210 -211 -210c-119 0 -210 92 -210 211c0 116 97 210 211 210c119 0 210 -92 210 -211zM456 547c0 97 -77 175 -171 175c-93 0 -170 -74 -170 -172c0 -97 77 -175 171 -175c93 0 170 74 170 172zM379 434h-44l-55 91h-20v-91h-39v232h60
c54 0 87 -23 87 -66c0 -40 -26 -61 -50 -69zM260 634v-78h18c37 0 50 16 50 40c0 26 -16 38 -50 38h-18z" />
    <glyph glyph-name="trademark" unicode="&#x2122;" horiz-adv-x="715" 
d="M300 700v-40h-96v-241h-47v241h-97v40h240zM648 700v-281h-47v214l-96 -162h-7l-96 162v-214h-47v281h57l91 -154l92 154h53z" />
    <glyph glyph-name="degree" unicode="&#xb0;" horiz-adv-x="375" 
d="M309 643c0 -76 -60 -120 -124 -120c-74 0 -119 46 -119 116c0 75 60 120 124 120c74 0 119 -46 119 -116zM256 641c0 46 -27 75 -68 75c-39 0 -69 -30 -69 -75c0 -47 28 -75 68 -75c39 0 69 30 69 75z" />
    <glyph glyph-name="currency" unicode="&#xa4;" horiz-adv-x="630" 
d="M554 64l-42 -30l-94 133c-30 -18 -67 -27 -106 -27c-38 0 -73 9 -103 25l-91 -131l-42 30l92 131c-36 36 -58 88 -58 153c0 62 23 116 60 153l-94 135l42 30l93 -134c31 18 67 28 107 28c37 0 72 -9 102 -25l92 131l42 -30l-93 -132c37 -36 59 -88 59 -151
s-23 -117 -61 -155zM315 190c76 0 141 48 141 161c0 105 -60 159 -141 159c-76 0 -141 -48 -141 -160c0 -106 60 -160 141 -160z" />
    <glyph glyph-name="Euro" unicode="&#x20ac;" horiz-adv-x="645" 
d="M59 296h88c-2 16 -2 33 -2 51c0 19 0 38 2 57h-88v51h96c30 155 130 254 272 254c75 0 126 -21 173 -56l-22 -57c-53 43 -95 60 -154 60c-109 0 -180 -73 -204 -201h304l-19 -51h-292c-1 -17 -2 -35 -2 -54s0 -37 2 -54h270l-19 -51h-244c23 -129 92 -201 204 -201
c74 0 123 27 165 72l36 -40c-54 -54 -112 -85 -204 -85c-144 0 -239 97 -267 254h-95v51z" />
    <glyph glyph-name="dollar" unicode="$" horiz-adv-x="630" 
d="M362 -120h-60v119c-100 5 -177 43 -233 103l43 52c56 -65 125 -102 219 -102c105 0 163 51 163 122c0 174 -395 132 -395 350c0 93 77 167 203 177v119h60v-119c73 -6 130 -32 182 -78l-35 -54c-45 44 -97 79 -183 79c-102 0 -160 -51 -160 -117
c0 -174 395 -132 395 -350c0 -97 -77 -170 -199 -181v-120z" />
    <glyph glyph-name="cent" unicode="&#xa2;" horiz-adv-x="525" 
d="M327 -36h-60v119c-131 15 -208 123 -208 265c0 130 76 249 208 268v121h60v-119c59 -4 101 -25 142 -61l-34 -49c-38 40 -75 60 -133 60c-106 0 -178 -88 -178 -218c0 -120 65 -218 177 -218c64 0 108 26 145 76l40 -37c-42 -50 -93 -82 -159 -89v-118z" />
    <glyph glyph-name="sterling" unicode="&#xa3;" horiz-adv-x="566" 
d="M537 0h-446v45c90 60 132 122 132 180c0 20 -4 39 -9 57h-114v52h91c-30 56 -70 110 -70 188c0 114 87 187 206 187c77 0 128 -22 188 -70l-35 -54c-45 44 -90 70 -156 70c-77 0 -141 -38 -141 -128c0 -80 46 -131 76 -193h180l-21 -52h-139c4 -16 6 -33 6 -52
c0 -67 -50 -138 -110 -177h362v-53z" />
    <glyph glyph-name="florin" unicode="&#x192;" horiz-adv-x="455" 
d="M360 368h-146l-31 -405c-9 -116 -53 -171 -162 -171c-30 0 -56 3 -80 8v54c27 -7 53 -10 83 -10c68 0 89 30 96 124l31 400h-136v52h140l13 168c9 116 53 171 162 171c30 0 56 -3 80 -8v-54c-27 7 -53 10 -83 10c-68 0 -89 -30 -96 -124l-13 -163h162z" />
    <glyph glyph-name="yen" unicode="&#xa5;" horiz-adv-x="630" 
d="M118 289h165v48l-242 363h68l208 -314l208 314h64l-242 -363v-48h175l-20 -51h-155v-108h175l-20 -51h-155v-79h-64v79h-165v51h165v108h-165v51z" />
    <glyph glyph-name="uni20B4" unicode="&#x20b4;" horiz-adv-x="630" 
d="M46 461h323c38 43 44 69 44 104c0 57 -39 91 -106 91c-66 0 -115 -19 -160 -50l-30 47c59 40 128 57 197 57c102 0 162 -58 162 -138c0 -33 -11 -71 -39 -111h129l-20 -51h-153l-106 -108h279l-20 -51h-308c-40 -46 -51 -76 -51 -111c0 -62 41 -96 112 -96
c84 0 140 26 194 69l38 -44c-63 -49 -141 -79 -239 -79c-103 0 -168 58 -168 143c0 34 13 75 43 118h-121v51h166l108 108h-274v51z" />
    <glyph glyph-name="uni20B8" unicode="&#x20b8;" horiz-adv-x="582" 
d="M550 541l-19 -51h-208v-490h-64v490h-219v51h510zM40 700h510l-19 -51h-491v51z" />
    <glyph glyph-name="uni0E3F" unicode="&#xe3f;" horiz-adv-x="613" 
d="M270 820h60v-122c134 -9 204 -68 204 -171c0 -97 -60 -147 -127 -165v-2c69 -13 144 -64 144 -164c0 -99 -57 -185 -221 -195v-121h-60v120h-169v700h169v120zM165 333v-281h136c131 0 184 48 184 140c0 101 -72 141 -192 141h-128zM165 648v-263h130
c121 0 173 48 173 138c0 94 -74 125 -184 125h-119z" />
    <glyph glyph-name="uni20AE" unicode="&#x20ae;" horiz-adv-x="582" 
d="M94 382l165 43v222h-219v53h502v-53h-219v-206l175 46l-20 -59l-155 -41v-108l175 46l-20 -59l-155 -41v-225h-64v209l-165 -43v54l165 43v108l-165 -43v54z" />
    <glyph glyph-name="uni20B9" unicode="&#x20b9;" horiz-adv-x="620" 
d="M576 541l-19 -51h-138c-11 -104 -98 -181 -237 -192l319 -298h-90l-315 295v52h49c124 0 203 57 210 143h-259v51h260v108h-260v51h480l-19 -51h-137v-108h156z" />
    <glyph glyph-name="uni20BA" unicode="&#x20ba;" horiz-adv-x="606" 
d="M58 412l113 29v259h64v-242l227 59l-20 -59l-207 -54v-108l227 59l-20 -59l-207 -54v-192s20 -1 30 -1c140 0 218 22 301 73v-63c-77 -42 -163 -63 -306 -63c-36 0 -61 2 -89 4v225l-113 -29v54l113 29v108l-113 -29v54z" />
    <glyph glyph-name="uni20BD" unicode="&#x20bd;" horiz-adv-x="630" 
d="M59 335h96v365h175c159 0 248 -74 248 -200c0 -128 -92 -216 -243 -216h-116v-108h206l-19 -51h-187v-125h-64v125h-96v51h96v108h-96v51zM512 494c0 117 -83 154 -194 154h-99v-313h121c102 0 172 57 172 159z" />
    <glyph glyph-name="uni20BF" unicode="&#x20bf;" horiz-adv-x="613" 
d="M534 527c0 -97 -60 -147 -127 -165v-2c69 -13 144 -64 144 -164c0 -80 -37 -151 -137 -181v-135h-60v123c-18 -2 -38 -3 -59 -3h-49v-120h-60v120h-85v700h85v120h60v-120h46c22 0 43 -1 62 -4v124h60v-136c79 -25 120 -78 120 -157zM485 192c0 101 -72 141 -192 141
h-128v-281h136c131 0 184 48 184 140zM468 523c0 94 -74 125 -184 125h-119v-263h130c121 0 173 48 173 138z" />
    <glyph glyph-name="uni2116" unicode="&#x2116;" horiz-adv-x="1079" 
d="M604 0h-67l-373 593v-593h-63v700h67l373 -593v593h63v-700zM861 378c-102 0 -160 67 -160 165c0 88 56 167 162 167c102 0 160 -67 160 -164c0 -89 -55 -168 -162 -168zM862 424c64 0 100 47 100 121c0 69 -34 119 -100 119c-64 0 -100 -47 -100 -120
c0 -70 34 -120 100 -120zM1008 267h-292v48h292v-48z" />
    <glyph glyph-name="numbersign" unicode="#" horiz-adv-x="606" 
d="M356 0l20 195h-180l-20 -195h-54l20 195h-101v50h107l22 210h-101v50h106l21 195h54l-21 -195h180l21 195h54l-21 -195h102v-50h-107l-22 -210h101v-50h-107l-20 -195h-54zM224 455l-22 -210h180l22 210h-180z" />
    <glyph glyph-name="zero" unicode="0" horiz-adv-x="630" 
d="M306 -9c-163 0 -237 132 -237 357c0 233 92 361 255 361s237 -132 237 -357c0 -233 -92 -361 -255 -361zM310 45c119 0 185 94 185 304c0 200 -56 306 -175 306s-185 -94 -185 -304c0 -200 56 -306 175 -306z" />
    <glyph glyph-name="one" unicode="1" horiz-adv-x="398" 
d="M204 0v546h-139v49c135 0 149 14 158 109h45v-704h-64z" />
    <glyph glyph-name="two" unicode="2" horiz-adv-x="560" 
d="M494 0h-431c-20 280 368 333 368 520c0 80 -56 135 -145 135c-73 0 -128 -27 -189 -87l-30 49c65 64 145 92 223 92c138 0 207 -86 207 -183c0 -213 -334 -259 -372 -471h390z" />
    <glyph glyph-name="three" unicode="3" horiz-adv-x="590" 
d="M42 81l43 52c55 -61 116 -88 196 -88c110 0 177 56 177 145c0 99 -70 143 -185 143h-100l-21 53h118c120 0 166 61 166 133c0 86 -59 136 -160 136c-68 0 -133 -30 -178 -73l-30 49c58 49 130 78 216 78c141 0 219 -76 219 -185c0 -72 -38 -135 -119 -163
c97 -18 141 -81 141 -162c0 -114 -84 -208 -248 -208c-97 0 -170 29 -235 90z" />
    <glyph glyph-name="four" unicode="4" horiz-adv-x="630" 
d="M594 229l-21 -53h-98v-176h-66v176h-341l-18 45l335 479h90v-471h119zM122 229h287v411z" />
    <glyph glyph-name="five" unicode="5" 
d="M519 700l-21 -55h-302l-16 -263c37 38 93 59 153 59c128 0 218 -83 218 -209c0 -150 -99 -241 -248 -241c-97 0 -170 29 -235 90l43 52c55 -61 116 -88 196 -88c97 0 177 58 177 178c0 94 -61 164 -161 164c-59 0 -111 -21 -153 -67l-52 3l23 377h378z" />
    <glyph glyph-name="six" unicode="6" horiz-adv-x="617" 
d="M520 645l-35 -53c-45 43 -84 63 -141 63c-134 0 -215 -124 -214 -335c27 65 95 124 205 124c129 0 226 -78 226 -219c0 -123 -92 -234 -242 -234c-191 0 -250 170 -250 340c0 243 115 378 277 378c73 0 126 -23 174 -64zM321 45c106 0 173 74 173 174
c0 98 -54 171 -166 171c-131 0 -179 -89 -179 -162c0 -91 55 -183 172 -183z" />
    <glyph glyph-name="seven" unicode="7" horiz-adv-x="510" 
d="M490 700v-46c-153 -135 -242 -384 -242 -654h-67c0 277 113 529 230 645h-375l-21 55h475z" />
    <glyph glyph-name="eight" unicode="8" horiz-adv-x="630" 
d="M308 -9c-138 0 -243 66 -243 195c0 95 70 156 144 178c-59 15 -124 66 -124 155c0 95 76 190 237 190c138 0 223 -72 223 -180c0 -79 -59 -138 -125 -160c81 -19 145 -82 145 -174c0 -116 -96 -204 -257 -204zM312 389c94 0 168 49 168 136c0 79 -56 133 -162 133
c-104 0 -168 -49 -168 -135c0 -80 66 -134 162 -134zM312 42c104 0 188 42 188 149c0 99 -76 147 -182 147c-104 0 -188 -42 -188 -148c0 -100 76 -148 182 -148z" />
    <glyph glyph-name="nine" unicode="9" horiz-adv-x="623" 
d="M93 57l35 53c45 -43 91 -65 152 -65c146 0 214 124 213 335c-27 -65 -94 -124 -205 -124c-133 0 -226 79 -226 216c0 121 92 237 242 237c188 0 250 -170 250 -340c0 -243 -103 -378 -276 -378c-77 0 -137 25 -185 66zM295 310c131 0 179 89 179 162
c0 91 -59 183 -172 183c-105 0 -173 -76 -173 -177c0 -94 51 -168 166 -168z" />
    <glyph glyph-name="zero.LinTab" horiz-adv-x="630" 
d="M306 -9c-163 0 -237 132 -237 357c0 233 92 361 255 361s237 -132 237 -357c0 -233 -92 -361 -255 -361zM310 45c119 0 185 94 185 304c0 200 -56 306 -175 306s-185 -94 -185 -304c0 -200 56 -306 175 -306z" />
    <glyph glyph-name="one.LinTab" horiz-adv-x="630" 
d="M113 0v53h201v493h-199v49c195 0 205 10 218 105h45v-647h194v-53h-459z" />
    <glyph glyph-name="two.LinTab" horiz-adv-x="630" 
d="M544 55l-21 -55h-431c-20 280 368 333 368 520c0 80 -56 135 -145 135c-73 0 -128 -27 -189 -87l-30 49c65 64 145 92 223 92c138 0 207 -86 207 -183c0 -213 -334 -259 -372 -471h390z" />
    <glyph glyph-name="three.LinTab" horiz-adv-x="630" 
d="M62 81l43 52c55 -61 119 -88 206 -88c117 0 187 56 187 145c0 99 -80 143 -195 143h-110l-21 53h128c130 0 176 61 176 133c0 86 -62 136 -170 136c-75 0 -143 -30 -188 -73l-30 49c58 49 133 78 226 78c148 0 229 -76 229 -185c0 -72 -38 -135 -119 -163
c97 -18 141 -81 141 -162c0 -114 -87 -208 -258 -208c-104 0 -180 29 -245 90z" />
    <glyph glyph-name="four.LinTab" horiz-adv-x="630" 
d="M594 229l-21 -53h-98v-176h-66v176h-341l-18 45l335 479h90v-471h119zM122 229h287v411z" />
    <glyph glyph-name="five.LinTab" horiz-adv-x="630" 
d="M529 700l-21 -55h-302l-16 -263c37 38 93 59 153 59c128 0 218 -83 218 -209c0 -150 -99 -241 -248 -241c-97 0 -170 29 -235 90l43 52c55 -61 116 -88 196 -88c97 0 177 58 177 178c0 94 -61 164 -161 164c-59 0 -111 -21 -153 -67l-52 3l23 377h378z" />
    <glyph glyph-name="six.LinTab" horiz-adv-x="630" 
d="M530 645l-35 -53c-45 43 -90 63 -147 63c-139 0 -219 -124 -218 -335c27 65 97 124 212 124c130 0 229 -76 229 -219c0 -123 -96 -234 -248 -234c-193 0 -254 170 -254 340c0 243 114 378 281 378c73 0 132 -23 180 -64zM325 45c108 0 179 74 179 174s-55 171 -172 171
c-131 0 -183 -89 -183 -162c0 -91 57 -183 176 -183z" />
    <glyph glyph-name="seven.LinTab" horiz-adv-x="630" 
d="M590 700v-46c-199 -176 -287 -384 -287 -654h-67c0 277 104 478 272 645h-432l-21 55h535z" />
    <glyph glyph-name="eight.LinTab" horiz-adv-x="630" 
d="M308 -9c-138 0 -243 66 -243 195c0 95 70 156 144 178c-59 15 -124 66 -124 155c0 95 76 190 237 190c138 0 223 -72 223 -180c0 -79 -59 -138 -125 -160c81 -19 145 -82 145 -174c0 -116 -96 -204 -257 -204zM312 389c94 0 168 49 168 136c0 79 -56 133 -162 133
c-104 0 -168 -49 -168 -135c0 -80 66 -134 162 -134zM312 42c104 0 188 42 188 149c0 99 -76 147 -182 147c-104 0 -188 -42 -188 -148c0 -100 76 -148 182 -148z" />
    <glyph glyph-name="nine.LinTab" horiz-adv-x="630" 
d="M100 55l35 53c45 -43 90 -63 147 -63c139 0 219 124 218 335c-27 -65 -97 -124 -212 -124c-130 0 -229 76 -229 219c0 123 96 234 248 234c193 0 254 -170 254 -340c0 -243 -114 -378 -281 -378c-73 0 -132 23 -180 64zM298 310c131 0 183 89 183 162
c0 91 -57 183 -176 183c-108 0 -179 -74 -179 -174s55 -171 172 -171z" />
    <glyph glyph-name="onesuperior" unicode="&#xb9;" horiz-adv-x="353" 
d="M165 310v377h-100v44c97 0 108 9 114 69h44v-490h-58z" />
    <glyph glyph-name="twosuperior" unicode="&#xb2;" horiz-adv-x="517" 
d="M437 359l-15 -49h-324c-16 217 266 206 266 350c0 54 -38 98 -100 98c-52 0 -92 -17 -136 -59l-27 42c50 42 102 65 165 65c105 0 158 -72 158 -142c0 -158 -247 -172 -271 -305h284z" />
    <glyph glyph-name="threesuperior" unicode="&#xb3;" horiz-adv-x="510" 
d="M62 367l38 42c43 -41 82 -57 142 -57c82 0 122 42 122 91c0 62 -42 95 -128 95h-75l-16 47h88c90 0 115 45 115 88c0 50 -34 85 -110 85c-50 0 -92 -19 -130 -48l-26 42c44 32 98 54 161 54c106 0 165 -55 165 -129c0 -51 -29 -95 -89 -114c72 -14 106 -59 106 -114
c0 -79 -65 -145 -186 -145c-73 0 -128 20 -177 63z" />
    <glyph glyph-name="four.superior" unicode="&#x2074;" horiz-adv-x="494" 
d="M458 475l-16 -47h-68v-118h-60v118h-251l-13 42l236 330h88v-325h84zM112 475h202v283z" />
    <glyph glyph-name="one.inferior" unicode="&#x2081;" horiz-adv-x="353" 
d="M165 -100v377h-100v44c97 0 108 9 114 69h44v-490h-58z" />
    <glyph glyph-name="two.inferior" unicode="&#x2082;" horiz-adv-x="517" 
d="M437 -51l-15 -49h-324c-16 217 266 206 266 350c0 54 -38 98 -100 98c-52 0 -92 -17 -136 -59l-27 42c50 42 102 65 165 65c105 0 158 -72 158 -142c0 -158 -247 -172 -271 -305h284z" />
    <glyph glyph-name="three.inferior" unicode="&#x2083;" horiz-adv-x="510" 
d="M62 -43l38 42c43 -41 82 -57 142 -57c82 0 122 42 122 91c0 62 -42 95 -128 95h-75l-16 47h88c90 0 115 45 115 88c0 50 -34 85 -110 85c-50 0 -92 -19 -130 -48l-26 42c44 32 98 54 161 54c106 0 165 -55 165 -129c0 -51 -29 -95 -89 -114c72 -14 106 -59 106 -114
c0 -79 -65 -145 -186 -145c-73 0 -128 20 -177 63z" />
    <glyph glyph-name="four.inferior" unicode="&#x2084;" horiz-adv-x="494" 
d="M458 65l-16 -47h-68v-118h-60v118h-251l-13 42l236 330h88v-325h84zM112 65h202v283z" />
    <glyph glyph-name="fraction" unicode="&#x2044;" horiz-adv-x="73" 
d="M281 819h64l-553 -939h-64z" />
    <glyph glyph-name="onehalf" unicode="&#xbd;" horiz-adv-x="957" 
d="M165 310v377h-100v44c97 0 108 9 114 69h44v-490h-58zM641 819h64l-553 -939h-64zM877 -51l-15 -49h-324c-16 217 266 206 266 350c0 54 -38 98 -100 98c-52 0 -92 -17 -136 -59l-27 42c50 42 102 65 165 65c105 0 158 -72 158 -142c0 -158 -247 -172 -271 -305h284z" />
    <glyph glyph-name="onequarter" unicode="&#xbc;" horiz-adv-x="884" 
d="M165 310v377h-100v44c97 0 108 9 114 69h44v-490h-58zM641 819h64l-553 -939h-64zM848 65l-16 -47h-68v-118h-60v118h-251l-13 42l236 330h88v-325h84zM502 65h202v283z" />
    <glyph glyph-name="threequarters" unicode="&#xbe;" horiz-adv-x="1024" 
d="M62 367l38 42c43 -41 82 -57 142 -57c82 0 122 42 122 91c0 62 -42 95 -128 95h-75l-16 47h88c90 0 115 45 115 88c0 50 -34 85 -110 85c-50 0 -92 -19 -130 -48l-26 42c44 32 98 54 161 54c106 0 165 -55 165 -129c0 -51 -29 -95 -89 -114c72 -14 106 -59 106 -114
c0 -79 -65 -145 -186 -145c-73 0 -128 20 -177 63zM781 819h64l-553 -939h-64zM988 65l-16 -47h-68v-118h-60v118h-251l-13 42l236 330h88v-325h84zM642 65h202v283z" />
    <glyph glyph-name="percent" unicode="%" horiz-adv-x="752" 
d="M189 390c-87 0 -135 61 -135 155s52 163 145 163c87 0 135 -61 135 -155s-52 -163 -145 -163zM524 700h62l-358 -700h-62zM193 436c55 0 83 45 83 112c0 70 -22 114 -81 114c-55 0 -83 -45 -83 -112c0 -70 22 -114 81 -114zM553 -8c-87 0 -135 61 -135 155
s52 163 145 163c87 0 135 -61 135 -155s-52 -163 -145 -163zM557 38c55 0 83 45 83 112c0 70 -22 114 -81 114c-55 0 -83 -45 -83 -112c0 -70 22 -114 81 -114z" />
    <glyph glyph-name="perthousand" unicode="&#x2030;" horiz-adv-x="1082" 
d="M189 390c-87 0 -135 61 -135 155s52 163 145 163c87 0 135 -61 135 -155s-52 -163 -145 -163zM524 700h62l-358 -700h-62zM193 436c55 0 83 45 83 112c0 70 -22 114 -81 114c-55 0 -83 -45 -83 -112c0 -70 22 -114 81 -114zM553 -8c-87 0 -135 61 -135 155
s52 163 145 163c87 0 135 -61 135 -155s-52 -163 -145 -163zM557 38c55 0 83 45 83 112c0 70 -22 114 -81 114c-55 0 -83 -45 -83 -112c0 -70 22 -114 81 -114zM883 -8c-87 0 -135 61 -135 155s52 163 145 163c87 0 135 -61 135 -155s-52 -163 -145 -163zM887 38
c55 0 83 45 83 112c0 70 -22 114 -81 114c-55 0 -83 -45 -83 -112c0 -70 22 -114 81 -114z" />
    <glyph glyph-name="plus" unicode="+" horiz-adv-x="630" 
d="M288 113v211h-210v52h210v211h54v-211h210v-52h-210v-211h-54z" />
    <glyph glyph-name="minus" unicode="&#x2212;" horiz-adv-x="630" 
d="M78 376h474v-52h-474v52z" />
    <glyph glyph-name="multiply" unicode="&#xd7;" horiz-adv-x="630" 
d="M86 541l38 38l191 -191l191 191l38 -38l-191 -191l191 -191l-38 -38l-191 191l-191 -191l-38 38l191 191z" />
    <glyph glyph-name="divide" unicode="&#xf7;" horiz-adv-x="630" 
d="M315 490c-30 0 -53 22 -53 53s23 53 53 53s53 -22 53 -53s-23 -53 -53 -53zM315 104c-30 0 -53 22 -53 53s23 53 53 53s53 -22 53 -53s-23 -53 -53 -53zM78 376h474v-52h-474v52z" />
    <glyph glyph-name="equal" unicode="=" horiz-adv-x="630" 
d="M78 486h474v-52h-474v52zM78 266h474v-52h-474v52z" />
    <glyph glyph-name="notequal" unicode="&#x2260;" horiz-adv-x="630" 
d="M78 265h162l91 170h-253v51h280l70 131h59l-70 -131h135v-51h-162l-91 -170h253v-51h-280l-70 -131h-59l70 131h-135v51z" />
    <glyph glyph-name="approxequal" unicode="&#x2248;" horiz-adv-x="630" 
d="M126 403l-49 20c22 57 54 105 113 105c84 0 194 -84 255 -84c27 0 43 32 59 73l49 -20c-22 -57 -54 -105 -113 -105c-84 0 -194 84 -255 84c-27 0 -43 -32 -59 -73zM126 183l-49 20c22 57 54 105 113 105c84 0 194 -84 255 -84c27 0 43 32 59 73l49 -20
c-22 -57 -54 -105 -113 -105c-84 0 -194 84 -255 84c-27 0 -43 -32 -59 -73z" />
    <glyph glyph-name="less" unicode="&#x3c;" horiz-adv-x="630" 
d="M78 380l474 206v-58l-418 -177l418 -177v-60l-474 206v60z" />
    <glyph glyph-name="greater" unicode="&#x3e;" horiz-adv-x="630" 
d="M552 320l-474 -206v58l418 177l-418 177v60l474 -206v-60z" />
    <glyph glyph-name="plusminus" unicode="&#xb1;" horiz-adv-x="630" 
d="M288 147v201h-210v52h210v201h54v-201h210v-52h-210v-201h-54zM78 52h474v-52h-474v52z" />
    <glyph glyph-name="lessequal" unicode="&#x2264;" horiz-adv-x="630" 
d="M78 404l474 196v-60l-415 -165l415 -165v-62l-474 196v60zM78 52h474v-52h-474v52z" />
    <glyph glyph-name="greaterequal" unicode="&#x2265;" horiz-adv-x="630" 
d="M552 344l-474 -196v60l414 165l-414 165v62l474 -196v-60zM78 52h474v-52h-474v52z" />
    <glyph glyph-name="logicalnot" unicode="&#xac;" horiz-adv-x="630" 
d="M78 396h474v-253h-54v201h-420v52z" />
    <glyph glyph-name="estimated" unicode="&#x212e;" horiz-adv-x="835" 
d="M692 192l47 -28c-73 -119 -194 -181 -324 -181c-206 0 -364 160 -364 366c0 207 162 367 369 367c206 0 364 -160 364 -367h-573v-188c0 -37 10 -56 36 -76c40 -29 100 -53 170 -53c111 0 210 54 275 160zM211 398h413v140c0 37 -10 56 -36 76c-40 29 -100 53 -171 53
c-70 0 -130 -24 -170 -53c-26 -20 -36 -39 -36 -76v-140z" />
    <glyph glyph-name="uni2113" unicode="&#x2113;" horiz-adv-x="430" 
d="M343 97l40 -37c-39 -49 -81 -70 -136 -70c-96 0 -130 58 -130 166v97l-92 -55v63l92 55v262c0 126 58 181 139 181c93 0 123 -69 123 -149c0 -84 -31 -214 -200 -320v-114c0 -95 13 -134 72 -134c35 0 63 15 92 55zM179 573v-220c116 79 138 181 138 250
c0 75 -21 104 -63 104c-43 0 -75 -33 -75 -134z" />
    <glyph glyph-name="infinity" unicode="&#x221e;" horiz-adv-x="899" 
d="M72 348c0 85 63 159 165 159c78 0 147 -58 213 -119c69 61 141 119 216 119c107 0 161 -70 161 -152c0 -85 -63 -159 -165 -159c-78 0 -148 58 -214 119c-68 -61 -140 -119 -215 -119c-107 0 -161 70 -161 152zM661 454c-54 0 -112 -48 -172 -102
c59 -55 117 -103 177 -103s96 48 96 101c0 59 -36 104 -101 104zM238 249c54 0 111 47 172 102c-60 55 -117 103 -177 103s-96 -48 -96 -101c0 -59 36 -104 101 -104z" />
    <glyph glyph-name="partialdiff" unicode="&#x2202;" horiz-adv-x="560" 
d="M204 677l55 32c133 -75 260 -185 260 -408c0 -113 -60 -311 -275 -311c-133 0 -203 75 -203 196c0 128 89 283 269 283c74 0 120 -31 143 -62c-27 104 -101 198 -249 270zM248 41c126 0 206 104 206 249c0 69 -37 128 -147 128c-126 0 -201 -103 -201 -233
c0 -78 42 -144 142 -144z" />
    <glyph glyph-name="integral" unicode="&#x222b;" horiz-adv-x="345" 
d="M322 753v-52c-14 3 -40 6 -58 6c-63 0 -86 -31 -86 -130c0 -119 31 -456 31 -617c0 -116 -49 -174 -150 -174c-21 0 -42 2 -55 6v52c14 -3 40 -6 58 -6c63 0 86 31 86 130c0 119 -31 456 -31 617c0 116 49 174 150 174c21 0 42 -2 55 -6z" />
    <glyph glyph-name="radical" unicode="&#x221a;" horiz-adv-x="612" 
d="M564 750l-234 -750h-71l-159 448h-95v49h145l145 -432l202 685h67z" />
    <glyph glyph-name="product" unicode="&#x220f;" horiz-adv-x="794" 
d="M741 695h-112v-895h-62v895h-339v-895h-63v895h-112v55h688v-55z" />
    <glyph glyph-name="summation" unicode="&#x2211;" horiz-adv-x="620" 
d="M554 -200h-513v48l330 434l-310 420v48h479v-55h-399l297 -402v-14l-320 -421h436v-58z" />
    <glyph glyph-name="lozenge" unicode="&#x25ca;" horiz-adv-x="624" 
d="M577 347l-241 -347h-40l-249 354l243 346h37zM509 342l-202 289l-191 -275l202 -285z" />
    <glyph glyph-name="apple" unicode="&#xf8ff;" horiz-adv-x="592" 
d="M365 337l46 -27c15 -9 22 -19 22 -34c0 -11 -4 -20 -11 -27c-12 -12 -28 -12 -45 -29c-31 -31 -16 -58 -42 -84c-9 -9 -23 -15 -39 -15s-30 6 -39 15c-26 26 -11 53 -42 84c-17 17 -33 17 -45 29c-7 7 -11 16 -11 27c0 15 7 25 22 34l46 27c11 6 16 15 16 25
c0 14 -10 29 -27 29c-6 0 -11 -1 -19 -6l-46 -27c-5 -3 -12 -5 -20 -5c-19 0 -39 15 -39 37c0 7 1 15 1 20c0 68 -54 64 -54 115c0 26 20 56 56 56c23 0 31 -10 54 -10c47 0 52 28 81 28c21 0 37 -17 37 -41v-55c0 -16 13 -29 29 -29s29 13 29 29v55c0 24 16 41 37 41
c29 0 34 -28 81 -28c23 0 31 10 54 10c36 0 56 -30 56 -56c0 -51 -54 -47 -54 -115c0 -5 1 -13 1 -20c0 -22 -20 -37 -39 -37c-8 0 -15 2 -20 5l-46 27c-8 5 -13 6 -19 6c-17 0 -27 -15 -27 -29c0 -10 5 -19 16 -25z" />
    <glyph glyph-name="uni2009" unicode="&#x2009;" horiz-adv-x="120" 
 />
    <glyph glyph-name="f.calt" horiz-adv-x="335" 
d="M390 520v-50h-208v-470h-63v470h-104v50h104v68c0 116 52 171 161 171c30 0 56 -3 80 -8v-54c-27 7 -53 10 -83 10c-68 0 -95 -30 -95 -124v-63h208z" />
    <glyph glyph-name="t.calt" horiz-adv-x="342" 
d="M387 470h-208v-314c0 -85 16 -111 77 -111c26 0 52 4 71 9v-54c-26 -7 -56 -10 -81 -10c-100 0 -130 47 -130 148v332h-101v50h101v145l63 17v-162h208v-50z" />
    <glyph glyph-name="ampersand.cap" horiz-adv-x="683" 
d="M549 440h64c6 -104 -19 -238 -91 -333c53 -54 69 -60 93 -60c13 0 33 4 65 18l-28 -60c-10 -5 -29 -9 -44 -9c-36 0 -69 18 -123 69c-49 -45 -114 -74 -196 -74c-140 0 -223 69 -223 184c0 98 69 155 143 203c-64 88 -74 129 -74 178c0 76 56 153 168 153
c106 0 153 -67 153 -138c0 -94 -84 -148 -166 -200c33 -41 76 -92 135 -157l60 -67c51 77 71 186 64 293zM295 44c62 0 113 22 152 59c-20 21 -42 45 -68 74c-60 66 -105 118 -139 161c-60 -42 -109 -87 -109 -155c0 -86 64 -139 164 -139zM198 559c0 -39 6 -72 62 -149
c70 43 132 84 132 152c0 47 -25 96 -96 96c-65 0 -98 -46 -98 -99z" />
    <glyph glyph-name="c.calt" horiz-adv-x="490" 
d="M437 118l40 -37c-47 -57 -112 -90 -193 -90c-149 0 -234 114 -234 267c0 142 93 271 251 271c63 0 109 -21 142 -48l-27 -54c-31 31 -69 51 -118 51c-113 0 -183 -88 -183 -218c0 -120 60 -218 171 -218c65 0 114 26 151 76z" />
    <glyph glyph-name="ccedilla.calt" horiz-adv-x="490" 
d="M437 118l40 -37c-43 -52 -100 -83 -171 -89c34 -43 46 -73 46 -106c0 -48 -25 -95 -112 -95c-21 0 -43 4 -60 9l-7 50c27 -9 50 -13 70 -13c36 0 54 16 54 44c0 33 -12 62 -50 113c-126 16 -197 124 -197 264c0 142 93 271 251 271c63 0 109 -21 142 -48l-27 -54
c-31 31 -69 51 -118 51c-113 0 -183 -88 -183 -218c0 -120 60 -218 171 -218c65 0 114 26 151 76z" />
    <glyph glyph-name="cacute.calt" horiz-adv-x="490" 
d="M437 118l40 -37c-47 -57 -112 -90 -193 -90c-149 0 -234 114 -234 267c0 142 93 271 251 271c63 0 109 -21 142 -48l-27 -54c-31 31 -69 51 -118 51c-113 0 -183 -88 -183 -218c0 -120 60 -218 171 -218c65 0 114 26 151 76zM353 750h72l-112 -150h-62z" />
    <glyph glyph-name="ccaron.calt" horiz-adv-x="490" 
d="M437 118l40 -37c-47 -57 -112 -90 -193 -90c-149 0 -234 114 -234 267c0 142 93 271 251 271c63 0 109 -21 142 -48l-27 -54c-31 31 -69 51 -118 51c-113 0 -183 -88 -183 -218c0 -120 60 -218 171 -218c65 0 114 26 151 76zM318 600h-62l-101 150h62l71 -107l71 107h60z
" />
    <glyph glyph-name="ccircumflex.calt" horiz-adv-x="490" 
d="M437 118l40 -37c-47 -57 -112 -90 -193 -90c-149 0 -234 114 -234 267c0 142 93 271 251 271c63 0 109 -21 142 -48l-27 -54c-31 31 -69 51 -118 51c-113 0 -183 -88 -183 -218c0 -120 60 -218 171 -218c65 0 114 26 151 76zM257 750h62l101 -150h-62l-71 106l-71 -106
h-60z" />
    <glyph glyph-name="cdotaccent.calt" horiz-adv-x="490" 
d="M437 118l40 -37c-47 -57 -112 -90 -193 -90c-149 0 -234 114 -234 267c0 142 93 271 251 271c63 0 109 -21 142 -48l-27 -54c-31 31 -69 51 -118 51c-113 0 -183 -88 -183 -218c0 -120 60 -218 171 -218c65 0 114 26 151 76zM289 621c-26 0 -47 19 -47 47
c0 26 21 46 47 46s46 -20 46 -46s-20 -47 -46 -47z" />
    <glyph glyph-name="uni0441.calt" horiz-adv-x="490" 
d="M437 118l40 -37c-47 -57 -112 -90 -193 -90c-149 0 -234 114 -234 267c0 142 93 271 251 271c63 0 109 -21 142 -48l-27 -54c-31 31 -69 51 -118 51c-113 0 -183 -88 -183 -218c0 -120 60 -218 171 -218c65 0 114 26 151 76z" />
    <glyph glyph-name="uni04AB.calt" horiz-adv-x="490" 
d="M437 118l40 -37c-41 -50 -95 -81 -162 -88v-136h-54v135c-135 11 -211 121 -211 266c0 142 93 271 251 271c63 0 109 -21 142 -48l-27 -54c-31 31 -69 51 -118 51c-113 0 -183 -88 -183 -218c0 -120 60 -218 171 -218c65 0 114 26 151 76z" />
    </font>
</defs>
</svg>
